<svg width="52" height="52" viewBox="0 0 52 52" fill="none" xmlns="http://www.w3.org/2000/svg">
<path d="M25.8333 51.6667C11.566 51.6667 0 40.1007 0 25.8333C0 11.566 11.566 0 25.8333 0C40.1007 0 51.6667 11.566 51.6667 25.8333C51.651 40.0942 40.0942 51.651 25.8333 51.6667ZM25.8333 5.16667C14.4194 5.16667 5.16667 14.4194 5.16667 25.8333C5.16667 37.2472 14.4194 46.5 25.8333 46.5C37.2472 46.5 46.5 37.2472 46.5 25.8333C46.4872 14.4248 37.2419 5.17948 25.8333 5.16667ZM25.8333 41.3333C21.7517 41.4024 17.8937 39.4734 15.5 36.1667C14.3377 34.6123 13.4628 32.8625 12.9167 31H38.75C38.75 31 38.75 31 38.75 31.0207C38.1954 32.8735 37.3211 34.615 36.1667 36.1667C33.7727 39.4731 29.9148 41.402 25.8333 41.3333ZM16.7917 25.8333C14.6516 25.8333 12.9167 24.0984 12.9167 21.9583C12.9167 19.8182 14.6516 18.0833 16.7917 18.0833C18.9318 18.0833 20.6667 19.8182 20.6667 21.9583C20.6667 24.0984 18.9318 25.8333 16.7917 25.8333ZM34.8569 25.7972C32.7268 25.7972 31 24.0704 31 21.9403C31 19.8101 32.7268 18.0833 34.8569 18.0833C36.987 18.0833 38.7138 19.8101 38.7138 21.9403C38.711 24.0692 36.9859 25.7943 34.8569 25.7972Z" fill="#E6EAF3"/>
</svg>
