<svg width="63" height="62" viewBox="0 0 63 62" fill="none" xmlns="http://www.w3.org/2000/svg">
<path d="M41.8897 21.0678C41.3067 20.9086 40.7058 20.9047 40.1358 21.0509L38.2209 17.6913L36.6169 18.6124L38.5319 21.9725C38.1175 22.3913 37.8157 22.9134 37.6571 23.4986C37.4153 24.3908 37.534 25.3239 37.9916 26.1263L38.9524 27.8126C39.4095 28.615 40.1512 29.1907 41.0399 29.4338C41.3408 29.5159 41.647 29.5569 41.9507 29.5569C42.2353 29.5569 42.5179 29.5207 42.7938 29.4502L43.1706 30.1108C42.1093 31.1887 41.844 32.8861 42.6294 34.2641L43.5902 35.9505C44.0478 36.7528 44.789 37.3285 45.6777 37.5712C45.9786 37.6537 46.2848 37.6942 46.5885 37.6942C46.8731 37.6942 47.1562 37.6585 47.4316 37.5876L49.3605 40.9723L50.9649 40.0512L49.0351 36.6655C50.0963 35.5881 50.3617 33.8902 49.5763 32.5127L48.6154 30.8263C47.8301 29.4483 46.2377 28.8177 44.7746 29.1897L44.3977 28.5292C44.8125 28.1099 45.1139 27.5883 45.2725 27.003C45.5143 26.1109 45.3956 25.1772 44.938 24.3748L43.9772 22.689C43.5201 21.8861 42.7784 21.3105 41.8897 21.0678ZM47.011 31.7474L47.9723 33.4337C48.2396 33.9027 48.2444 34.4518 48.0339 34.9083L47.4965 33.9659L45.8926 34.887L46.4304 35.8303C46.341 35.8216 46.2516 35.8052 46.1632 35.7811C45.7508 35.6687 45.4066 35.4014 45.1942 35.0289L44.2333 33.343C43.9661 32.8736 43.9608 32.3245 44.1718 31.868L44.7227 32.8345L46.3271 31.9134L45.7758 30.9465C46.2747 30.9957 46.7438 31.2784 47.011 31.7474ZM42.8587 25.8286L41.2548 26.7497L41.7921 27.693C41.7027 27.6843 41.6133 27.6679 41.5249 27.6438C41.1125 27.5309 40.7683 27.264 40.5564 26.8916L39.5955 25.2052C39.3831 24.8327 39.3278 24.3995 39.4403 23.9855C39.4643 23.8967 39.4956 23.8113 39.5331 23.7293L40.0848 24.6972L41.6888 23.7756L41.138 22.8091C41.6369 22.8579 42.106 23.1406 42.3732 23.6096L43.334 25.2959C43.5465 25.6684 43.6018 26.1012 43.4893 26.5157C43.4653 26.6045 43.434 26.6899 43.3965 26.7719L42.8587 25.8286Z" fill="#9965EB"/>
<path d="M13.6885 40.9723L15.6183 37.5866C15.8962 37.657 16.1793 37.6918 16.4604 37.6918C17.6577 37.6918 18.8228 37.066 19.4588 35.95L20.4201 34.2641C20.8772 33.4617 20.9959 32.5281 20.7541 31.636C20.5955 31.0507 20.2936 30.5291 19.8793 30.1098L20.2562 29.4493C20.5344 29.5197 20.8171 29.5545 21.0983 29.5545C22.2956 29.5545 23.4607 28.9287 24.097 27.8126L25.0579 26.1263C25.8432 24.7488 25.5779 23.0514 24.5166 21.9735L26.4325 18.6124L24.8286 17.6913L22.9127 21.0524C21.4496 20.6799 19.8572 21.311 19.0718 22.6885L18.111 24.3748C17.3256 25.7529 17.5909 27.4503 18.6522 28.5277L18.2754 29.1887C17.7053 29.0425 17.1045 29.0459 16.5215 29.2051C15.6328 29.4478 14.8916 30.0234 14.434 30.8258L13.4732 32.5122C12.6878 33.8902 12.9531 35.5876 14.0139 36.6655L12.0846 40.0507L13.6885 40.9723ZM19.5597 26.5157C19.4477 26.1012 19.5025 25.6684 19.7149 25.2959L20.6758 23.6096C20.943 23.1406 21.4121 22.8584 21.9115 22.8091L21.3607 23.7761L22.9646 24.6972L23.5154 23.7302C23.7265 24.1872 23.7216 24.7362 23.4539 25.2052L22.4931 26.8916C22.2254 27.3605 21.7567 27.6433 21.2573 27.692L21.7942 26.7502L20.1903 25.8286L19.6529 26.7719C19.615 26.6899 19.5837 26.6045 19.5597 26.5157ZM15.0771 33.4337L16.038 31.7474C16.2504 31.3749 16.5941 31.1076 17.0065 30.9952C17.0949 30.9711 17.1843 30.9547 17.2737 30.946L16.7224 31.9134L18.3263 32.8345L18.8772 31.868C19.0882 32.3245 19.0834 32.8736 18.8161 33.343L17.8548 35.0289C17.5876 35.4984 17.1185 35.7806 16.6195 35.8298L17.1564 34.8875L15.5525 33.9664L15.0156 34.9087C14.8046 34.4518 14.8094 33.9027 15.0771 33.4337Z" fill="#9965EB"/>
<path d="M40.8005 50.7327L44.6568 50.7216L44.6515 48.8664L40.7938 48.8775C40.3857 47.4222 39.0514 46.353 37.4744 46.353H37.4643L35.5292 46.3588C33.9478 46.3632 32.6145 47.4415 32.2141 48.9021L31.4557 48.9045C31.2975 48.3356 30.9947 47.8145 30.566 47.387C29.9152 46.7376 29.0524 46.38 28.1348 46.38H28.1248L26.1897 46.3854C25.2687 46.3882 24.404 46.7506 23.7547 47.4063C23.3283 47.8367 23.0284 48.3593 22.8736 48.9291L18.989 48.9402L18.9943 50.7949L22.8799 50.7838C23.288 52.2395 24.6227 53.3082 26.1997 53.3082H26.2094L28.1445 53.3024C29.0654 53.3 29.9306 52.9372 30.5799 52.282C31.0058 51.8516 31.3057 51.329 31.461 50.7592L32.218 50.7568C32.3761 51.3256 32.6794 51.8467 33.1077 52.2747C33.7585 52.9242 34.6212 53.2812 35.5388 53.2812H35.5489L37.484 53.2759C38.4049 53.273 39.2701 52.9107 39.9195 52.2549C40.3453 51.825 40.6452 51.3025 40.8005 50.7327ZM29.2697 50.9739C28.9683 51.2784 28.567 51.4463 28.1397 51.4477L26.2046 51.453H26.1997C25.6633 51.453 25.187 51.1867 24.8967 50.778L25.9782 50.7751L25.9729 48.9199L24.89 48.9233C24.9419 48.8495 25 48.7795 25.0649 48.7144C25.3663 48.4099 25.7676 48.242 26.1949 48.2406L28.13 48.2348H28.1348C28.5607 48.2348 28.9611 48.4007 29.2629 48.7023C29.3283 48.767 29.3869 48.8364 29.4393 48.9103L28.3286 48.9132L28.3338 50.7684L29.4446 50.765C29.3927 50.8388 29.3341 50.9088 29.2697 50.9739ZM37.4787 51.4207L35.5436 51.4265H35.5388C35.1129 51.4265 34.7126 51.2605 34.4107 50.9594C34.3458 50.8943 34.2867 50.8248 34.2348 50.7515L35.3172 50.7481L35.3119 48.8934L34.2305 48.8963C34.5193 48.4852 34.9961 48.2155 35.5345 48.2135L37.4696 48.2082H37.4744C38.0108 48.2082 38.4866 48.4746 38.7774 48.8832L37.6681 48.8866L37.6734 50.7413L38.7837 50.7384C38.7318 50.8123 38.6736 50.8818 38.6087 50.9474C38.3074 51.2513 37.906 51.4197 37.4787 51.4207Z" fill="#9965EB"/>
<path d="M32.4484 25.5445V15.2716L41.3111 10.1349L40.3868 8.52869L31.5246 13.6649L22.6623 8.52869L21.738 10.1349L30.6008 15.2716V25.5445H32.4484Z" fill="#9965EB"/>
<path d="M59.1437 41.0529L50.2838 46.1939L41.4177 41.0611L40.4944 42.6678L49.3605 47.8006L49.3653 58.0735L51.2129 58.073L51.2086 47.8001L60.0684 42.6586L59.1437 41.0529Z" fill="#9965EB"/>
<path d="M13.6371 58.0072V47.7344L22.4994 42.5982L21.5755 40.9919L12.7133 46.1281L3.84959 40.9915L2.92578 42.5982L11.789 47.7344V58.0072H13.6371Z" fill="#9965EB"/>
<path d="M20.6598 8.43889L31.5244 2.14181L42.3891 8.43889V19.9817H44.2372V7.36774L31.5244 0L18.8121 7.36774V19.9817H20.6598V8.43889Z" fill="#9965EB"/>
<path d="M31.5244 29.4709L36.628 26.5132L35.7042 24.907L31.5244 27.3291L27.3437 24.906L26.4199 26.5122L31.5244 29.4709Z" fill="#9965EB"/>
<path d="M12.7128 59.7926L1.8481 53.4955V40.9018L11.9408 35.0525L11.017 33.4458L0 39.8312V54.5667L12.7128 61.9344L24.4455 55.1346L23.5216 53.5278L12.7128 59.7926Z" fill="#9965EB"/>
<path d="M25.425 45.1363V39.8313L20.4652 36.9565L19.5414 38.5633L23.5774 40.9019V45.1363H25.425Z" fill="#9965EB"/>
<path d="M62.9928 39.8905L52.0306 33.5442L51.1072 35.1509L61.1456 40.9621L61.1519 53.5558L50.2901 59.8582L39.6687 53.7092L38.7454 55.3159L50.2911 62L63 54.626L62.9928 39.8905Z" fill="#9965EB"/>
<path d="M42.6061 36.9796L37.5679 39.9031L37.5703 44.9133L39.4184 44.9124L39.416 40.9732L43.5308 38.5854L42.6061 36.9796Z" fill="#9965EB"/>
<path d="M25.7254 9.08682L24.7992 7.48155L26.3978 6.55178L27.3245 8.15657L25.7254 9.08682ZM36.6915 8.70613L31.5254 5.71223L31.0549 5.98629L30.1282 4.38102L31.5235 3.56946L37.6158 7.09989L36.6915 8.70613ZM28.3901 7.53656L27.4639 5.93128L29.0626 5.00151L29.9888 6.6063L28.3901 7.53656Z" fill="#9965EB"/>
<path d="M53.8302 56.3755L52.9054 54.7697L58.07 51.7729L58.069 51.2267L59.9167 51.2229L59.92 52.8417L53.8302 56.3755ZM58.0662 49.9901L58.0623 48.1354L59.9099 48.131L59.9143 49.9862L58.0662 49.9901ZM58.0594 46.8987L58.0556 45.0435L59.9037 45.0397L59.9075 46.8944L58.0594 46.8987Z" fill="#9965EB"/>
<path d="M9.81773 56.6723L3.07996 52.7824V50.8423H4.92758V51.7098L10.7387 55.0646L9.81773 56.6723ZM3.07996 49.6056V47.7504H4.92758V49.6051L3.07996 49.6056ZM4.92758 46.5138H3.07996V44.6586H4.92758V46.5138Z" fill="#9965EB"/>
</svg>
