<svg width="74" height="59" viewBox="0 0 74 59" fill="none" xmlns="http://www.w3.org/2000/svg">
<path d="M47.0268 52.4099C58.2466 52.4099 67.3746 43.3301 67.3746 32.1694C67.3746 21.0087 58.2466 11.9287 47.0268 11.9287C35.8069 11.9287 26.6788 21.0086 26.6788 32.1694C26.6788 43.3302 35.8069 52.4099 47.0268 52.4099ZM31.8765 31.0849H28.8925C29.1418 26.9172 30.8171 23.1256 33.4392 20.1868L35.5431 22.2797C35.7559 22.4915 36.035 22.5973 36.3139 22.5973C36.5928 22.5973 36.8719 22.4915 37.0846 22.2797C37.5103 21.8562 37.5103 21.1696 37.0846 20.7463L34.9807 18.6534C37.935 16.0452 41.7467 14.3787 45.9366 14.1307V17.099C45.9366 17.6978 46.4245 18.1833 47.0267 18.1833C47.6288 18.1833 48.1167 17.6978 48.1167 17.099V14.1307C52.3066 14.3787 56.1183 16.0452 59.0725 18.6534L56.9685 20.7463C56.5428 21.1698 56.5428 21.8563 56.9685 22.2797C57.1814 22.4913 57.4605 22.5973 57.7394 22.5973C58.0183 22.5973 58.2974 22.4915 58.5103 22.2797L60.6141 20.1868C63.236 23.1256 64.9115 26.917 65.1606 31.0848H62.1767C61.5745 31.0848 61.0866 31.5703 61.0866 32.1691C61.0866 32.7679 61.5745 33.2534 62.1767 33.2534H65.1606C64.9114 37.4212 63.236 41.2128 60.614 44.1514L58.5101 42.0587C58.0843 41.6353 57.3942 41.6353 56.9685 42.0587C56.5428 42.4822 56.5428 43.1688 56.9685 43.5921L59.0725 45.6849C56.1181 48.2932 52.3066 49.9597 48.1167 50.2076V47.2394C48.1167 46.6406 47.6288 46.1551 47.0267 46.1551C46.4245 46.1551 45.9366 46.6406 45.9366 47.2394V50.2076C41.7466 49.9597 37.935 48.2932 34.9807 45.6849L37.0846 43.5922C37.5103 43.1687 37.5103 42.4822 37.0846 42.0589C36.6588 41.6353 35.9687 41.6354 35.5431 42.0589L33.4392 44.1516C30.8171 41.2128 29.1418 37.4213 28.8925 33.2534H31.8765C32.4785 33.2534 32.9666 32.7679 32.9666 32.1691C32.9666 31.5704 32.4785 31.0849 31.8765 31.0849Z" fill="#9965EB"/>
<path d="M60.2439 53.0385C56.293 55.5199 51.7226 56.8313 47.0268 56.8313C33.3558 56.8313 22.2336 45.7677 22.2336 32.1688C22.2336 26.6633 24.0169 21.456 27.3905 17.1098C27.7584 16.6359 27.6705 15.9549 27.1939 15.5889C26.7175 15.223 26.0329 15.3104 25.6649 15.7845C21.9938 20.5137 20.0535 26.1792 20.0535 32.1688C20.0535 46.9635 32.1536 58.9999 47.0268 58.9999C52.1352 58.9999 57.1082 57.5725 61.4078 54.8722C61.9169 54.5525 62.0689 53.8828 61.7476 53.3764C61.4261 52.8701 60.753 52.719 60.2439 53.0385Z" fill="#9965EB"/>
<path d="M53.6008 6.14527V2.03503C53.6008 0.912841 52.683 0 51.555 0H42.4983C41.3702 0 40.4525 0.912841 40.4525 2.03503V6.14412C36.1177 7.22438 32.096 9.36754 28.7486 12.4371C28.3061 12.8431 28.278 13.529 28.686 13.9693C29.0941 14.4096 29.7838 14.4376 30.2263 14.0317C34.8149 9.82382 40.7814 7.50644 47.0267 7.50644C60.6977 7.50644 71.8199 18.57 71.8199 32.1689C71.8199 39.1491 68.8263 45.8328 63.6067 50.5057C63.1593 50.9063 63.123 51.5919 63.5257 52.037C63.7408 52.275 64.0379 52.3959 64.3361 52.3959C64.596 52.3959 64.8567 52.3041 65.0652 52.1176C70.7433 47.0339 74 39.7628 74 32.1688C74.0001 19.6293 65.3069 9.07261 53.6008 6.14527ZM42.6327 5.69362V2.16861H51.4209V5.69579C49.9904 5.46158 48.5229 5.33783 47.0269 5.33783C45.5435 5.33783 44.0746 5.45811 42.6327 5.69362Z" fill="#9965EB"/>
<path d="M47.0268 32.928C47.4358 32.928 47.7916 32.7038 47.9781 32.3724L51.7383 28.632C52.164 28.2086 52.164 27.522 51.7383 27.0985C51.3126 26.6751 50.6226 26.6751 50.1966 27.0985L48.1168 29.1672V23.8868C48.1168 23.288 47.6288 22.8025 47.0267 22.8025C46.4246 22.8025 45.9366 23.288 45.9366 23.8868V31.8434C45.9368 32.4426 46.4247 32.928 47.0268 32.928Z" fill="#9965EB"/>
<path d="M16.0856 32.4137C16.0856 31.8148 15.5975 31.3293 14.9955 31.3293H1.09005C0.488053 31.3293 0 31.8148 0 32.4137C0 33.0125 0.488053 33.498 1.09005 33.498H14.9955C15.5975 33.498 16.0856 33.0126 16.0856 32.4137Z" fill="#9965EB"/>
<path d="M5.43783 27.1833H16.4491C17.0511 27.1833 17.5392 26.6978 17.5392 26.099C17.5392 25.5001 17.0511 25.0146 16.4491 25.0146H5.43783C4.83583 25.0146 4.34778 25.5001 4.34778 26.099C4.34778 26.6978 4.83569 27.1833 5.43783 27.1833Z" fill="#9965EB"/>
<path d="M17.9022 18.7002H8.87179C8.26979 18.7002 7.78174 19.1857 7.78174 19.7845C7.78174 20.3833 8.26979 20.8688 8.87179 20.8688H17.9022C18.5042 20.8688 18.9923 20.3833 18.9923 19.7845C18.9923 19.1855 18.5042 18.7002 17.9022 18.7002Z" fill="#9965EB"/>
<path d="M17.539 38.2391C17.539 37.6403 17.051 37.1548 16.449 37.1548H5.43783C4.83583 37.1548 4.34778 37.6403 4.34778 38.2391C4.34778 38.8379 4.83583 39.3234 5.43783 39.3234H16.4491C17.051 39.3234 17.539 38.8379 17.539 38.2391Z" fill="#9965EB"/>
<path d="M17.9022 43.4695H8.87179C8.26979 43.4695 7.78174 43.955 7.78174 44.5538C7.78174 45.1526 8.26979 45.6381 8.87179 45.6381H17.9022C18.5042 45.6381 18.9923 45.1526 18.9923 44.5538C18.9923 43.955 18.5042 43.4695 17.9022 43.4695Z" fill="#9965EB"/>
</svg>
