<svg width="34" height="24" viewBox="0 0 34 24" fill="none" xmlns="http://www.w3.org/2000/svg">
<path d="M30.2812 0H3.71875C1.66826 0 0 1.71286 0 3.81818V20.1818C0 22.2871 1.66826 24 3.71875 24H30.2812C32.3317 24 34 22.2871 34 20.1818V3.81818C34 1.71286 32.3317 0 30.2812 0ZM3.71875 2.18182H30.2812C31.16 2.18182 31.875 2.91593 31.875 3.81818V6H2.125V3.81818C2.125 2.91593 2.84 2.18182 3.71875 2.18182ZM30.2812 21.8182H3.71875C2.84 21.8182 2.125 21.0841 2.125 20.1818V8.18182H31.875V20.1818C31.875 21.0841 31.16 21.8182 30.2812 21.8182Z" fill="white"/>
<path d="M7.4375 18.5452H6.375C5.78823 18.5452 5.3125 18.0567 5.3125 17.4543V16.3634C5.3125 15.7609 5.78823 15.2725 6.375 15.2725H7.4375C8.02427 15.2725 8.5 15.7609 8.5 16.3634V17.4543C8.5 18.0567 8.02427 18.5452 7.4375 18.5452Z" fill="white"/>
</svg>
