<svg width="56" height="65" viewBox="0 0 56 65" fill="none" xmlns="http://www.w3.org/2000/svg">
<path d="M28.221 34.7096C37.7157 34.7096 45.4401 26.9243 45.4401 17.3547C45.4401 7.78529 37.7157 0 28.221 0C18.7263 0 11.002 7.78529 11.002 17.3547C11.002 26.9243 18.7265 34.7096 28.221 34.7096ZM28.221 1.90792C36.6718 1.90792 43.547 8.83731 43.547 17.3547C43.547 25.8721 36.6718 32.8016 28.221 32.8016C19.7703 32.8016 12.8949 25.8723 12.8949 17.3547C12.8949 8.83744 19.7703 1.90792 28.221 1.90792Z" fill="#9965EB"/>
<path d="M12.1596 44.1793C11.9807 43.9876 11.7312 43.8789 11.4701 43.8789C11.209 43.8789 10.9596 43.9876 10.7806 44.1793L4.35094 51.0685C4.09222 51.3458 4.02181 51.7514 4.17158 52.1006C4.32134 52.45 4.6628 52.6761 5.04042 52.6761H6.89878V56.1404C6.89878 56.6673 7.32262 57.0944 7.84533 57.0944C8.36805 57.0944 8.79189 56.6673 8.79189 56.1404V51.7221C8.79189 51.1952 8.36805 50.7681 7.84533 50.7681H7.23017L11.47 46.2251L15.7098 50.7681H15.0946C14.5719 50.7681 14.148 51.1952 14.148 51.7221V63.0917H8.79164V59.9564C8.79164 59.4296 8.3678 59.0024 7.84508 59.0024C7.32237 59.0024 6.89852 59.4296 6.89852 59.9564V64.0457C6.89852 64.5725 7.32237 64.9997 7.84508 64.9997H15.0945C15.6172 64.9997 16.041 64.5725 16.041 64.0457V52.6761H17.8994C18.2769 52.6761 18.6183 52.45 18.7682 52.1006C18.918 51.7514 18.8476 51.3457 18.5889 51.0685L12.1596 44.1793Z" fill="#9965EB"/>
<path d="M28.9106 37.6163C28.7317 37.4246 28.4822 37.3159 28.2211 37.3159C27.96 37.3159 27.7106 37.4246 27.5316 37.6163L21.1021 44.5057C20.8434 44.7829 20.7728 45.1885 20.9227 45.5378C21.0725 45.8871 21.414 46.1132 21.7916 46.1132H23.6499V64.046C23.6499 64.5728 24.0738 65 24.5965 65H31.8459C32.3687 65 32.7924 64.5728 32.7924 64.046V46.1132H34.6508C35.0284 46.1132 35.3698 45.8871 35.5196 45.5378C35.6694 45.1885 35.5989 44.7828 35.3402 44.5057L28.9106 37.6163ZM31.8459 44.2053C31.323 44.2053 30.8993 44.6325 30.8993 45.1593V63.0921H25.5429V45.1592C25.5429 44.6324 25.1191 44.2052 24.5964 44.2052H23.9812L28.221 39.6622L32.4608 44.2052H31.8459V44.2053Z" fill="#9965EB"/>
<path d="M45.6616 31.5432C45.4828 31.3515 45.2332 31.2428 44.9721 31.2428C44.7112 31.2428 44.4615 31.3515 44.2827 31.5432L37.853 38.4324C37.5943 38.7096 37.5237 39.1153 37.6735 39.4645C37.8234 39.8139 38.1647 40.04 38.5423 40.04H40.4007V45.8618C40.4007 46.3886 40.8244 46.8158 41.3472 46.8158C41.8701 46.8158 42.2938 46.3886 42.2938 45.8618V39.0861C42.2938 38.5593 41.8701 38.1321 41.3472 38.1321H40.7322L44.972 33.5891L49.2117 38.1321H48.5966C48.0738 38.1321 47.6501 38.5593 47.6501 39.0861V63.0914H42.2937V49.6777C42.2937 49.1509 41.87 48.7237 41.3471 48.7237C40.8243 48.7237 40.4006 49.1508 40.4006 49.6777V64.0455C40.4006 64.5723 40.8243 64.9995 41.3471 64.9995H48.5966C49.1195 64.9995 49.5432 64.5723 49.5432 64.0455V40.04H51.4016C51.7792 40.04 52.1205 39.8139 52.2704 39.4645C52.4202 39.1153 52.3496 38.7096 52.0909 38.4324L45.6616 31.5432Z" fill="#9965EB"/>
<path d="M7.44463 17.6967C7.44463 17.1699 7.02078 16.7427 6.49807 16.7427H0.946559C0.423842 16.7427 0 17.1699 0 17.6967C0 18.2235 0.423716 18.6507 0.946559 18.6507H6.49807C7.02091 18.6506 7.44463 18.2235 7.44463 17.6967Z" fill="#9965EB"/>
<path d="M7.72277 25.1834L5.74828 25.963C5.26146 26.1552 5.02152 26.7087 5.21221 27.1992C5.35845 27.5755 5.71566 27.8054 6.09378 27.8054C6.20865 27.8054 6.32541 27.7842 6.43877 27.7394L8.41326 26.9598C8.90008 26.7676 9.14002 26.2141 8.94933 25.7236C8.7585 25.2332 8.20934 24.9912 7.72277 25.1834Z" fill="#9965EB"/>
<path d="M5.74827 9.42979L7.72275 10.2094C7.83624 10.2542 7.95287 10.2754 8.06774 10.2754C8.44586 10.2754 8.80308 10.0454 8.94931 9.66921C9.14001 9.17868 8.90006 8.62518 8.41324 8.43298L6.43876 7.65339C5.95181 7.46119 5.40289 7.70315 5.2122 8.19368C5.0215 8.68409 5.26157 9.23759 5.74827 9.42979Z" fill="#9965EB"/>
<path d="M55.0535 16.7427H49.502C48.9791 16.7427 48.5554 17.1699 48.5554 17.6967C48.5554 18.2235 48.9791 18.6507 49.502 18.6507H55.0535C55.5763 18.6507 56 18.2235 56 17.6967C55.9999 17.1699 55.5762 16.7427 55.0535 16.7427Z" fill="#9965EB"/>
<path d="M47.5869 26.9598L49.5613 27.7394C49.6747 27.7842 49.7915 27.8054 49.9064 27.8054C50.2845 27.8054 50.6417 27.5754 50.7879 27.1992C50.9786 26.7087 50.7387 26.1552 50.252 25.963L48.2776 25.1834C47.7904 24.9912 47.2418 25.2332 47.051 25.7237C46.8603 26.214 47.1002 26.7675 47.5869 26.9598Z" fill="#9965EB"/>
<path d="M47.9325 10.2748C48.0474 10.2748 48.1643 10.2536 48.2776 10.2088L50.252 9.42922C50.7387 9.23702 50.9786 8.68352 50.7879 8.19298C50.5971 7.70233 50.0478 7.46074 49.5613 7.65269L47.5869 8.43228C47.1002 8.62449 46.8603 9.17798 47.051 9.66852C47.1972 10.0449 47.5544 10.2748 47.9325 10.2748Z" fill="#9965EB"/>
<path d="M28.0861 17.9025C27.685 17.9025 27.3607 17.5734 27.3607 17.1664C27.3607 16.7611 27.685 16.4303 28.0861 16.4303H29.5367C29.9361 16.4303 30.2621 16.7594 30.2621 17.1664C30.2621 17.5734 29.9377 17.9025 29.5367 17.9025H28.0861Z" fill="#9965EB"/>
<path d="M29.5353 20.8446C31.5372 20.8446 33.1604 19.1957 33.1604 17.1658C33.1604 15.1342 31.5372 13.4869 29.5353 13.4869H25.6818C25.2807 13.4869 24.9564 13.8161 24.9564 14.223C24.9564 14.6284 25.2823 14.9591 25.6818 14.9591H29.5353C30.7368 14.9591 31.7113 15.9481 31.7113 17.1674C31.7113 18.3867 30.7368 19.3757 29.5353 19.3757H25.6818C25.2807 19.3757 24.9564 19.7048 24.9564 20.1118C24.9564 20.5171 25.2823 20.8462 25.6818 20.8462H29.5353V20.8446Z" fill="#9965EB"/>
<path d="M20.8347 9.07473C20.4337 9.07473 20.1094 8.74559 20.1094 8.33863C20.1094 7.93167 20.4337 7.60254 20.8347 7.60254H29.5356C34.7408 7.60254 38.9618 11.8878 38.9618 17.1685C38.9618 22.4493 34.7408 26.7345 29.5356 26.7345H20.8347C20.4337 26.7345 20.1094 26.4054 20.1094 25.9985C20.1094 25.5915 20.4337 25.2624 20.8347 25.2624H29.5356C33.9403 25.2624 37.5111 21.6354 37.5111 17.1685C37.5111 12.7001 33.9387 9.07473 29.5356 9.07473H20.8347Z" fill="#9965EB"/>
<path d="M29.5358 12.0146C32.3381 12.0146 34.6116 14.3218 34.6116 17.1657C34.6116 20.0095 32.3397 22.3167 29.5358 22.3167H23.249C22.848 22.3167 22.5237 22.6458 22.5237 23.0528C22.5237 23.4581 22.8496 23.7889 23.249 23.7889H29.5358C33.1385 23.7889 36.0623 20.8218 36.0623 17.1657C36.0623 13.5095 33.1385 10.5441 29.5358 10.5441H23.249C22.848 10.5441 22.5237 10.8732 22.5237 11.2785C22.5237 11.6855 22.8496 12.0146 23.249 12.0146H29.5358Z" fill="#9965EB"/>
</svg>
