<svg width="34" height="34" viewBox="0 0 34 34" fill="none" xmlns="http://www.w3.org/2000/svg">
<path d="M16.5181 17.3669C16.315 17.3669 16.1508 17.2028 16.1508 16.9998C16.1508 16.7977 16.315 16.6328 16.5181 16.6328H17.2527C17.4549 16.6328 17.62 16.7969 17.62 16.9998C17.62 17.2028 17.4557 17.3669 17.2527 17.3669H16.5181Z" fill="white"/>
<path d="M17.2519 18.8344C18.2656 18.8344 19.0876 18.0123 19.0876 17.0001C19.0876 15.9871 18.2656 15.1658 17.2519 15.1658H15.3005C15.0975 15.1658 14.9332 15.3299 14.9332 15.5328C14.9332 15.7349 15.0983 15.8998 15.3005 15.8998H17.2519C17.8603 15.8998 18.3538 16.393 18.3538 17.0009C18.3538 17.6089 17.8603 18.102 17.2519 18.102H15.3005C15.0975 18.102 14.9332 18.2661 14.9332 18.469C14.9332 18.6711 15.0983 18.8353 15.3005 18.8353H17.2519V18.8344Z" fill="white"/>
<path d="M12.8461 12.9645C12.643 12.9645 12.4788 12.8004 12.4788 12.5975C12.4788 12.3946 12.643 12.2305 12.8461 12.2305H17.252C19.8878 12.2305 22.0253 14.3672 22.0253 17.0003C22.0253 19.6333 19.8878 21.77 17.252 21.77H12.8461C12.643 21.77 12.4788 21.6059 12.4788 21.403C12.4788 21.2001 12.643 21.036 12.8461 21.036H17.252C19.4825 21.036 21.2907 19.2275 21.2907 17.0003C21.2907 14.7722 19.4817 12.9645 17.252 12.9645H12.8461Z" fill="white"/>
<path d="M17.2522 14.4317C18.6713 14.4317 19.8225 15.5821 19.8225 17.0001C19.8225 18.4181 18.6721 19.5685 17.2522 19.5685H14.0687C13.8656 19.5685 13.7014 19.7326 13.7014 19.9356C13.7014 20.1377 13.8665 20.3026 14.0687 20.3026H17.2522C19.0766 20.3026 20.5571 18.8232 20.5571 17.0001C20.5571 15.1771 19.0766 13.6985 17.2522 13.6985H14.0687C13.8656 13.6985 13.7014 13.8626 13.7014 14.0647C13.7014 14.2676 13.8665 14.4317 14.0687 14.4317H17.2522Z" fill="white"/>
<path d="M17 6.70703C11.3243 6.70703 6.70703 11.3243 6.70703 17C6.70703 22.6757 11.3243 27.293 17 27.293C22.6757 27.293 27.293 22.6757 27.293 17C27.293 11.3243 22.6757 6.70703 17 6.70703ZM17 25.3008C12.4229 25.3008 8.69922 21.5771 8.69922 17C8.69922 12.4229 12.4229 8.69922 17 8.69922C21.5771 8.69922 25.3008 12.4229 25.3008 17C25.3008 21.5771 21.5771 25.3008 17 25.3008Z" fill="white"/>
<path d="M31.6758 12.0195H30.3837C30.2628 11.695 30.1295 11.3741 29.985 11.0585L30.8991 10.1443C31.8052 9.23825 31.8052 7.76357 30.8991 6.85748L27.1425 3.10086C26.2364 2.19478 24.7617 2.19478 23.8557 3.10086L22.9415 4.01498C22.6259 3.8705 22.305 3.73717 21.9805 3.61629V1.66016C21.9805 0.744736 21.2357 0 20.3203 0H13.6797C12.7643 0 12.0195 0.744736 12.0195 1.66016V3.61629C11.695 3.73717 11.3741 3.8705 11.0585 4.01498L10.1443 3.10086C9.23825 2.19478 7.76357 2.19478 6.85748 3.10086L3.10086 6.85748C2.19478 7.76357 2.19478 9.23799 3.10086 10.1443L4.01524 11.0585C3.8705 11.3741 3.73717 11.695 3.61629 12.0195H2.32422C1.04253 12.0195 0 13.0621 0 14.3438V19.6562C0 20.9379 1.04253 21.9805 2.32422 21.9805H3.61629C3.73717 22.305 3.8705 22.6259 4.01524 22.9415L3.10086 23.8557C2.19478 24.762 2.19478 26.2364 3.10086 27.1425L6.85748 30.8991C7.76357 31.8052 9.23825 31.8052 10.1443 30.8991L11.0585 29.985C11.3741 30.1295 11.695 30.2628 12.0195 30.3837V31.6758C12.0195 32.9575 13.0621 34 14.3438 34H19.6562C20.9379 34 21.9805 32.9575 21.9805 31.6758V30.3837C22.305 30.2628 22.6259 30.1295 22.9415 29.985L23.8557 30.8991C24.7617 31.8052 26.2364 31.8052 27.1425 30.8991L30.8991 27.1425C31.8052 26.2364 31.8052 24.7617 30.8991 23.8557L29.985 22.9415C30.1295 22.6259 30.2628 22.305 30.3837 21.9805H31.6758C32.9575 21.9805 34 20.9379 34 19.6562V14.3438C34 13.0621 32.9575 12.0195 31.6758 12.0195ZM32.0078 19.6562C32.0078 19.8394 31.8589 19.9883 31.6758 19.9883H29.673C29.2377 19.9883 28.853 20.2708 28.7225 20.6858C28.5075 21.3701 28.2291 22.0414 27.8945 22.6814C27.693 23.0674 27.7653 23.5392 28.073 23.8471L29.4903 25.2642C29.6198 25.3939 29.6198 25.6045 29.4903 25.734L25.734 29.4903C25.6043 29.6198 25.3936 29.6198 25.2642 29.4903L23.8471 28.073C23.5395 27.7653 23.0674 27.693 22.6814 27.8945C22.0414 28.2291 21.3701 28.5075 20.6858 28.7225C20.2708 28.853 19.9883 29.2377 19.9883 29.673V31.6758C19.9883 31.8589 19.8394 32.0078 19.6562 32.0078H14.3438C14.1606 32.0078 14.0117 31.8589 14.0117 31.6758V29.673C14.0117 29.2377 13.7292 28.853 13.3142 28.7225C12.6299 28.5075 11.9586 28.2291 11.3186 27.8945C11.1729 27.8183 11.0146 27.7814 10.8577 27.7814C10.5993 27.7814 10.3443 27.8815 10.1529 28.073L8.73579 29.4903C8.60609 29.6198 8.39572 29.6198 8.26602 29.4903L4.50966 25.734C4.38022 25.6043 4.38022 25.3936 4.50966 25.2642L5.92702 23.8471C6.23466 23.5392 6.30704 23.0671 6.10548 22.6814C5.77086 22.0412 5.49252 21.3698 5.27748 20.6858C5.147 20.2708 4.76231 19.9883 4.32704 19.9883H2.32422C2.14108 19.9883 1.99219 19.8394 1.99219 19.6562V14.3438C1.99219 14.1606 2.14108 14.0117 2.32422 14.0117H4.32704C4.76231 14.0117 5.147 13.7292 5.27748 13.3142C5.49252 12.6299 5.77086 11.9586 6.10548 11.3186C6.30704 10.9326 6.23466 10.4608 5.92702 10.1529L4.50966 8.73579C4.38022 8.60635 4.38022 8.39572 4.50966 8.26602L8.26602 4.50966C8.39572 4.38022 8.60609 4.38022 8.73579 4.50966L10.1529 5.92702C10.4608 6.23492 10.9329 6.30704 11.3186 6.10548C11.9586 5.77112 12.6299 5.49252 13.3142 5.27748C13.7292 5.147 14.0117 4.76231 14.0117 4.32704V1.99219H19.9883V4.32704C19.9883 4.76231 20.2708 5.147 20.6858 5.27748C21.3701 5.49252 22.0414 5.77086 22.6814 6.10548C23.0674 6.30704 23.5395 6.23492 23.8471 5.92702L25.2642 4.50966C25.3936 4.38022 25.6045 4.38022 25.734 4.50966L29.4903 8.26602C29.6198 8.39546 29.6198 8.60609 29.4903 8.73579L28.073 10.1529C27.7653 10.4608 27.693 10.9326 27.8945 11.3186C28.2291 11.9586 28.5075 12.6299 28.7225 13.3142C28.853 13.7292 29.2377 14.0117 29.673 14.0117H31.6758C31.8589 14.0117 32.0078 14.1606 32.0078 14.3438V19.6562Z" fill="white"/>
</svg>
