<svg width="53" height="59" viewBox="0 0 53 59" fill="none" xmlns="http://www.w3.org/2000/svg">
<path d="M43.7995 34.669C44.27 34.669 44.6515 34.2876 44.6515 33.8169V33.7601C44.6515 32.1629 43.352 30.8632 41.7546 30.8632C40.5774 30.7849 40.5777 32.6457 41.7546 32.5672C42.4123 32.5672 42.9474 33.1023 42.9474 33.76V33.8168C42.9474 34.2877 43.3288 34.669 43.7995 34.669Z" fill="#9965EB"/>
<path d="M41.7546 54.4559C43.3519 54.4559 44.6515 53.1564 44.6515 51.559V51.5022C44.6515 51.0316 44.2701 50.6501 43.7995 50.6501C43.3288 50.6501 42.9474 51.0316 42.9474 51.5022V51.559C42.9474 52.2168 42.4123 52.7518 41.7546 52.7518C40.5774 52.6735 40.5777 54.5344 41.7546 54.4559Z" fill="#9965EB"/>
<path d="M34.2159 54.4558H38.4104C38.8809 54.4558 39.2624 54.0744 39.2624 53.6038C39.2624 53.1331 38.881 52.7517 38.4104 52.7517H34.2159C33.7454 52.7517 33.3639 53.1331 33.3639 53.6038C33.3639 54.0744 33.7454 54.4558 34.2159 54.4558Z" fill="#9965EB"/>
<path d="M30.9283 52.752H26.7339C26.2634 52.752 25.8818 53.1334 25.8818 53.604C25.8818 54.0746 26.2633 54.456 26.7339 54.456H30.9283C31.3988 54.456 31.7803 54.0746 31.7803 53.604C31.7803 53.1334 31.3989 52.752 30.9283 52.752Z" fill="#9965EB"/>
<path d="M23.4465 52.752H19.2521C18.7816 52.752 18.4 53.1334 18.4 53.604C18.4 54.0746 18.7814 54.456 19.2521 54.456H23.4465C23.917 54.456 24.2985 54.0746 24.2985 53.604C24.2985 53.1334 23.917 52.752 23.4465 52.752Z" fill="#9965EB"/>
<path d="M15.9646 52.752H11.7701C11.2996 52.752 10.9181 53.1334 10.9181 53.604C10.9181 54.0746 11.2995 54.456 11.7701 54.456H15.9646C16.4351 54.456 16.8166 54.0746 16.8166 53.604C16.8166 53.1334 16.4351 52.752 15.9646 52.752Z" fill="#9965EB"/>
<path d="M5.52903 51.5591C5.52903 53.1563 6.82852 54.4559 8.4259 54.4559H8.48271C8.95321 54.4559 9.33476 54.0745 9.33476 53.6039C9.33476 53.1333 8.95333 52.7519 8.48271 52.7519H8.4259C7.76826 52.7519 7.23311 52.2168 7.23311 51.5591C7.31136 50.3818 5.45055 50.3822 5.52903 51.5591Z" fill="#9965EB"/>
<path d="M5.52905 48.3167C5.52905 48.7874 5.91048 49.1688 6.3811 49.1688C6.85171 49.1688 7.23314 48.7874 7.23314 48.3167V44.2524C7.23314 43.7818 6.85171 43.4004 6.3811 43.4004C5.91048 43.4004 5.52905 43.7818 5.52905 44.2524V48.3167Z" fill="#9965EB"/>
<path d="M6.38097 41.9189C6.85148 41.9189 7.23302 41.5375 7.23302 41.0669V37.0024C7.23302 36.5318 6.85159 36.1504 6.38097 36.1504C5.91036 36.1504 5.52893 36.5318 5.52893 37.0024V41.0669C5.52905 41.5375 5.91047 41.9189 6.38097 41.9189Z" fill="#9965EB"/>
<path d="M8.48258 30.8633H8.42577C6.8285 30.8633 5.52889 32.1628 5.52889 33.7602C5.45065 34.9374 7.31134 34.937 7.23286 33.7602C7.23286 33.1024 7.76801 32.5674 8.42565 32.5674H8.48246C8.95296 32.5674 9.33451 32.1859 9.33451 31.7153C9.33451 31.2447 8.95319 30.8633 8.48258 30.8633Z" fill="#9965EB"/>
<path d="M30.9283 30.8633H26.7339C26.2634 30.8633 25.8818 31.2447 25.8818 31.7153C25.8818 32.1859 26.2633 32.5674 26.7339 32.5674H30.9283C31.3988 32.5674 31.7803 32.1859 31.7803 31.7153C31.7803 31.2447 31.3989 30.8633 30.9283 30.8633Z" fill="#9965EB"/>
<path d="M15.9646 30.8633H11.7701C11.2996 30.8633 10.9181 31.2447 10.9181 31.7153C10.9181 32.1859 11.2995 32.5674 11.7701 32.5674H15.9646C16.4351 32.5674 16.8166 32.1859 16.8166 31.7153C16.8166 31.2447 16.4351 30.8633 15.9646 30.8633Z" fill="#9965EB"/>
<path d="M34.2159 32.5674H38.4104C38.8809 32.5674 39.2624 32.1859 39.2624 31.7153C39.2624 31.2447 38.881 30.8633 38.4104 30.8633H34.2159C33.7454 30.8633 33.3639 31.2447 33.3639 31.7153C33.3639 32.1859 33.7454 32.5674 34.2159 32.5674Z" fill="#9965EB"/>
<path d="M23.4465 30.8633H19.2521C18.7816 30.8633 18.4 31.2447 18.4 31.7153C18.4 32.1859 18.7814 32.5674 19.2521 32.5674H23.4465C23.917 32.5674 24.2985 32.1859 24.2985 31.7153C24.2985 31.2447 23.917 30.8633 23.4465 30.8633Z" fill="#9965EB"/>
<path d="M49.2005 37.3758H49.1954V30.5381C49.1954 28.2119 47.3028 26.3193 44.9764 26.3193H38.3811C38.9375 25.557 39.427 24.7491 39.8459 23.9036H43.7683C44.4057 24.6249 45.3105 25.0348 46.2799 25.0348C47.2492 25.0348 48.1539 24.625 48.7913 23.9036C50.8194 23.9901 52.5382 22.3613 52.533 20.3265C52.533 18.354 50.9283 16.7492 48.9558 16.7492H48.4639C48.1343 14.644 46.3084 13.0286 44.1122 13.0286C43.0981 13.0286 42.1338 13.3736 41.3598 13.9951C40.7895 10.3658 39.0153 7.01155 36.3055 4.47501C35.962 4.15351 35.4229 4.17114 35.1012 4.51488C34.7797 4.8584 34.7974 5.39746 35.141 5.71908C37.5858 8.00752 39.1823 11.0366 39.685 14.3115C39.073 14.432 38.5184 14.7181 38.073 15.1244C37.3502 8.5444 31.7589 3.40806 24.9897 3.40806C17.7316 3.40806 11.8265 9.31301 11.8265 16.5712C11.8265 17.6314 11.9537 18.6873 12.2046 19.7095C12.315 20.1699 12.7902 20.4467 13.2351 20.3338C13.692 20.2216 13.9716 19.7602 13.8595 19.3031C13.6411 18.4138 13.5305 17.4947 13.5305 16.571C13.5305 10.2524 18.6711 5.11191 24.9896 5.11191C31.3081 5.11191 36.4487 10.2525 36.4487 16.571C36.4487 16.6908 36.4448 16.8112 36.4411 16.9314C35.0198 17.4051 33.9922 18.7478 33.9922 20.3263C33.9922 21.1631 34.2819 21.9333 34.7652 22.5432C33.8254 24.0755 32.5349 25.3712 31.0051 26.3191H18.8296C18.7688 26.2235 18.6882 26.1385 18.5885 26.071C17.2107 25.1394 16.0289 23.8952 15.1705 22.4729C14.9275 22.0701 14.4038 21.9407 14.0009 22.1837C13.598 22.4267 13.4685 22.9504 13.7116 23.3533C14.3735 24.45 15.2036 25.4537 16.156 26.319H13.774C11.4166 23.6107 10.1225 20.1641 10.1225 16.5709C10.1225 8.37316 16.792 1.70374 24.9897 1.70374C27.4994 1.70374 29.9815 2.34364 32.1674 3.55417C32.5792 3.78222 33.0975 3.63299 33.3256 3.22161C33.5535 2.80988 33.4046 2.29144 32.993 2.06339C30.5549 0.713646 27.7874 0 24.9896 0C20.7838 0 16.9397 1.57583 14.0146 4.16687C13.3952 3.74431 12.6855 3.48976 11.9337 3.42477C10.6724 3.3161 9.4347 3.7518 8.52665 4.60523C7.99277 4.34664 7.39401 4.23233 6.79422 4.27877C5.1882 4.40472 3.86704 5.70963 3.72126 7.31439C3.71562 7.37673 3.7117 7.43896 3.70939 7.5013H3.57722C1.60475 7.5013 0 9.10605 0 11.0785C0 13.051 1.60475 14.6557 3.57722 14.6557H8.52965C8.45694 15.2845 8.41833 15.9233 8.41833 16.5712C8.41833 20.0975 9.53657 23.4966 11.5965 26.3192H5.20398C2.87763 26.3192 0.985024 28.2118 0.985024 30.538V54.781C0.985024 57.1074 2.87763 59 5.20398 59H29.097C29.5675 59 29.9491 58.6186 29.9491 58.148C29.9491 57.6773 29.5676 57.2959 29.097 57.2959H5.20398C3.81725 57.2959 2.68911 56.1678 2.68911 54.781V30.538C2.68911 29.1513 3.81725 28.0232 5.20398 28.0232H44.9766C46.3633 28.0232 47.4914 29.1513 47.4914 30.538V37.3757H44.6514V37.0023C44.6514 36.5317 44.2699 36.1503 43.7993 36.1503C43.3287 36.1503 42.9473 36.5317 42.9473 37.0023V37.3757H37.3245C36.0405 37.3757 34.9958 38.4204 34.9958 39.7045V45.4102C34.9958 46.6942 36.0405 47.739 37.3245 47.739H42.9473V48.3167C42.9473 48.7874 43.3287 49.1688 43.7993 49.1688C44.2699 49.1688 44.6514 48.7874 44.6514 48.3167V47.739H47.4914V54.781C47.4914 56.1678 46.3633 57.2959 44.9766 57.2959H33.1481C32.6776 57.2959 32.296 57.6773 32.296 58.148C32.296 58.6186 32.6775 59 33.1481 59H44.9764C47.3028 59 49.1954 57.1074 49.1954 54.7812V47.7391H49.2005C50.4845 47.7391 51.5292 46.6944 51.5292 45.4103V39.7046C51.5294 38.4205 50.4846 37.3758 49.2005 37.3758ZM3.57734 12.9518C2.54449 12.9518 1.70409 12.1114 1.70409 11.0785C1.70409 10.0457 2.54438 9.20527 3.57734 9.20527H4.37868C5.03229 9.22198 5.5778 8.57171 5.4401 7.93147C5.41152 7.78016 5.40426 7.62437 5.41832 7.46857C5.48988 6.68037 6.13865 6.03932 6.9272 5.97767C7.32038 5.94713 7.69685 6.04992 8.01478 6.27532C8.47169 6.5997 9.10985 6.51685 9.46777 6.08679C10.0423 5.39631 10.8873 5.04577 11.787 5.1224C12.1291 5.15201 12.4572 5.24754 12.7596 5.40138C10.8438 7.49726 9.45878 10.0855 8.81762 12.9517L3.57734 12.9518ZM37.5695 18.4532C38.1392 18.4982 38.6538 18.0761 38.685 17.5003C38.737 16.6311 39.4607 15.9503 40.3328 15.9503C40.5222 15.9503 40.7082 15.9822 40.8846 16.045C41.2906 16.19 41.7457 16.0631 42.0173 15.7295C42.5335 15.0959 43.2969 14.7326 44.1122 14.7326C45.6014 14.7326 46.8128 15.9442 46.8128 17.435C46.8128 17.9964 47.2696 18.4532 47.831 18.4532H48.9558C49.9887 18.4532 50.829 19.2936 50.829 20.3264C50.829 21.3593 49.9887 22.1996 48.9558 22.1996C48.4459 22.1618 47.8984 22.2619 47.5772 22.7C47.2614 23.1008 46.7885 23.3307 46.2799 23.3307C45.7711 23.3307 45.2983 23.1008 44.9825 22.7C44.7319 22.382 44.3576 22.1996 43.9556 22.1996H37.5696C36.5368 22.1996 35.6964 21.3593 35.6964 20.3264C35.6963 19.2935 36.5366 18.4532 37.5695 18.4532ZM36.1169 23.5941C36.6556 23.8481 37.3037 23.9277 37.9187 23.9035C37.4299 24.762 36.8547 25.5703 36.2027 26.3192H33.8253C34.7065 25.5198 35.4781 24.6029 36.1169 23.5941ZM49.8254 45.4103C49.8254 45.7548 49.5451 46.0351 49.2006 46.0351H37.3245C36.98 46.0351 36.6997 45.7548 36.6997 45.4103V39.7046C36.6997 39.3601 36.98 39.0798 37.3245 39.0798H49.2005C49.545 39.0798 49.8253 39.3601 49.8253 39.7046V45.4103H49.8254Z" fill="#9965EB"/>
<path d="M39.8772 43.6903C40.5004 43.5892 40.9238 43.0021 40.8227 42.3788C40.7217 41.7556 40.1346 41.3322 39.5113 41.4333C38.8881 41.5343 38.4647 42.1215 38.5657 42.7447C38.6668 43.368 39.2539 43.7913 39.8772 43.6903Z" fill="#9965EB"/>
<path d="M33.8654 14.2138C33.6972 13.6959 33.2579 13.3255 32.7192 13.2474L28.2581 12.5991L26.2629 8.55657C26.0219 8.06843 25.534 7.76514 24.9896 7.76514C24.4452 7.76514 23.9572 8.06843 23.7161 8.55668L21.7211 12.5991L17.2601 13.2474C16.7213 13.3257 16.2821 13.6959 16.1138 14.2138C15.9455 14.7315 16.0831 15.2894 16.4731 15.6695L19.7011 18.8161L18.9391 23.2591C18.847 23.7958 19.0634 24.328 19.504 24.6479C19.9457 24.9691 20.5194 25.0086 20.9995 24.7561L24.9896 22.6584L28.9797 24.7561C29.4617 25.0094 30.0347 24.9682 30.4752 24.6479C30.9158 24.328 31.1322 23.7957 31.0401 23.2592L30.278 18.8161L33.5061 15.6694C33.8961 15.2894 34.0336 14.7315 33.8654 14.2138ZM28.9818 17.7C28.6469 18.0263 28.4941 18.4962 28.5733 18.9569L29.2633 22.98L25.6503 21.0806C25.2365 20.8631 24.7426 20.8631 24.3288 21.0806L20.716 22.98L21.4059 18.9572C21.4851 18.4963 21.3324 18.0264 20.9976 17.7001L18.0747 14.8509L22.1139 14.2639C22.5767 14.1968 22.9764 13.9063 23.1833 13.4871L24.9897 9.82679L26.7961 13.487C27.003 13.9063 27.4028 14.1967 27.8654 14.2639L31.9048 14.8509L28.9818 17.7Z" fill="#9965EB"/>
</svg>
