<svg width="32" height="34" viewBox="0 0 32 34" fill="none" xmlns="http://www.w3.org/2000/svg">
<path d="M31.7073 24.1376C30.8016 23.2341 29.5972 22.7365 28.3162 22.7365C27.0352 22.7365 25.8309 23.2341 24.9251 24.1376L21.9274 27.1277H20.5058C21.1115 26.3119 21.4701 25.3029 21.4701 24.212C21.4701 23.6617 21.0228 23.2155 20.4711 23.2155H17.1537C16.0696 23.2155 15.0285 22.7249 13.9262 22.2055C12.7701 21.6607 11.5746 21.0974 10.1768 21.0047C8.95439 20.9236 7.72887 21.057 6.53451 21.401C5.26283 21.7673 4.34688 22.8902 4.22713 24.1895H0.999069C0.447317 24.1895 0 24.6356 0 25.186V33.0036C0 33.5539 0.447317 34.0001 0.999069 34.0001H21.4003C22.582 34.0001 23.6932 33.541 24.5289 32.7074L31.7073 25.547C32.0976 25.1578 32.0976 24.5269 31.7073 24.1376ZM1.99814 26.1826H4.21361V32.007H1.99814V26.1826ZM23.1161 31.298C22.6577 31.7553 22.0484 32.007 21.4003 32.007H6.21175V24.4728C6.21328 23.9399 6.57394 23.4642 7.08899 23.3159C8.05962 23.0362 9.0541 22.9277 10.0443 22.9934C11.064 23.061 12.0397 23.5208 13.0728 24.0077C14.3259 24.5981 15.6214 25.2086 17.1538 25.2086H19.2962C18.9092 26.2666 17.9245 27.0397 16.7519 27.1203C16.704 27.1132 11.5416 27.1084 11.5416 27.1084C11.299 27.1084 11.0767 27.1947 10.9037 27.3381C10.6757 27.5208 10.5294 27.8007 10.5294 28.1151C10.5294 28.6655 10.9767 29.1117 11.5285 29.1117L22.3413 29.1208C22.6063 29.1208 22.8604 29.0158 23.0477 28.8288L26.338 25.5469C26.8664 25.0198 27.5689 24.7295 28.3162 24.7295C28.7165 24.7295 29.104 24.8128 29.4587 24.9712L23.1161 31.298Z" fill="white"/>
<path d="M18.2113 20.8121C23.9637 20.8121 28.6436 16.144 28.6436 10.4061C28.6436 4.66815 23.9638 0 18.2113 0C12.4589 0 7.77905 4.66815 7.77905 10.4061C7.77905 16.144 12.459 20.8121 18.2113 20.8121ZM18.2113 1.99312C22.8619 1.99312 26.6455 5.76715 26.6455 10.4061C26.6455 15.045 22.8619 18.819 18.2113 18.819C13.5607 18.819 9.77719 15.045 9.77719 10.4061C9.77719 5.76715 13.5607 1.99312 18.2113 1.99312Z" fill="white"/>
<path d="M15.2551 8.81675C15.9269 8.81675 16.5706 8.22745 16.5396 7.53557C16.5084 6.84143 15.9752 6.25439 15.2551 6.25439C14.5833 6.25439 13.9396 6.84369 13.9707 7.53557C14.0019 8.22971 14.535 8.81675 15.2551 8.81675Z" fill="white"/>
<path d="M19.8833 13.3686C19.9145 14.0627 20.4476 14.6498 21.1677 14.6498C21.8395 14.6498 22.4832 14.0605 22.4521 13.3686C22.4209 12.6744 21.8877 12.0874 21.1677 12.0874C20.4958 12.0873 19.8522 12.6766 19.8833 13.3686Z" fill="white"/>
<path d="M15.7066 16.4617C15.8328 16.5146 15.9638 16.5396 16.0927 16.5396C16.4831 16.5396 16.8539 16.31 17.0144 15.9285L21.3923 5.52307C21.6059 5.01556 21.3665 4.43151 20.8577 4.21851C20.349 4.00558 19.7635 4.24422 19.5499 4.75174L15.172 15.1571C14.9584 15.6646 15.1978 16.2487 15.7066 16.4617Z" fill="white"/>
</svg>
