<svg width="33" height="33" viewBox="0 0 33 33" fill="none" xmlns="http://www.w3.org/2000/svg">
<path d="M32.4624 2.88886C32.3931 1.61774 31.3822 0.606929 30.111 0.537555C27.5462 0.39743 22.5272 0.533742 17.728 3.01605C15.2814 4.28154 12.6939 6.4271 10.629 8.90259C10.6035 8.93309 10.5788 8.96377 10.5535 8.99434L5.86731 9.35633C5.09594 9.41596 4.40888 9.82027 3.98225 10.4655L0.78514 15.3013C0.461578 15.7906 0.410141 16.4031 0.647453 16.9395C0.884827 17.476 1.37258 17.8499 1.95226 17.9397L5.90043 18.5512C5.8865 18.6279 5.8725 18.7046 5.85968 18.7814C5.72825 19.5676 5.98875 20.376 6.55662 20.9438L12.0561 26.4433C12.5269 26.9141 13.1631 27.1737 13.815 27.1737C13.9492 27.1737 14.0842 27.1626 14.2186 27.1402C14.2953 27.1274 14.372 27.1134 14.4488 27.0995L15.0603 31.0477C15.1501 31.6274 15.524 32.1152 16.0603 32.3525C16.2835 32.4513 16.5197 32.5 16.7548 32.5C17.085 32.4999 17.4129 32.4038 17.6986 32.2149L22.5344 29.0177C23.1797 28.591 23.5839 27.904 23.6434 27.1326L24.0054 22.4465C24.036 22.4212 24.0667 22.3965 24.0972 22.371C26.5728 20.3061 28.7184 17.7186 29.9839 15.272C32.4663 10.4726 32.6023 5.45354 32.4624 2.88886ZM21.5003 27.4536L16.8746 30.5119L16.2786 26.6641C18.2336 26.0893 20.1676 25.1687 22.01 23.9353L21.7742 26.9881C21.7595 27.1786 21.6596 27.3483 21.5003 27.4536ZM13.3819 25.1175L7.88236 19.618C7.74205 19.4776 7.67718 19.2804 7.70899 19.0905C7.87249 18.1128 8.12655 17.1821 8.44105 16.3054L16.6928 24.5571C15.6398 24.9343 14.6966 25.1593 13.9094 25.2909C13.7192 25.3225 13.5222 25.2578 13.3819 25.1175ZM6.01175 11.2258L9.06448 10.99C7.83111 12.8324 6.91049 14.7663 6.33568 16.7213L2.48795 16.1254L5.54631 11.4996C5.65168 11.3403 5.82137 11.2405 6.01175 11.2258ZM22.8964 20.9311C21.3818 22.1944 19.9116 23.1082 18.5565 23.7693L9.23024 14.4431C10.0964 12.6741 11.1534 11.201 12.0688 10.1036C13.9797 7.81272 16.3564 5.83641 18.5895 4.68141C22.9941 2.40311 27.6347 2.28042 30.009 2.40967C30.3232 2.4268 30.5732 2.67673 30.5903 2.99105C30.7197 5.36529 30.5968 10.0059 28.3185 14.4106C27.1635 16.6436 25.1872 19.0202 22.8964 20.9311Z" fill="white"/>
<path d="M22.4199 15.265C23.62 15.2649 24.8206 14.808 25.7343 13.8943C26.6197 13.009 27.1072 11.8319 27.1072 10.5799C27.1072 9.32792 26.6196 8.1508 25.7343 7.26549C23.9067 5.43781 20.933 5.43793 19.1055 7.26549C18.2201 8.1508 17.7325 9.32792 17.7325 10.5799C17.7325 11.8319 18.2202 13.009 19.1055 13.8943C20.0193 14.8082 21.2193 15.2651 22.4199 15.265ZM20.4312 8.59123C20.9794 8.04292 21.6996 7.7688 22.4198 7.7688C23.14 7.7688 23.8602 8.04292 24.4085 8.59123C24.9396 9.12242 25.2321 9.82867 25.2321 10.5799C25.2321 11.331 24.9396 12.0373 24.4085 12.5685C23.312 13.6651 21.5277 13.665 20.4311 12.5685C19.8999 12.0373 19.6073 11.3311 19.6073 10.5799C19.6073 9.82873 19.9 9.12242 20.4312 8.59123Z" fill="white"/>
<path d="M1.45639 26.8709C1.69632 26.8709 1.93626 26.7794 2.11926 26.5963L5.18006 23.5355C5.54618 23.1693 5.54618 22.5758 5.18006 22.2097C4.814 21.8435 4.22038 21.8435 3.85425 22.2097L0.793514 25.2705C0.42739 25.6366 0.42739 26.2301 0.793514 26.5963C0.976513 26.7793 1.21645 26.8709 1.45639 26.8709Z" fill="white"/>
<path d="M7.98513 25.0148C7.61906 24.6487 7.02544 24.6487 6.65932 25.0148L0.774715 30.8995C0.408591 31.2656 0.408591 31.8592 0.774715 32.2253C0.957777 32.4084 1.19765 32.4999 1.43759 32.4999C1.67752 32.4999 1.91746 32.4084 2.10046 32.2252L7.98506 26.3406C8.35125 25.9745 8.35125 25.381 7.98513 25.0148Z" fill="white"/>
<path d="M9.46442 27.8198L6.40362 30.8806C6.0375 31.2467 6.0375 31.8402 6.40362 32.2064C6.58668 32.3894 6.82662 32.481 7.06649 32.481C7.30637 32.481 7.54637 32.3895 7.72937 32.2064L10.7902 29.1456C11.1563 28.7794 11.1563 28.1859 10.7902 27.8198C10.4241 27.4536 9.83048 27.4536 9.46442 27.8198Z" fill="white"/>
</svg>
