<svg width="51" height="59" viewBox="0 0 51 59" fill="none" xmlns="http://www.w3.org/2000/svg">
<path d="M45.2721 13.5272C41.3765 12.1963 38.259 9.06974 36.9329 5.16351C36.75 4.62484 36.2509 4.26288 35.691 4.26288H14.7273C14.1675 4.26288 13.6684 4.62484 13.4854 5.16362C12.1593 9.06974 9.0418 12.1963 5.14633 13.5271C4.60986 13.7103 4.24947 14.2159 4.24947 14.7853V24.8364C4.24947 31.6858 6.39776 38.2005 10.4621 43.6761C14.0522 48.5129 19.1272 52.3362 24.7525 54.4417C25.0469 54.5519 25.3713 54.5519 25.6656 54.4417C30.5333 52.6197 34.931 49.5713 38.383 45.6262C38.6961 45.2684 38.6631 44.7217 38.3093 44.405C37.9555 44.0883 37.4149 44.1217 37.1019 44.4795C33.8685 48.1748 29.7587 51.0382 25.209 52.7673C19.9429 50.7653 15.196 47.1722 11.8301 42.6374C7.98984 37.4637 5.96005 31.3082 5.96005 24.8364V15.0724C10.1415 13.5534 13.4947 10.1891 15.0095 5.99297H35.4085C36.9232 10.1891 40.2764 13.5534 44.4579 15.0724V24.8364C44.4579 30.7383 42.7494 36.4359 39.5171 41.3135C39.2541 41.7104 39.3589 42.2478 39.7513 42.5138C40.1438 42.7799 40.6751 42.6738 40.9381 42.2769C44.3599 37.1134 46.1686 31.0826 46.1686 24.8365V14.7854C46.1687 14.2161 45.8083 13.7104 45.2721 13.5272ZM22.6431 34.8819C22.6431 36.313 23.7941 37.4772 25.2091 37.4772C26.6241 37.4772 27.7751 36.313 27.7751 34.8819V32.6138C28.1113 32.1028 28.2883 31.5107 28.2883 30.8924C28.2883 30.0391 27.9365 29.2137 27.3231 28.6277C26.7008 28.0335 25.8862 27.7339 25.0294 27.7832C23.5152 27.8708 22.2738 29.0883 22.1418 30.6151C22.0806 31.3232 22.2581 32.0273 22.6431 32.6137V34.8819ZM23.8461 30.7657C23.9045 30.0891 24.4554 29.5496 25.1272 29.5106C25.1546 29.509 25.1818 29.5082 25.209 29.5082C25.5608 29.5082 25.8919 29.6405 26.1485 29.8857C26.4253 30.1501 26.5776 30.5076 26.5776 30.8924C26.5776 31.1891 26.4861 31.4719 26.3129 31.7103C26.1504 31.9339 26.0644 32.2025 26.0644 32.4866V34.8817C26.0644 35.3588 25.6808 35.7468 25.2091 35.7468C24.7374 35.7468 24.3537 35.3588 24.3537 34.8817V32.4865C24.3537 32.2026 24.2678 31.9339 24.105 31.7099C23.9662 31.5188 23.8085 31.1998 23.8461 30.7657ZM48.623 9.92607C44.3689 9.48833 40.9628 6.0759 40.5241 1.81187C40.4177 0.778938 39.5648 0 38.5397 0H11.8785C10.8535 0 10.0005 0.778938 9.8943 1.81187C9.45545 6.07579 6.04935 9.48833 1.79531 9.92607C0.771864 10.0314 0 10.8943 0 11.9333V24.8365C0 32.5434 2.40124 39.8871 6.94415 46.0736C9.12985 49.0502 11.7488 51.6621 14.7283 53.8367C17.7445 56.0383 21.0642 57.7427 24.5951 58.9024C24.991 59.0325 25.4273 59.0325 25.8232 58.9024C29.354 57.7426 32.6736 56.0382 35.6899 53.8367C38.6694 51.662 41.2883 49.0502 43.474 46.0736C48.0169 39.8871 50.4182 32.5434 50.4182 24.8365V11.9333C50.4182 10.8943 49.6464 10.0313 48.623 9.92607ZM48.7075 24.8365C48.7075 32.1691 46.4229 39.156 42.1007 45.0421C37.8624 50.8138 32.0509 55.0376 25.2947 57.2569C25.2395 57.275 25.1786 57.275 25.1234 57.2569C18.3671 55.0376 12.5557 50.8138 8.3175 45.0421C3.99538 39.156 1.71069 32.1691 1.71069 24.8365V11.9333C1.71069 11.7854 1.82143 11.6624 1.96844 11.6474C7.02456 11.1272 11.0734 7.06604 11.5958 1.991C11.611 1.84232 11.7326 1.73021 11.8785 1.73021H38.5397C38.6856 1.73021 38.8072 1.84232 38.8224 1.991C39.3448 7.06604 43.3936 11.1272 48.4499 11.6474C48.5968 11.6625 48.7075 11.7855 48.7075 11.9333V24.8365ZM18.2735 14.6281C18.5251 14.2237 18.4049 13.6896 18.005 13.4352C17.6052 13.1806 17.077 13.3024 16.8256 13.7067C15.8347 15.2995 15.311 17.1383 15.311 19.0242V23.8359C14.0051 24.5771 13.1202 25.9907 13.1202 27.61V37.6452C13.1202 40.0304 15.0387 41.9707 17.3969 41.9707H33.0212C35.3795 41.9707 37.298 40.0304 37.298 37.6452V27.61C37.298 25.9907 36.4131 24.5772 35.1072 23.8359V19.0242C35.1072 13.5041 30.6669 9.01322 25.2091 9.01322C23.3241 9.01322 21.4894 9.55362 19.9031 10.5761C19.5047 10.8328 19.3876 11.3676 19.6415 11.7705C19.8955 12.1734 20.4241 12.292 20.8224 12.0351C22.1335 11.19 23.6503 10.7434 25.209 10.7434C29.7235 10.7434 33.3963 14.4582 33.3963 19.0242V23.3022C33.2726 23.2912 33.1476 23.2845 33.0211 23.2845H31.6857V19.0242C31.6857 17.2743 31.0119 15.6289 29.7879 14.391C28.564 13.1545 26.9378 12.4735 25.209 12.4735C21.6377 12.4735 18.7323 15.4121 18.7323 19.0241V23.2844H17.3968C17.2703 23.2844 17.1453 23.2911 17.0216 23.3021V19.0242C17.0217 17.4647 17.4546 15.9445 18.2735 14.6281ZM20.4431 19.0242C20.4431 16.3662 22.5811 14.2038 25.2091 14.2038C26.4814 14.2038 27.6782 14.7051 28.5788 15.6149C29.4792 16.5257 29.9751 17.7364 29.9751 19.0242V23.2845H20.4431V19.0242ZM17.3969 25.0147H33.0212C34.4362 25.0147 35.5873 26.1789 35.5873 27.61V37.6452C35.5873 39.0763 34.4362 40.2405 33.0212 40.2405H17.3969C15.982 40.2405 14.8309 39.0763 14.8309 37.6452V27.61C14.8309 26.1789 15.9821 25.0147 17.3969 25.0147Z" fill="#9965EB"/>
</svg>
