<svg width="71" height="60" viewBox="0 0 71 60" fill="none" xmlns="http://www.w3.org/2000/svg">
<path d="M57.7634 28.1346H63.6456C63.8809 29.0067 64.4267 29.7638 65.1814 30.2652C65.9362 30.7666 66.8483 30.9779 67.748 30.8598C68.6477 30.7418 69.4736 30.3024 70.0719 29.6235C70.6701 28.9446 71 28.0725 71 27.1696C71 26.2668 70.6701 25.3947 70.0719 24.7158C69.4736 24.0369 68.6477 23.5975 67.748 23.4795C66.8483 23.3614 65.9362 23.5727 65.1814 24.0741C64.4267 24.5754 63.8809 25.3326 63.6456 26.2046H57.7634V21.5307H62.1281C62.2823 21.5307 62.4342 21.4941 62.5714 21.424C62.7086 21.3539 62.827 21.2523 62.9168 21.1276L65.943 16.9219C66.792 17.2374 67.7274 17.2351 68.5748 16.9155C69.4223 16.5959 70.1242 15.9807 70.5497 15.1845C70.9752 14.3883 71.0953 13.4654 70.8877 12.5877C70.6802 11.7099 70.159 10.9371 69.4214 10.4132C68.6837 9.88933 67.7798 9.65003 66.878 9.73989C65.9762 9.82975 65.1379 10.2427 64.5193 10.9017C63.9007 11.5607 63.544 12.421 63.5155 13.3223C63.487 14.2236 63.7887 15.1044 64.3645 15.8008L61.6293 19.6007H57.7629V16.0225C57.7629 15.7666 57.6607 15.5211 57.4788 15.3401C57.2969 15.1592 57.0502 15.0575 56.7929 15.0575C55.2927 15.0572 53.8309 14.5856 52.6161 13.7098L57.9674 7.1478C58.7991 7.51901 59.7382 7.57664 60.6095 7.30995C61.4809 7.04325 62.225 6.47043 62.7032 5.69825C63.1814 4.92607 63.3611 4.00723 63.2087 3.11299C63.0564 2.21875 62.5824 1.41014 61.8752 0.837874C61.1679 0.26561 60.2756 -0.0312575 59.3646 0.00260826C58.4536 0.036474 57.5861 0.398761 56.9238 1.02194C56.2614 1.64512 55.8494 2.48667 55.7645 3.38973C55.6797 4.29278 55.9278 5.19572 56.4626 5.93024L51.2034 12.382C50.1822 11.1205 49.6255 9.54944 49.626 7.92972C49.6258 7.67383 49.5236 7.42847 49.3417 7.24753C49.1599 7.06658 48.9132 6.96487 48.6561 6.96472H22.392C22.1348 6.96487 21.8882 7.06658 21.7064 7.24753C21.5245 7.42847 21.4223 7.67383 21.4221 7.92972C21.4226 9.54944 20.8659 11.1205 19.8447 12.382L14.5855 5.92969C15.1181 5.19703 15.3649 4.29671 15.2798 3.39647C15.1947 2.49624 14.7835 1.65748 14.123 1.03646C13.4624 0.415435 12.5974 0.0545069 11.6892 0.0209148C10.781 -0.0126773 9.89154 0.283357 9.18645 0.853865C8.48136 1.42437 8.00877 2.23045 7.85673 3.12191C7.70468 4.01338 7.88355 4.92944 8.36001 5.69942C8.83647 6.46941 9.57802 7.04081 10.4465 7.30718C11.315 7.57354 12.2512 7.5167 13.0807 7.14725L18.432 13.7093C17.2171 14.585 15.7554 15.0567 14.2552 15.0569C13.9979 15.0569 13.7512 15.1586 13.5693 15.3396C13.3874 15.5206 13.2852 15.766 13.2852 16.0219V19.6002H9.41938L6.68474 15.8003C7.26899 15.0975 7.57633 14.2074 7.54941 13.2958C7.5225 12.3842 7.16318 11.5135 6.53848 10.8461C5.91378 10.1787 5.06637 9.76018 4.15436 9.66867C3.24235 9.57716 2.32803 9.81889 1.58197 10.3487C0.835909 10.8786 0.309078 11.6604 0.0997611 12.5483C-0.109555 13.4362 0.0129404 14.3695 0.444395 15.1741C0.87585 15.9788 1.58679 16.5998 2.44459 16.9213C3.30238 17.2427 4.24844 17.2428 5.10625 16.9213L8.13243 21.1271C8.22213 21.2518 8.34041 21.3535 8.47747 21.4237C8.61452 21.4939 8.76642 21.5306 8.92056 21.5307H13.2852V26.2046H7.40304C7.16777 25.3326 6.62194 24.5754 5.86722 24.0741C5.11249 23.5727 4.20034 23.3614 3.30064 23.4795C2.40094 23.5975 1.57505 24.0369 0.976777 24.7158C0.378506 25.3947 0.0486522 26.2668 0.0486522 27.1696C0.0486522 28.0725 0.378506 28.9446 0.976777 29.6235C1.57505 30.3024 2.40094 30.7418 3.30064 30.8598C4.20034 30.9779 5.11249 30.7666 5.86722 30.2652C6.62194 29.7638 7.16777 29.0067 7.40304 28.1346H13.2852V33.5745C13.2852 33.8166 13.2991 34.0564 13.3074 34.2974H8.50488C8.32502 34.2975 8.14872 34.3473 7.99565 34.4412C7.84259 34.5352 7.71878 34.6696 7.63804 34.8295L4.54757 40.9565C3.65369 40.769 2.72178 40.9114 1.92562 41.3571C1.12946 41.8028 0.523391 42.5213 0.220413 43.3787C-0.0825656 44.2362 -0.0617687 45.174 0.278926 46.0173C0.61962 46.8606 1.25696 47.5519 2.0721 47.9622C2.88724 48.3725 3.82455 48.4738 4.70925 48.2473C5.59396 48.0208 6.36567 47.4819 6.8805 46.7311C7.39533 45.9803 7.61813 45.0688 7.50736 44.1667C7.39659 43.2645 6.95982 42.4332 6.27848 41.8277L9.10347 36.2252H13.4654C14.0465 40.6084 16.0582 44.6805 19.1913 47.8157L12.9028 53.169C12.1503 52.6529 11.2348 52.4268 10.3271 52.5327C9.41937 52.6386 8.58133 53.0694 7.96927 53.7447C7.3572 54.42 7.01289 55.2937 7.00053 56.2029C6.98817 57.1121 7.3086 57.9948 7.90209 58.6863C8.49557 59.3779 9.32159 59.831 10.2261 59.9613C11.1306 60.0916 12.0519 59.8902 12.8182 59.3946C13.5844 58.8989 14.1434 58.1429 14.3907 57.2676C14.6381 56.3922 14.557 55.4572 14.1626 54.6369L20.6401 49.1226C21.1234 49.5213 21.6211 49.9062 22.1454 50.2619L34.9778 58.9744C35.1393 59.0828 35.3296 59.1407 35.5243 59.1407C35.7191 59.1407 35.9094 59.0828 36.0708 58.9744L48.9032 50.2619C49.4276 49.9062 49.9253 49.5213 50.4086 49.1226L56.886 54.6369C56.496 55.4518 56.4171 56.38 56.6638 57.2485C56.9105 58.1171 57.4661 58.8668 58.2271 59.3581C58.9882 59.8494 59.9027 60.0487 60.8005 59.9189C61.6983 59.7892 62.518 59.3392 63.1071 58.6528C63.6962 57.9664 64.0144 57.0904 64.0026 56.1879C63.9907 55.2854 63.6496 54.418 63.0426 53.7471C62.4357 53.0763 61.6044 52.6478 60.7036 52.5414C59.8027 52.4351 58.8937 52.6581 58.1458 53.169L51.8574 47.8157C54.9905 44.6805 57.0022 40.6084 57.5833 36.2252H61.9446L64.7713 41.8255C64.104 42.4235 63.6777 43.2422 63.5716 44.1295C63.4655 45.0167 63.6868 45.9121 64.1945 46.6492C64.7022 47.3862 65.4616 47.9147 66.3316 48.1365C67.2015 48.3583 68.1228 48.2582 68.9242 47.8548C69.7255 47.4514 70.3524 46.7723 70.6882 45.9436C71.024 45.1149 71.0459 44.1931 70.7498 43.3495C70.4537 42.506 69.8598 41.7981 69.0785 41.3575C68.2972 40.917 67.3817 40.7737 66.5022 40.9543L63.4117 34.8273C63.331 34.6674 63.2072 34.533 63.0541 34.439C62.901 34.3451 62.7247 34.2953 62.5449 34.2952H57.7423C57.7507 34.0542 57.7645 33.8144 57.7645 33.5723L57.7634 28.1346ZM67.2549 25.3775C67.6111 25.3775 67.9594 25.4826 68.2556 25.6795C68.5518 25.8765 68.7827 26.1563 68.919 26.4838C69.0554 26.8113 69.091 27.1716 69.0215 27.5193C68.952 27.8669 68.7805 28.1862 68.5286 28.4369C68.2766 28.6875 67.9557 28.8582 67.6063 28.9274C67.2569 28.9965 66.8947 28.961 66.5655 28.8254C66.2364 28.6897 65.9551 28.46 65.7571 28.1653C65.5592 27.8706 65.4536 27.5241 65.4536 27.1696C65.4541 26.6945 65.6441 26.239 65.9818 25.9031C66.3195 25.5671 66.7773 25.3781 67.2549 25.3775ZM67.2549 11.6469C67.6111 11.6469 67.9594 11.752 68.2556 11.9489C68.5518 12.1459 68.7827 12.4258 68.919 12.7532C69.0554 13.0807 69.091 13.441 69.0215 13.7887C68.952 14.1363 68.7805 14.4557 68.5286 14.7063C68.2766 14.9569 67.9557 15.1276 67.6063 15.1968C67.2569 15.2659 66.8947 15.2304 66.5655 15.0948C66.2364 14.9591 65.9551 14.7294 65.7571 14.4347C65.5592 14.14 65.4536 13.7935 65.4536 13.4391C65.4546 12.9642 65.6447 12.5091 65.9824 12.1735C66.32 11.8379 66.7776 11.6491 67.2549 11.6486V11.6469ZM1.9925 13.4407C1.9925 13.0863 2.09815 12.7398 2.29607 12.445C2.494 12.1503 2.77533 11.9206 3.10447 11.785C3.43362 11.6493 3.7958 11.6138 4.14521 11.683C4.49463 11.7521 4.81559 11.9228 5.06751 12.1735C5.31942 12.4241 5.49098 12.7434 5.56048 13.0911C5.62999 13.4387 5.59431 13.7991 5.45798 14.1265C5.32164 14.454 5.09077 14.7339 4.79454 14.9308C4.49832 15.1277 4.15006 15.2329 3.7938 15.2329C3.31624 15.2323 2.85842 15.0433 2.52074 14.7073C2.18306 14.3713 1.99309 13.9158 1.9925 13.4407ZM3.7938 28.9618C3.43754 28.9618 3.08927 28.8567 2.79305 28.6598C2.49683 28.4628 2.26595 28.1829 2.12962 27.8555C1.99328 27.528 1.95761 27.1677 2.02711 26.82C2.09662 26.4724 2.26817 26.153 2.52009 25.9024C2.772 25.6518 3.09297 25.4811 3.44238 25.4119C3.7918 25.3428 4.15398 25.3783 4.48312 25.5139C4.81227 25.6496 5.09359 25.8793 5.29152 26.174C5.48945 26.4687 5.59509 26.8152 5.59509 27.1696C5.59451 27.6448 5.40454 28.1003 5.06686 28.4362C4.72918 28.7722 4.27135 28.9612 3.7938 28.9618ZM3.7938 46.3947C3.43754 46.3947 3.08927 46.2896 2.79305 46.0926C2.49683 45.8957 2.26595 45.6158 2.12962 45.2884C1.99328 44.9609 1.95761 44.6005 2.02711 44.2529C2.09662 43.9053 2.26817 43.5859 2.52009 43.3353C2.772 43.0847 3.09297 42.914 3.44238 42.8448C3.7918 42.7757 4.15398 42.8112 4.48312 42.9468C4.81227 43.0825 5.09359 43.3122 5.29152 43.6069C5.48945 43.9016 5.59509 44.2481 5.59509 44.6025C5.59451 45.0777 5.40454 45.5332 5.06686 45.8691C4.72918 46.2051 4.27135 46.3941 3.7938 46.3947ZM69.0561 44.6025C69.0561 44.957 68.9505 45.3035 68.7526 45.5982C68.5546 45.8929 68.2733 46.1226 67.9442 46.2583C67.615 46.3939 67.2529 46.4294 66.9034 46.3602C66.554 46.2911 66.2331 46.1204 65.9811 45.8698C65.7292 45.6191 65.5577 45.2998 65.4882 44.9522C65.4187 44.6045 65.4543 44.2442 65.5907 43.9167C65.727 43.5892 65.9579 43.3093 66.2541 43.1124C66.5503 42.9155 66.8986 42.8104 67.2549 42.8104C67.7324 42.811 68.1902 43 68.5279 43.3359C68.8656 43.6719 69.0556 44.1274 69.0561 44.6025ZM59.4899 1.9583C59.8461 1.9583 60.1944 2.0634 60.4906 2.26033C60.7868 2.45725 61.0177 2.73714 61.1541 3.06462C61.2904 3.39209 61.3261 3.75243 61.2566 4.10007C61.1871 4.44771 61.0155 4.76704 60.7636 5.01768C60.5117 5.26831 60.1907 5.439 59.8413 5.50815C59.4919 5.5773 59.1297 5.54181 58.8006 5.40617C58.4714 5.27052 58.1901 5.04082 57.9922 4.7461C57.7942 4.45139 57.6886 4.10489 57.6886 3.75044C57.6892 3.27531 57.8791 2.81981 58.2168 2.48385C58.5545 2.14788 59.0123 1.95888 59.4899 1.9583ZM9.75747 3.75044C9.75747 3.39599 9.86312 3.04949 10.061 2.75478C10.259 2.46006 10.5403 2.23036 10.8694 2.09471C11.1986 1.95907 11.5608 1.92358 11.9102 1.99273C12.2596 2.06188 12.5806 2.23257 12.8325 2.4832C13.0844 2.73384 13.256 3.05317 13.3255 3.40081C13.395 3.74845 13.3593 4.10879 13.223 4.43627C13.0866 4.76374 12.8557 5.04363 12.5595 5.24056C12.2633 5.43748 11.915 5.54259 11.5588 5.54259C11.0812 5.542 10.6234 5.353 10.2857 5.01703C9.94803 4.68107 9.75806 4.22557 9.75747 3.75044ZM10.79 58.0298C10.4338 58.0298 10.0855 57.9247 9.78929 57.7278C9.49306 57.5309 9.26219 57.251 9.12585 56.9235C8.98952 56.596 8.95384 56.2357 9.02335 55.8881C9.09285 55.5404 9.26441 55.2211 9.51632 54.9705C9.76824 54.7198 10.0892 54.5491 10.4386 54.48C10.788 54.4108 11.1502 54.4463 11.4794 54.582C11.8085 54.7176 12.0898 54.9473 12.2878 55.242C12.4857 55.5367 12.5913 55.8832 12.5913 56.2377C12.5907 56.7128 12.4008 57.1683 12.0631 57.5043C11.7254 57.8403 11.2676 58.0293 10.79 58.0298ZM47.8097 48.6682L35.5243 57.008L23.2389 48.6682C20.7684 46.9922 18.7469 44.7409 17.3502 42.1104C15.9535 39.4798 15.224 36.5495 15.2251 33.5745V16.9362C17.2866 16.6974 19.2067 15.7731 20.6743 14.3129C22.1419 12.8528 23.071 10.9425 23.311 8.89142H47.7377C47.9777 10.9425 48.9068 12.8528 50.3743 14.3129C51.8419 15.7731 53.762 16.6974 55.8235 16.9362V33.5745C55.8247 36.5495 55.0951 39.4798 53.6985 42.1104C52.3018 44.7409 50.2803 46.9922 47.8097 48.6682ZM62.0599 56.2377C62.0599 56.5921 61.9543 56.9386 61.7563 57.2334C61.5584 57.5281 61.2771 57.7578 60.9479 57.8934C60.6188 58.0291 60.2566 58.0645 59.9072 57.9954C59.5578 57.9263 59.2368 57.7556 58.9849 57.5049C58.733 57.2543 58.5614 56.935 58.4919 56.5873C58.4224 56.2397 58.4581 55.8793 58.5944 55.5519C58.7308 55.2244 58.9616 54.9445 59.2579 54.7476C59.5541 54.5507 59.9024 54.4455 60.2586 54.4455C60.7362 54.4461 61.194 54.6351 61.5317 54.9711C61.8694 55.3071 62.0593 55.7626 62.0599 56.2377Z" fill="#9965EB"/>
<path d="M52.2209 20.3689C52.2209 20.1822 52.1666 19.9994 52.0644 19.8428C51.9621 19.6863 51.8165 19.5625 51.645 19.4866C48.7609 18.2122 46.4549 15.918 45.1737 13.0486C45.0974 12.878 44.9731 12.7331 44.8157 12.6314C44.6582 12.5297 44.4746 12.4756 44.2869 12.4757H26.7611C26.5734 12.4756 26.3897 12.5297 26.2323 12.6314C26.0749 12.7331 25.9506 12.878 25.8743 13.0486C24.5934 15.9181 22.2875 18.2125 19.4035 19.4871C19.232 19.5631 19.0864 19.6868 18.9842 19.8434C18.882 20 18.8276 20.1827 18.8276 20.3694V33.5745C18.8264 35.9665 19.4128 38.3225 20.5358 40.4375C21.6587 42.5526 23.2842 44.3625 25.2707 45.7098L34.9789 52.3005C35.1403 52.4089 35.3306 52.4667 35.5254 52.4667C35.7201 52.4667 35.9104 52.4089 36.0719 52.3005L45.7778 45.7098C47.7636 44.3627 49.3885 42.5534 50.5112 40.4391C51.6339 38.3248 52.2205 35.9696 52.2198 33.5784L52.2209 20.3689ZM50.281 33.5745C50.2815 35.6513 49.7719 37.6968 48.7967 39.5331C47.8215 41.3694 46.4101 42.9408 44.6854 44.1107L35.5243 50.3324L26.3626 44.1107C24.638 42.9406 23.2268 41.3692 22.2517 39.5329C21.2766 37.6967 20.7671 35.6513 20.7675 33.5745V20.981C23.6323 19.5648 25.9532 17.2558 27.3769 14.4057H43.6717C45.0953 17.2558 47.4163 19.5648 50.281 20.981V33.5745Z" fill="#9965EB"/>
</svg>
