<svg width="333" height="433" viewBox="0 0 333 433" fill="none" xmlns="http://www.w3.org/2000/svg">
<circle r="15" transform="matrix(-1 0 0 1 98 15)" fill="#D5BBFF"/>
<circle r="12" transform="matrix(-1 0 0 1 321 129)" fill="#26DBF8"/>
<path d="M276.044 354.856H281.657V355.123H276.044V354.856Z" fill="#EBEBEB"/>
<path d="M174.213 358.687H257.691V358.954H174.213V358.687Z" fill="#EBEBEB"/>
<path d="M94.4744 323.407C94.7417 323.407 95.009 323.229 95.0981 322.961C95.1871 322.605 95.009 322.249 94.6526 322.071C93.6726 321.714 -3.88248 287.058 1.73029 250.887C4.40302 233.87 67.5688 235.83 134.387 237.879C211.808 240.285 291.901 242.779 305.71 218.725C309.541 212.043 309.541 204.559 305.621 196.63C292.614 169.992 241.564 144.601 212.342 131.86C167.44 112.26 115.055 96.7584 75.7652 91.1457C75.4088 91.0566 75.0525 91.3239 75.0525 91.6802C74.9634 92.0366 75.2307 92.393 75.587 92.393C114.787 97.9166 166.906 113.419 211.808 132.93C261.253 154.49 295.019 177.832 304.374 196.986C308.116 204.559 308.116 211.597 304.552 217.834C291.099 241.265 207.799 238.681 134.387 236.365C64.0052 234.137 3.24481 232.266 0.39389 250.53C-2.01157 266.299 13.0449 283.316 45.2069 301.134C69.0834 314.32 93.9398 323.14 94.118 323.229C94.2962 323.407 94.3853 323.407 94.4744 323.407Z" fill="white"/>
<path d="M94.4744 323.407C94.7417 323.407 95.009 323.229 95.0981 322.961C95.1871 322.605 95.009 322.249 94.6526 322.071C93.6726 321.714 -3.88248 287.058 1.73029 250.887C4.40302 233.87 67.5688 235.83 134.387 237.879C211.808 240.285 291.901 242.779 305.71 218.725C309.541 212.043 309.541 204.559 305.621 196.63C292.614 169.992 241.564 144.601 212.342 131.86C167.44 112.26 115.055 96.7584 75.7652 91.1457C75.4088 91.0566 75.0525 91.3239 75.0525 91.6802C74.9634 92.0366 75.2307 92.393 75.587 92.393C114.787 97.9166 166.906 113.419 211.808 132.93C261.253 154.49 295.019 177.832 304.374 196.986C308.116 204.559 308.116 211.597 304.552 217.834C291.099 241.265 207.799 238.681 134.387 236.365C64.0052 234.137 3.24481 232.266 0.39389 250.53C-2.01157 266.299 13.0449 283.316 45.2069 301.134C69.0834 314.32 93.9398 323.14 94.118 323.229C94.2962 323.407 94.3853 323.407 94.4744 323.407Z" fill="#71EBF3"/>
<path d="M305.177 219.081C305.445 219.081 305.623 218.992 305.801 218.725C309.632 212.043 309.632 204.559 305.712 196.63C292.704 169.992 241.655 144.601 212.433 131.86C167.531 112.26 115.145 96.7584 75.856 91.1457C75.4996 91.0566 75.1433 91.3239 75.1433 91.6802C75.0542 92.0366 75.3215 92.393 75.6779 92.393C114.878 97.9166 166.997 113.419 211.899 132.93C261.344 154.49 295.11 177.832 304.465 196.986C308.206 204.559 308.206 211.597 304.643 217.834C304.465 218.19 304.554 218.546 304.91 218.725C304.999 218.992 305.088 219.081 305.177 219.081Z" fill="#407BFF"/>
<path d="M94.4762 323.407C94.7435 323.407 95.0108 323.229 95.0999 322.961C95.1889 322.605 95.0108 322.249 94.6544 322.07C93.6744 321.714 -3.88067 287.058 1.73209 250.886C1.82118 250.53 1.5539 250.174 1.19753 250.085C0.841171 249.996 0.48481 250.263 0.395721 250.619C-2.00975 266.388 13.0467 283.405 45.2087 301.223C69.0852 314.409 93.9417 323.229 94.1198 323.318C94.298 323.407 94.3871 323.407 94.4762 323.407Z" fill="#407BFF"/>
<path d="M110.959 171.863L110.691 165.003C110.691 165.003 108.82 163.132 108.82 161.974C108.82 160.815 110.959 154.044 111.849 153.688C112.74 153.332 117.73 155.737 117.819 157.252C117.908 158.766 115.235 164.379 114.79 164.824L115.502 172.13L110.959 171.863Z" fill="#E4897B"/>
<path d="M35.9438 162.419L38.3493 155.648C38.3493 155.648 40.4875 154.044 41.1111 153.243C41.7347 152.352 38.1711 145.937 37.6366 145.937C37.102 145.937 33.2711 147.986 32.7365 148.699C32.202 149.322 35.0529 154.579 35.0529 154.579L31.5783 160.459L35.9438 162.419Z" fill="#E4897B"/>
<path d="M49.7529 161.261C46.4565 161.617 30.7764 178.366 30.7764 178.366L37.5474 159.568L32.2019 157.697C32.2019 157.697 18.9273 178.812 21.8673 186.563C24.8073 194.314 50.7329 176.585 50.7329 176.585L49.7529 161.261Z" fill="#26DBF8"/>
<path d="M100.001 361.627L103.653 356.905L97.4169 350.847L91.8041 345.413L86.4587 350.402L93.6751 356.371L100.001 361.627Z" fill="#E4897B"/>
<path d="M103.831 355.391C103.297 355.034 98.7529 361.805 98.7529 361.805C98.7529 361.805 99.7329 368.933 97.6838 373.476C95.6347 378.02 99.6438 377.664 102.94 373.298C106.237 368.933 108.731 365.636 111.137 362.607C113.542 359.578 109.444 359.489 103.831 355.391Z" fill="#2E353A"/>
<path opacity="0.2" d="M93.6751 356.371L97.417 350.847L91.8042 345.413L86.4587 350.402L93.6751 356.371Z" fill="black"/>
<path d="M63.3841 369.2H69.3532L70.3332 360.826L71.2241 353.164L64.0968 352.005L63.6514 361.093L63.3841 369.2Z" fill="#E4897B"/>
<path d="M70.6893 368.844C70.6893 368.22 62.4929 368.665 62.4929 368.665C62.4929 368.665 57.5038 373.744 52.6038 374.902C47.7037 376.06 50.4656 379 55.9002 379C61.3347 379 65.522 379 69.353 379C73.273 379 70.7784 375.704 70.6893 368.844Z" fill="#2E353A"/>
<path opacity="0.2" d="M63.6514 361.271L70.3332 361.004L71.2241 353.253L64.0968 352.005L63.6514 361.271Z" fill="black"/>
<path d="M48.3275 224.248C48.3275 224.248 30.5092 266.3 27.7474 284.831C24.9856 303.272 88.2405 352.807 88.2405 352.807L94.7441 345.947C94.7441 345.947 47.7039 297.571 47.7039 289.285C47.7039 281 66.0567 242.958 66.0567 242.958C66.0567 242.958 67.6603 227.545 48.3275 224.248Z" fill="#407BFF"/>
<path opacity="0.6" d="M61.1567 329.733C67.6603 335.702 73.8967 341.047 78.7077 345.145C84.3204 349.867 88.0623 352.807 88.0623 352.807L94.5659 345.947C94.5659 345.947 88.0623 339.355 79.9549 330.534C73.5404 323.585 66.1458 315.389 59.9985 307.994C52.8712 299.442 47.5257 292.047 47.5257 289.285C47.5257 284.92 52.6039 272.269 57.4148 261.31C61.7803 251.51 65.8785 242.958 65.8785 242.958C65.8785 242.958 66.1458 240.73 65.344 237.79C64.0967 232.979 60.1766 226.387 48.2384 224.338C48.2384 224.338 30.4201 266.389 27.6583 284.92C26.1437 294.898 44.4075 314.32 61.1567 329.733Z" fill="white"/>
<path opacity="0.2" d="M60.0871 307.994L61.2453 329.822C67.7489 335.791 73.9853 341.136 78.7963 345.234C79.5981 341.938 80.489 336.593 80.0436 330.534C73.629 323.585 66.2344 315.389 60.0871 307.994Z" fill="black"/>
<path opacity="0.2" d="M57.5043 261.221C61.8698 251.421 65.968 242.869 65.968 242.869C65.968 242.869 66.2353 240.641 65.4334 237.701C64.2753 236.988 63.3843 236.81 63.3843 236.81C63.3843 236.81 58.1279 245.096 57.5043 261.221Z" fill="black"/>
<path d="M80.4006 127.673C80.4006 127.673 74.966 120.902 66.146 122.417C57.2368 123.931 58.8404 140.324 58.8404 140.324C58.8404 140.324 53.3168 144.601 55.0986 151.995C56.8805 159.39 77.0151 163.666 84.677 158.588C92.4279 153.421 86.4588 137.028 82.717 134.711C78.9751 132.395 80.4006 127.673 80.4006 127.673Z" fill="#2E353A"/>
<path d="M63.2054 236.81L62.1362 296.145V356.727H72.2036C96.3473 241.799 79.7763 213.023 79.7763 213.023H79.6873C79.6873 213.023 79.6873 212.934 79.5982 212.845C75.7672 204.203 50.2871 210.617 50.2871 210.617C48.5053 217.745 47.3471 232.267 47.3471 232.267L63.2054 236.81Z" fill="#407BFF"/>
<path opacity="0.6" d="M63.2054 236.81L62.1362 296.145V356.727H72.2036C96.3473 241.799 79.7763 213.023 79.7763 213.023H79.6873C79.6873 213.023 79.6873 212.934 79.5982 212.845C75.7672 204.203 50.2871 210.617 50.2871 210.617C48.5053 217.745 47.3471 232.267 47.3471 232.267L63.2054 236.81Z" fill="white"/>
<path d="M79.9551 208.568V212.934L50.5549 210.617V205.539L79.9551 208.568Z" fill="#2E353A"/>
<path d="M70.0798 206.754L71.5034 206.827L71.1262 214.212L69.7026 214.139L70.0798 206.754Z" fill="#407BFF"/>
<path d="M52.1716 204.796L53.5952 204.869L53.2184 212.254L51.7948 212.181L52.1716 204.796Z" fill="#407BFF"/>
<path opacity="0.6" d="M70.0798 206.754L71.5034 206.827L71.1262 214.212L69.7026 214.139L70.0798 206.754Z" fill="white"/>
<path opacity="0.6" d="M52.1716 204.796L53.5952 204.869L53.2184 212.254L51.7948 212.181L52.1716 204.796Z" fill="white"/>
<path d="M50.4655 206.074L79.8657 208.657C80.5784 197.699 81.2912 190.661 87.7058 171.15C88.2403 169.457 88.8639 167.675 89.5767 165.715C85.5675 164.468 81.4694 163.488 77.3712 162.775C73.0057 161.973 68.5511 161.528 64.1856 161.35C58.4838 161.35 51.891 161.973 51.891 161.973C51.891 161.973 50.911 162.241 50.3764 168.299C49.7528 174.001 49.2183 185.315 50.4655 206.074Z" fill="#407BFF"/>
<path opacity="0.3" d="M50.4655 206.074L79.8657 208.657C80.5784 197.699 81.2912 190.661 87.7058 171.15C88.2403 169.457 88.8639 167.675 89.5767 165.715C85.5675 164.468 81.4694 163.488 77.3712 162.775C73.0057 161.973 68.5511 161.528 64.1856 161.35C58.4838 161.35 51.891 161.973 51.891 161.973C51.891 161.973 50.911 162.241 50.3764 168.299C49.7528 174.001 49.2183 185.315 50.4655 206.074Z" fill="black"/>
<path d="M66.591 167.854C73.8074 166.963 76.0347 163.844 76.0347 163.844C71.4019 159.479 75.2329 151.995 75.2329 151.995L66.5019 153.599C66.7692 155.024 66.8582 156.272 66.8582 157.252C66.9473 162.508 64.5419 162.597 64.5419 162.597C62.9382 165.537 66.591 167.854 66.591 167.854Z" fill="#E4897B"/>
<path opacity="0.2" d="M66.5024 153.599C66.7697 155.024 66.8588 156.272 66.8588 157.252C71.0461 156.272 75.2334 151.906 75.2334 151.906L66.5024 153.599Z" fill="black"/>
<path d="M74.2519 129.455C66.8573 127.673 63.5609 131.059 61.2445 138.542C58.3045 147.897 58.8391 155.203 68.55 155.292C81.7355 155.648 86.5465 132.395 74.2519 129.455Z" fill="#E4897B"/>
<path d="M79.4199 143.888C79.4199 143.888 77.3708 137.028 79.0635 132.395C79.0635 132.395 65.878 122.951 61.6016 137.651C61.6016 137.651 63.2943 124.11 76.0344 126.871C88.7745 129.544 84.3199 148.164 76.4799 152.173C76.4799 152.084 80.5781 148.164 79.4199 143.888Z" fill="#2E353A"/>
<path d="M77.8159 145.135C78.1722 143.977 79.8649 142.195 82.0031 142.997C84.2304 143.799 84.2304 148.788 78.2613 148.521C77.3704 148.521 77.1031 147.63 77.8159 145.135Z" fill="#E4897B"/>
<path d="M50.2874 168.299C61.3347 173.734 78.2621 172.486 87.7058 171.15C88.2403 169.457 88.8639 167.675 89.5767 165.715C85.5675 164.468 81.4694 163.488 77.3712 162.775C73.0057 161.973 68.5511 161.528 64.1856 161.35C58.4838 161.35 51.891 161.973 51.891 161.973C51.891 161.973 50.911 162.241 50.2874 168.299Z" fill="#E4897B"/>
<path d="M83.3401 162.775C83.3401 162.775 75.411 172.932 75.1437 183.89C74.8764 194.848 82.1819 245.452 82.1819 245.452L91.002 242.958C91.002 242.958 84.3201 204.025 91.002 166.428L83.3401 162.775Z" fill="#26DBF8"/>
<path d="M58.8398 161.617C58.8398 161.617 55.6326 172.13 56.078 179.614C56.5235 187.186 48.3271 224.248 48.3271 224.248L45.9216 229.95L48.238 206.965C48.238 206.965 46.8125 173.199 49.6634 161.617H58.8398Z" fill="#26DBF8"/>
<path d="M74.2524 129.455C74.2524 129.455 71.4906 138.72 79.8652 142.997C89.9325 148.075 88.9525 159.122 79.1525 160.459C79.1525 160.459 89.0416 159.479 91.0016 152.975C92.9616 146.382 87.4379 136.493 87.4379 136.493C87.4379 136.493 90.4671 131.059 82.2707 126.693C77.727 124.377 74.2524 129.455 74.2524 129.455Z" fill="#2E353A"/>
<path d="M73.54 355.302L60.8891 353.431L61.9582 358.509L72.3819 359.934L73.54 355.302Z" fill="#2D56B3"/>
<path d="M94.6546 343.631L86.1909 352.807L90.3782 355.213L96.8818 348.264L94.6546 343.631Z" fill="#2D56B3"/>
<path d="M44.4956 141.482C46.0102 138.72 48.9502 137.473 51.0884 138.72C53.2266 139.879 53.672 143.086 52.1575 145.848C50.6429 148.61 47.7029 149.857 45.5647 148.61C43.4265 147.362 42.9811 144.244 44.4956 141.482Z" fill="#407BFF"/>
<path d="M27.2119 131.95L32.4683 122.328C32.4683 122.328 36.121 130.168 41.3774 133.108L38.7047 137.919L38.2592 138.631L35.5865 143.442C30.3301 140.502 21.6882 141.482 21.6882 141.482L27.2119 131.95Z" fill="#407BFF"/>
<path opacity="0.8" d="M44.4956 141.482C46.0102 138.72 48.9502 137.473 51.0884 138.72C53.2266 139.879 53.672 143.086 52.1575 145.848C50.6429 148.61 47.7029 149.857 45.5647 148.61C43.4265 147.362 42.9811 144.244 44.4956 141.482Z" fill="white"/>
<path opacity="0.8" d="M27.2119 131.95L32.4683 122.328C32.4683 122.328 36.121 130.168 41.3774 133.108L38.7047 137.919L38.2592 138.631L35.5865 143.442C30.3301 140.502 21.6882 141.482 21.6882 141.482L27.2119 131.95Z" fill="white"/>
<path d="M44.8521 147.095C44.8521 147.095 41.1102 152.619 37.5465 154.579C37.2793 154.757 37.012 154.668 36.8338 154.401L33.8047 150.659C33.5374 150.392 33.6265 149.946 33.9829 149.768C35.4974 149.144 38.972 147.452 40.932 145.046C43.5157 142.017 44.8521 147.095 44.8521 147.095Z" fill="#407BFF"/>
<path opacity="0.3" d="M44.8521 147.095C44.8521 147.095 41.1102 152.619 37.5465 154.579C37.2793 154.757 37.012 154.668 36.8338 154.401L33.8047 150.659C33.5374 150.392 33.6265 149.946 33.9829 149.768C35.4974 149.144 38.972 147.452 40.932 145.046C43.5157 142.017 44.8521 147.095 44.8521 147.095Z" fill="black"/>
<path d="M21.7773 141.75C23.0246 142.462 26.41 138.631 29.4391 133.197C32.4682 127.851 33.8937 122.862 32.7355 122.239C31.4882 121.526 28.1028 125.357 25.0737 130.791C22.0446 136.137 20.53 141.037 21.7773 141.75Z" fill="white"/>
<path opacity="0.4" d="M22.2223 140.146C23.1132 140.68 25.7859 137.651 28.2805 133.286C28.4587 133.019 28.5478 132.751 28.7259 132.573C28.9041 132.306 29.0823 131.95 29.2605 131.682C31.5769 127.317 32.7351 123.575 31.8441 123.04C30.8641 122.506 27.9241 125.891 25.3405 130.613C22.6677 135.335 21.3314 139.611 22.2223 140.146Z" fill="black"/>
<path d="M46.0993 149.59C46.0993 149.59 47.4357 148.699 49.752 144.512C52.2466 139.968 52.2466 138.721 52.2466 138.721L40.4865 132.128C40.4865 132.128 40.3083 133.732 37.992 138.008C35.5865 142.195 34.4283 142.997 34.4283 142.997L46.0993 149.59Z" fill="#99B9FF"/>
<path d="M28.3706 133.286C28.5488 133.019 28.6378 132.751 28.816 132.573C28.9942 132.306 29.1724 131.95 29.3506 131.682L28.1033 131.326C27.836 131.237 27.5688 131.415 27.4797 131.593L27.3906 131.771C27.2124 132.039 27.3015 132.306 27.4797 132.484L28.3706 133.286Z" fill="white"/>
<path opacity="0.2" d="M28.3706 133.286C28.5488 133.019 28.6378 132.751 28.816 132.573C28.9942 132.306 29.1724 131.95 29.3506 131.682L28.1033 131.326C27.836 131.237 27.5688 131.415 27.4797 131.593L27.3906 131.771C27.2124 132.039 27.3015 132.306 27.4797 132.484L28.3706 133.286Z" fill="black"/>
<path d="M91.0915 166.339C95.1897 168.121 109.801 194.225 109.801 194.225L110.068 169.546L116.661 168.655C116.661 168.655 120.67 203.668 112.028 205.628C103.386 207.678 87.6169 182.643 87.6169 182.643L91.0915 166.339Z" fill="#26DBF8"/>
<path d="M75.2334 128.386C75.2334 128.386 71.4025 131.148 74.2534 138.275" stroke="#2E353A" stroke-width="0.5" stroke-miterlimit="10" stroke-linecap="round" stroke-linejoin="round"/>
<path d="M59.6421 139.701C59.6421 139.701 49.2184 146.472 55.9893 155.113" stroke="#2E353A" stroke-width="0.5" stroke-miterlimit="10" stroke-linecap="round" stroke-linejoin="round"/>
<path d="M271.501 378.465H121.917C116.839 378.465 112.651 374.278 112.651 369.2V85.2655C112.651 80.1873 116.839 76 121.917 76H271.501C276.58 76 280.767 80.1873 280.767 85.2655V369.2C280.767 374.278 276.58 378.465 271.501 378.465Z" fill="#2E353A"/>
<path d="M275.154 86.1565V367.774C275.154 370.091 273.283 371.873 270.967 371.873H122.095C119.957 371.873 118.353 370.18 118.353 368.131V85.8001C118.353 83.9292 119.689 82.3256 121.56 82.3256H158.801C159.87 82.3256 160.85 83.0383 161.206 84.0183L162.721 87.8492C163.077 88.8292 164.057 89.542 165.126 89.542H228.47C229.539 89.542 230.519 88.9183 230.875 87.9383L232.39 84.1074C232.746 83.1274 233.726 82.4147 234.795 82.4147H271.501C273.55 82.3256 275.154 84.1074 275.154 86.1565Z" fill="#407BFF"/>
<path opacity="0.2" d="M275.154 100.589H118.353V135.78H275.154V100.589Z" fill="white"/>
<path opacity="0.6" d="M136.055 93.7001H138.015V91.1164H136.055V93.7001Z" fill="white"/>
<path opacity="0.6" d="M132.86 93.7296H134.82V90.2551H132.86V93.7296Z" fill="white"/>
<path opacity="0.6" d="M129.665 93.67H131.625V89.3937H129.665V93.67Z" fill="white"/>
<path opacity="0.6" d="M126.56 93.6997H128.52V88.5324H126.56V93.6997Z" fill="white"/>
<path opacity="0.6" d="M257.781 90.1655H256.623V92.7492H257.781V90.1655Z" fill="white"/>
<path opacity="0.6" d="M258.587 93.6864H267.764V89.2318H258.587V93.6864Z" fill="white"/>
<path opacity="0.6" d="M193.19 84.9091C194.371 84.9091 195.328 83.9518 195.328 82.7709C195.328 81.59 194.371 80.6327 193.19 80.6327C192.009 80.6327 191.052 81.59 191.052 82.7709C191.052 83.9518 192.009 84.9091 193.19 84.9091Z" fill="white"/>
<path opacity="0.6" d="M199.694 82.7709C199.694 83.5727 199.07 84.1073 198.357 84.1073C197.556 84.1073 197.021 83.4836 197.021 82.7709C197.021 82.0582 197.645 81.4345 198.357 81.4345C199.07 81.3454 199.694 81.9691 199.694 82.7709Z" fill="white"/>
<path opacity="0.2" d="M275.154 318.418V367.774C275.154 370.091 273.283 371.872 270.967 371.872H122.095C119.957 371.872 118.353 370.18 118.353 368.131V318.418H275.154Z" fill="white"/>
<path d="M135.548 224.248L196.665 172.842L257.781 224.248L209.939 288.483L166.819 287.592L135.548 224.248Z" fill="#407BFF"/>
<path opacity="0.3" d="M135.548 224.248L196.665 172.842L257.781 224.248L209.939 288.483L166.819 287.592L135.548 224.248Z" fill="black"/>
<path d="M238.181 283.048H155.237C154.167 283.048 153.188 282.157 153.188 280.999V157.964C153.188 156.895 154.078 155.915 155.237 155.915H238.181C239.25 155.915 240.23 156.806 240.23 157.964V280.999C240.141 282.157 239.25 283.048 238.181 283.048Z" fill="white"/>
<path opacity="0.2" d="M230.252 167.408H163.077C162.72 167.408 162.453 167.675 162.453 168.031V169.279C162.453 169.635 162.72 169.902 163.077 169.902H230.252C230.608 169.902 230.875 169.635 230.875 169.279V168.031C230.875 167.675 230.608 167.408 230.252 167.408Z" fill="black"/>
<path opacity="0.2" d="M230.252 176.049H163.077C162.72 176.049 162.453 176.317 162.453 176.673V177.92C162.453 178.277 162.72 178.544 163.077 178.544H230.252C230.608 178.544 230.875 178.277 230.875 177.92V176.673C230.875 176.317 230.608 176.049 230.252 176.049Z" fill="black"/>
<path opacity="0.2" d="M230.252 184.602H163.077C162.72 184.602 162.453 184.869 162.453 185.226V186.473C162.453 186.829 162.72 187.097 163.077 187.097H230.252C230.608 187.097 230.875 186.829 230.875 186.473V185.226C230.875 184.959 230.608 184.602 230.252 184.602Z" fill="black"/>
<path opacity="0.2" d="M230.252 193.244H163.077C162.72 193.244 162.453 193.511 162.453 193.868V195.115C162.453 195.471 162.72 195.739 163.077 195.739H230.252C230.608 195.739 230.875 195.471 230.875 195.115V193.868C230.875 193.511 230.608 193.244 230.252 193.244Z" fill="black"/>
<path opacity="0.2" d="M230.252 201.886H163.077C162.72 201.886 162.453 202.153 162.453 202.51V203.757C162.453 204.113 162.72 204.381 163.077 204.381H230.252C230.608 204.381 230.875 204.113 230.875 203.757V202.51C230.875 202.153 230.608 201.886 230.252 201.886Z" fill="black"/>
<path opacity="0.2" d="M230.252 210.439H163.077C162.72 210.439 162.453 210.706 162.453 211.062V212.31C162.453 212.666 162.72 212.933 163.077 212.933H230.252C230.608 212.933 230.875 212.666 230.875 212.31V211.062C230.875 210.795 230.608 210.439 230.252 210.439Z" fill="black"/>
<path opacity="0.2" d="M230.252 219.081H163.077C162.72 219.081 162.453 219.348 162.453 219.704V220.952C162.453 221.308 162.72 221.575 163.077 221.575H230.252C230.608 221.575 230.875 221.308 230.875 220.952V219.704C230.875 219.348 230.608 219.081 230.252 219.081Z" fill="black"/>
<path opacity="0.2" d="M230.252 227.723H163.077C162.72 227.723 162.453 227.99 162.453 228.346V229.593C162.453 229.95 162.72 230.217 163.077 230.217H230.252C230.608 230.217 230.875 229.95 230.875 229.593V228.346C230.875 227.99 230.608 227.723 230.252 227.723Z" fill="black"/>
<path opacity="0.2" d="M230.252 236.275H163.077C162.72 236.275 162.453 236.543 162.453 236.899V238.146C162.453 238.503 162.72 238.77 163.077 238.77H230.252C230.608 238.77 230.875 238.503 230.875 238.146V236.899C230.875 236.632 230.608 236.275 230.252 236.275Z" fill="black"/>
<path d="M199.961 268.972L199.604 268.793C198.357 268.081 196.842 268.081 195.595 268.793L193.902 269.773L135.28 224.248V299.441C135.28 301.668 137.062 303.361 139.289 303.361H254.039C256.266 303.361 257.246 301.668 257.246 299.441V224.248L199.961 268.972Z" fill="#407BFF"/>
<path opacity="0.6" d="M199.961 268.972L199.604 268.793C198.357 268.081 196.842 268.081 195.595 268.793L193.902 269.773L135.28 224.248V299.441C135.28 301.668 137.062 303.361 139.289 303.361H254.039C256.266 303.361 257.246 301.668 257.246 299.441V224.248L199.961 268.972Z" fill="white"/>
<path opacity="0.2" d="M191.318 267.725L193.991 269.774L152.475 293.294L191.318 267.725Z" fill="black"/>
<path opacity="0.2" d="M245.308 294.185L199.872 269.061L202.01 267.368L245.308 294.185Z" fill="black"/>
<path d="M223.035 110.835H173.411C172.966 110.835 172.699 110.478 172.699 110.122V106.826C172.699 106.38 173.055 106.113 173.411 106.113H223.035C223.481 106.113 223.748 106.469 223.748 106.826V110.122C223.748 110.567 223.481 110.835 223.035 110.835Z" fill="#407BFF"/>
<path d="M264.196 131.058H241.299C239.696 131.058 238.359 129.722 238.359 128.118C238.359 126.515 239.696 125.178 241.299 125.178H264.196C265.8 125.178 267.136 126.515 267.136 128.118C267.136 129.722 265.8 131.058 264.196 131.058Z" fill="#407BFF"/>
<path d="M152.564 325.901H129.668V347.551H152.564V325.901Z" fill="#407BFF"/>
<path d="M180.36 325.901H157.464V347.551H180.36V325.901Z" fill="#407BFF"/>
<path d="M208.157 325.901H185.261V347.551H208.157V325.901Z" fill="#407BFF"/>
<path d="M235.954 325.901H213.058V347.551H235.954V325.901Z" fill="#407BFF"/>
<path d="M263.839 325.901H240.943V347.551H263.839V325.901Z" fill="#407BFF"/>
<path d="M264.196 362.874H241.299C239.696 362.874 238.359 361.538 238.359 359.934C238.359 358.331 239.696 356.994 241.299 356.994H264.196C265.8 356.994 267.136 358.331 267.136 359.934C267.136 361.538 265.8 362.874 264.196 362.874Z" fill="#407BFF"/>
<path opacity="0.1" d="M259.474 76.0891L113.007 284.563V192.175L194.526 76.0891H259.474Z" fill="white"/>
<path opacity="0.1" d="M174.391 76.0891L113.007 163.755V85.2655C113.007 80.1873 116.749 76.0891 121.916 76.0891H174.391Z" fill="white"/>
<g opacity="0.8">
<g opacity="0.8">
<path opacity="0.8" d="M305.177 219.081C305.445 219.081 305.623 218.992 305.801 218.725C309.632 212.043 309.632 204.559 305.712 196.63C292.704 169.992 241.655 144.601 212.433 131.86C167.531 112.26 115.145 96.7584 75.856 91.1457C75.4996 91.0566 75.1433 91.3239 75.1433 91.6802C75.0542 92.0366 75.3215 92.393 75.6779 92.393C114.878 97.9166 166.997 113.419 211.899 132.93C261.344 154.49 295.11 177.832 304.465 196.986C308.206 204.559 308.206 211.597 304.643 217.834C304.465 218.19 304.554 218.546 304.91 218.725C304.999 218.992 305.088 219.081 305.177 219.081Z" fill="white"/>
</g>
<g opacity="0.8">
<path opacity="0.8" d="M94.4762 323.407C94.7435 323.407 95.0108 323.229 95.0999 322.961C95.1889 322.605 95.0108 322.249 94.6544 322.07C93.6744 321.714 -3.88067 287.058 1.73209 250.886C1.82118 250.53 1.5539 250.174 1.19753 250.085C0.841171 249.996 0.48481 250.263 0.395721 250.619C-2.00975 266.388 13.0467 283.405 45.2087 301.223C69.0852 314.409 93.9417 323.229 94.1198 323.318C94.298 323.407 94.3871 323.407 94.4762 323.407Z" fill="white"/>
</g>
</g>
<path d="M57.5029 100.589L19.6391 80.5437L52.7811 91.5019L57.5029 100.589Z" fill="#407BFF"/>
<path opacity="0.3" d="M57.5029 100.589L19.6391 80.5437L52.7811 91.5019L57.5029 100.589Z" fill="black"/>
<path d="M66.5015 82.8601L59.4633 87.671L57.5032 100.589L52.7814 91.5019L40.7541 97.4711L19.6394 80.5437L66.5015 82.8601Z" fill="#407BFF"/>
<path opacity="0.6" d="M66.5015 82.8601L59.4633 87.671L57.5032 100.589L52.7814 91.5019L40.7541 97.4711L19.6394 80.5437L66.5015 82.8601Z" fill="white"/>
<path opacity="0.2" d="M59.4634 87.671L19.6395 80.5437L52.7815 91.5019L57.5034 100.589L59.4634 87.671Z" fill="black"/>
<path d="M213.748 424.696C196.864 410.97 199.325 406.57 201.672 389.438C204.02 372.305 215.712 374.359 220.926 384.472C226.141 394.607 230.813 393.207 227.721 383.682C224.628 374.156 220.746 367.971 227.156 358.491C233.567 349.01 234.222 344.992 230.633 336.528C227.021 328.063 222.507 316.077 236.84 311.811C251.174 307.545 265.439 320.682 262.099 337.859C258.758 355.06 256.749 356.933 261.354 363.299C265.958 369.664 264.04 372.282 263.385 376.436C262.731 380.589 269.773 381.56 269.615 375.713C269.457 369.867 260.519 356.098 266.636 349.665C272.73 343.232 284.716 343.164 287.763 358.039C290.833 372.915 281.014 379.596 281.488 384.968C281.985 390.34 287.244 382.192 291.849 387.677C296.454 393.162 290.269 397.473 285.709 400.43C281.15 403.41 274.288 408.714 280.834 412.597C287.357 416.457 293.384 416.135 289.547 424.696C285.709 433.256 271.69 431.433 251.161 430.218C230.633 429.002 230.633 438.421 213.748 424.696Z" fill="#D5BBFF"/>
<path d="M243.386 324.226C243.86 324.474 244.266 324.79 244.673 325.129C245.079 325.467 245.44 325.828 245.779 326.235C246.478 327.025 247.065 327.905 247.539 328.853C248.487 330.749 249.006 332.848 249.187 334.97C249.21 335.241 249.232 335.489 249.232 335.76C249.232 336.031 249.255 336.279 249.255 336.55V337.34L249.21 338.13L249.187 338.537L249.142 338.92L249.074 339.71C248.984 340.23 248.939 340.749 248.848 341.268C248.758 341.787 248.668 342.306 248.532 342.803L248.352 343.57L248.171 344.315L247.426 347.272C246.456 351.222 245.508 355.173 244.763 359.123C244.04 363.095 243.544 367.091 243.657 371.041C243.679 372.034 243.747 373.005 243.882 373.975C243.995 374.946 244.176 375.917 244.424 376.842C244.673 377.79 244.966 378.693 245.35 379.573C245.779 380.567 246.117 381.605 246.365 382.621C246.862 384.675 247.156 386.729 247.381 388.783C247.607 390.837 247.765 392.869 247.9 394.9C248.171 398.963 248.42 403.026 249.006 407.044C249.074 407.541 249.164 408.037 249.255 408.534C249.345 409.03 249.435 409.527 249.548 410.024C249.638 410.52 249.774 410.994 249.887 411.491C249.954 411.739 250.022 411.965 250.09 412.213C250.158 412.461 250.225 412.71 250.316 412.935L250.564 413.658C250.654 413.906 250.745 414.132 250.835 414.358C251.015 414.832 251.241 415.283 251.444 415.734C251.918 416.615 252.46 417.473 253.137 418.217L252.979 418.375C252.234 417.653 251.602 416.818 251.061 415.96C250.541 415.057 250.067 414.132 249.706 413.161C248.939 411.243 248.442 409.234 248.013 407.202C247.178 403.162 246.794 399.076 246.343 395.035C246.117 393.004 245.914 390.995 245.643 388.986C245.372 386.977 245.011 385.013 244.515 383.117C244.244 382.169 243.928 381.266 243.544 380.386C243.092 379.415 242.731 378.377 242.46 377.361C242.167 376.323 241.964 375.285 241.806 374.246C241.648 373.208 241.558 372.147 241.512 371.086C241.332 366.888 241.851 362.734 242.551 358.671C243.273 354.608 244.244 350.613 245.327 346.663C245.598 345.67 245.869 344.699 246.162 343.706L246.388 342.961L246.591 342.239C246.727 341.765 246.839 341.29 246.952 340.794C247.065 340.32 247.155 339.823 247.246 339.349L247.359 338.627C247.404 338.379 247.426 338.13 247.449 337.905C247.584 336.934 247.607 335.941 247.63 334.97C247.63 334 247.562 333.006 247.381 332.036C247.201 331.065 246.975 330.117 246.614 329.192C246.433 328.74 246.23 328.289 246.004 327.837C245.779 327.386 245.53 326.98 245.259 326.551C244.718 325.738 244.041 324.948 243.273 324.339L243.386 324.226Z" fill="white"/>
<path d="M212.687 385.6C213.116 388.806 213.726 391.988 214.471 395.126C214.854 396.683 215.261 398.241 215.712 399.798C215.825 400.182 215.96 400.566 216.073 400.95C216.186 401.333 216.321 401.717 216.457 402.101C216.705 402.868 216.976 403.613 217.247 404.381C217.54 405.126 217.811 405.893 218.127 406.615C218.421 407.36 218.759 408.083 219.075 408.827C219.753 410.272 220.475 411.717 221.265 413.094C222.055 414.493 222.935 415.825 223.861 417.134C224.809 418.421 225.847 419.662 226.953 420.859L226.795 421.039C225.531 420.023 224.357 418.85 223.274 417.631C222.213 416.367 221.242 415.057 220.362 413.658C219.504 412.258 218.692 410.814 218.014 409.347C217.676 408.602 217.337 407.857 217.021 407.089C216.705 406.344 216.434 405.554 216.141 404.787C215.87 404.019 215.599 403.252 215.351 402.462C215.215 402.078 215.103 401.672 214.99 401.288C214.877 400.904 214.764 400.498 214.651 400.114C214.222 398.534 213.861 396.954 213.545 395.352C212.936 392.146 212.507 388.918 212.439 385.645L212.687 385.6Z" fill="white"/>
</svg>
