<svg width="40" height="35" viewBox="0 0 40 35" fill="none" xmlns="http://www.w3.org/2000/svg">
<mask id="mask0" mask-type="alpha" maskUnits="userSpaceOnUse" x="0" y="6" width="36" height="29">
<path d="M31.3235 6.74988H3.75C1.67893 6.74988 0 8.42881 0 10.4999V30.2793C0 32.3504 1.67893 34.0293 3.75 34.0293H31.3235C33.3946 34.0293 35.0735 32.3504 35.0735 30.2793V10.4999C35.0735 8.42881 33.3946 6.74988 31.3235 6.74988Z" fill="white"/>
</mask>
<g mask="url(#mask0)">
<path d="M31.3235 6.74988H3.75C1.67893 6.74988 0 8.42881 0 10.4999V30.2793C0 32.3504 1.67893 34.0293 3.75 34.0293H31.3235C33.3946 34.0293 35.0735 32.3504 35.0735 30.2793V10.4999C35.0735 8.42881 33.3946 6.74988 31.3235 6.74988Z" fill="url(#paint0_linear)"/>
<path fill-rule="evenodd" clip-rule="evenodd" d="M6.5249 11.3999H28.7999C29.3966 11.3999 29.9689 11.637 30.3909 12.0589C30.8128 12.4809 31.0499 13.0532 31.0499 13.6499V27.1499C31.0499 27.7466 30.8128 28.3189 30.3909 28.7409C29.9689 29.1628 29.3966 29.3999 28.7999 29.3999H6.5249C5.92817 29.3999 5.35587 29.1628 4.93391 28.7409C4.51196 28.3189 4.2749 27.7466 4.2749 27.1499V13.6499C4.2749 13.0532 4.51196 12.4809 4.93391 12.0589C5.35587 11.637 5.92817 11.3999 6.5249 11.3999Z" fill="#3A61CD"/>
<path d="M9.75 22.7249H15.825M9.75 17.9999H18.15H9.75Z" stroke="white" stroke-width="1.5" stroke-linecap="round" stroke-linejoin="round"/>
<path opacity="0.2" d="M27.6692 28.8655C34.1261 28.8655 39.3604 23.6312 39.3604 17.1743C39.3604 10.7175 34.1261 5.48315 27.6692 5.48315C21.2123 5.48315 15.978 10.7175 15.978 17.1743C15.978 23.6312 21.2123 28.8655 27.6692 28.8655Z" fill="#00084F"/>
</g>
<path d="M27.6663 24.1324C34.1231 24.1324 39.3575 18.898 39.3575 12.4412C39.3575 5.98432 34.1231 0.75 27.6663 0.75C21.2094 0.75 15.9751 5.98432 15.9751 12.4412C15.9751 18.898 21.2094 24.1324 27.6663 24.1324Z" fill="#26DBF8"/>
<path d="M30.0751 10.9499L29.5501 13.8749H30.5251C30.6842 13.8749 30.8368 13.9381 30.9494 14.0506C31.0619 14.1631 31.1251 14.3157 31.1251 14.4749C31.1251 14.6249 31.1251 14.7749 30.9751 14.8499L30.5251 14.9999H29.3251L28.8751 17.0249C28.8751 17.1749 28.8751 17.2499 28.7251 17.3249L28.3501 17.4749C28.1251 17.4749 28.0501 17.4749 27.9001 17.3249C27.8415 17.2669 27.7974 17.1959 27.7714 17.1178C27.7453 17.0396 27.738 16.9564 27.7501 16.8749V16.7249L27.9751 14.9999H26.1751L25.8001 17.0249C25.8001 17.1749 25.8001 17.2499 25.6501 17.3249L25.2751 17.4749C25.1251 17.4749 24.9751 17.4749 24.8251 17.3249C24.7708 17.264 24.7295 17.1927 24.7037 17.1153C24.6779 17.0379 24.6682 16.9561 24.6751 16.8749V16.7249L25.0501 14.9999H24.4501C24.291 14.9999 24.1384 14.9366 24.0258 14.8241C23.9133 14.7116 23.8501 14.559 23.8501 14.3999C23.8501 14.2499 23.8501 14.0999 24.0001 14.0249L24.4501 13.8749H25.2001L25.8001 10.8749H24.6751C24.5281 10.876 24.3859 10.8232 24.2753 10.7264C24.1647 10.6296 24.0935 10.4957 24.0751 10.3499C24.0751 10.1999 24.1501 10.0499 24.3001 9.97485C24.3751 9.82485 24.5251 9.82485 24.6751 9.82485H26.0251L26.4001 7.87485C26.4001 7.72485 26.4751 7.64985 26.6251 7.49985L27.0001 7.42485C27.1501 7.42485 27.3001 7.42485 27.3751 7.57485C27.5251 7.64985 27.6001 7.79985 27.6001 8.02485V8.17485L27.2251 9.74985H29.0251L29.4001 7.79985L29.5501 7.42485L29.9251 7.34985C30.1501 7.34985 30.3001 7.34985 30.3751 7.49985C30.5251 7.57485 30.6001 7.72485 30.6001 7.94985V8.09985L30.2251 9.74985H30.7501C30.9092 9.74985 31.0618 9.81307 31.1744 9.92559C31.2869 10.0381 31.3501 10.1907 31.3501 10.3499C31.3501 10.4999 31.3501 10.5749 31.2001 10.7249L30.7501 10.8749H30.0001L30.0751 10.9499ZM28.2751 13.8749L28.8751 10.8749H27.0751L26.5501 13.8749H28.2751Z" fill="white"/>
<defs>
<linearGradient id="paint0_linear" x1="-3.80512e-07" y1="12.1384" x2="29.4634" y2="36.4405" gradientUnits="userSpaceOnUse">
<stop stop-color="#4A79F1"/>
<stop offset="1" stop-color="#3DE6FF"/>
</linearGradient>
</defs>
</svg>
