<svg width="45" height="36" viewBox="0 0 45 36" fill="none" xmlns="http://www.w3.org/2000/svg">
<mask id="mask0" mask-type="alpha" maskUnits="userSpaceOnUse" x="5" y="0" width="40" height="36">
<path d="M41.7136 13.6719L43.7761 17.2443C44.0745 17.7611 44.1554 18.3752 44.0009 18.9516C43.8465 19.528 43.4694 20.0195 42.9526 20.3178L18.076 34.6803C17.5592 34.9787 16.9451 35.0596 16.3687 34.9051C15.7923 34.7507 15.3008 34.3736 15.0024 33.8568L12.9399 30.2844C13.7471 29.5466 14.2781 28.5553 14.4452 27.4746C14.6122 26.3939 14.4052 25.2885 13.8584 24.3415C13.3116 23.3945 12.4579 22.6625 11.4384 22.2668C10.419 21.8711 9.29497 21.8353 8.25244 22.1654L6.18994 18.5931C5.89157 18.0763 5.81072 17.4621 5.96517 16.8857C6.11961 16.3093 6.49671 15.8179 7.0135 15.5195L31.8901 1.15703C32.4069 0.858662 33.021 0.777807 33.5974 0.932253C34.1738 1.0867 34.6653 1.4638 34.9636 1.98059L37.0261 5.55294C36.219 6.29074 35.6879 7.28203 35.5209 8.36275C35.3539 9.44348 35.5609 10.5488 36.1077 11.4959C36.6545 12.4429 37.5082 13.1749 38.5277 13.5706C39.5471 13.9663 40.6711 14.0021 41.7136 13.6719Z" fill="white"/>
</mask>
<g mask="url(#mask0)">
<path d="M41.7136 13.6719L43.7761 17.2443C44.0745 17.7611 44.1554 18.3752 44.0009 18.9516C43.8465 19.528 43.4694 20.0195 42.9526 20.3178L18.076 34.6803C17.5592 34.9787 16.9451 35.0596 16.3687 34.9051C15.7923 34.7507 15.3008 34.3736 15.0024 33.8568L12.9399 30.2844C13.7471 29.5466 14.2781 28.5553 14.4452 27.4746C14.6122 26.3939 14.4052 25.2885 13.8584 24.3415C13.3116 23.3945 12.4579 22.6625 11.4384 22.2668C10.419 21.8711 9.29497 21.8353 8.25244 22.1654L6.18994 18.5931C5.89157 18.0763 5.81072 17.4621 5.96517 16.8857C6.11961 16.3093 6.49671 15.8179 7.0135 15.5195L31.8901 1.15703C32.4069 0.858662 33.021 0.777805 33.5974 0.932253C34.1738 1.0867 34.6653 1.4638 34.9636 1.98059L37.0261 5.55294C36.219 6.29074 35.6879 7.28203 35.5209 8.36275C35.3539 9.44348 35.5609 10.5488 36.1077 11.4959C36.6545 12.4429 37.5082 13.1749 38.5277 13.5706C39.5471 13.9663 40.6711 14.0021 41.7136 13.6719Z" fill="url(#paint0_linear)"/>
<path opacity="0.2" d="M18.3253 28.9499C23.9171 25.7215 25.833 18.5713 22.6046 12.9795C19.3761 7.38765 12.2259 5.47176 6.63413 8.70019C1.04233 11.9286 -0.873564 19.0788 2.35487 24.6706C5.58329 30.2624 12.7335 32.1783 18.3253 28.9499Z" fill="#00084F"/>
<path d="M24.1758 4.74506L35.9883 25.2049" stroke="#3A61CD" stroke-width="2" stroke-linecap="round" stroke-linejoin="round"/>
</g>
<path d="M19.4121 17.1946L23.1621 23.6898M23.2443 14.9821L26.9943 21.4773L23.2443 14.9821Z" stroke="white" stroke-width="1.5" stroke-linecap="round" stroke-linejoin="round"/>
<path d="M11.7495 25.874C18.1005 25.874 23.249 20.7255 23.249 14.3745C23.249 8.02351 18.1005 2.875 11.7495 2.875C5.39851 2.875 0.25 8.02351 0.25 14.3745C0.25 20.7255 5.39851 25.874 11.7495 25.874Z" fill="#26DBF8"/>
<path d="M8.2002 14.8749L10.7502 17.3499L15.2502 12.8499" stroke="white" stroke-width="2" stroke-linecap="round" stroke-linejoin="round"/>
<defs>
<linearGradient id="paint0_linear" x1="23.3377" y1="10.0693" x2="36.9268" y2="22.9304" gradientUnits="userSpaceOnUse">
<stop stop-color="#4A79F1"/>
<stop offset="1" stop-color="#3DE6FF"/>
</linearGradient>
</defs>
</svg>
