<svg width="42" height="32" viewBox="0 0 42 32" fill="none" xmlns="http://www.w3.org/2000/svg">
<mask id="mask0" mask-type="alpha" maskUnits="userSpaceOnUse" x="0" y="0" width="37" height="29">
<path d="M4.75 0.125244H31.525C32.7185 0.125244 33.8631 0.59935 34.707 1.44326C35.5509 2.28718 36.025 3.43177 36.025 4.62524V23.7502C36.025 24.9437 35.5509 26.0883 34.707 26.9322C33.8631 27.7761 32.7185 28.2502 31.525 28.2502H4.75C3.55653 28.2502 2.41193 27.7761 1.56802 26.9322C0.724106 26.0883 0.25 24.9437 0.25 23.7502L0.25 4.62524C0.25 3.43177 0.724106 2.28718 1.56802 1.44326C2.41193 0.59935 3.55653 0.125244 4.75 0.125244V0.125244Z" fill="white"/>
</mask>
<g mask="url(#mask0)">
<path d="M4.75 0.125244H31.525C32.7185 0.125244 33.8631 0.59935 34.707 1.44326C35.5509 2.28718 36.025 3.43177 36.025 4.62524V23.7502C36.025 24.9437 35.5509 26.0883 34.707 26.9322C33.8631 27.7761 32.7185 28.2502 31.525 28.2502H4.75C3.55653 28.2502 2.41193 27.7761 1.56802 26.9322C0.724106 26.0883 0.25 24.9437 0.25 23.7502L0.25 4.62524C0.25 3.43177 0.724106 2.28718 1.56802 1.44326C2.41193 0.59935 3.55653 0.125244 4.75 0.125244V0.125244Z" fill="url(#paint0_linear)"/>
<path fill-rule="evenodd" clip-rule="evenodd" d="M0.25 5.89978H36.025V11.0748H0.25V5.89978Z" fill="#3A61CD"/>
<path opacity="0.2" d="M26.1912 33.2573C32.648 33.2573 37.8824 28.023 37.8824 21.5661C37.8824 15.1093 32.648 9.87494 26.1912 9.87494C19.7343 9.87494 14.5 15.1093 14.5 21.5661C14.5 28.023 19.7343 33.2573 26.1912 33.2573Z" fill="#00084F"/>
<path d="M6.3252 21.1249H12.3252M6.3252 16.9249H14.0502H6.3252Z" stroke="white" stroke-width="1.5" stroke-linecap="round" stroke-linejoin="round"/>
</g>
<path d="M30.096 31.6922C36.2242 31.6922 41.1921 26.7243 41.1921 20.5961C41.1921 14.468 36.2242 9.50012 30.096 9.50012C23.9679 9.50012 19 14.468 19 20.5961C19 26.7243 23.9679 31.6922 30.096 31.6922Z" fill="#26DBF8"/>
<path d="M33.47 18.6875C33.3432 17.6345 32.4104 17.3409 31.2991 17.2504L31.2007 15.7239L30.3649 15.7925L30.3521 17.1936L29.6613 17.2234L29.6741 15.8224L28.7466 15.838L28.8256 17.2921L28.2072 17.3025L26.9705 17.3233L26.9861 18.2508L27.6769 18.221C27.9861 18.2158 28.1168 18.4137 28.175 18.6311L28.2204 20.2495L28.2232 22.5781C28.262 22.723 28.1559 22.9067 27.9192 22.8925L27.3008 22.9029L27.1185 23.9611L28.2828 23.9597L28.9012 23.9493L28.9272 25.4953L29.8354 25.4072L29.7563 23.9531L30.539 23.9764L30.5262 25.3774L31.3813 25.3812L31.3747 23.9077C32.9012 23.8093 33.8766 23.3926 33.9813 22.0446C34.1248 20.8415 33.5349 20.3784 32.7134 20.2103C33.2541 19.9101 33.5193 19.4508 33.47 18.6875ZM32.1598 21.9115C32.2142 22.984 30.3203 22.8703 29.7019 22.8807L29.6513 20.9531C30.2697 20.9427 32.1584 20.7472 32.2128 21.8196L32.1598 21.9115ZM31.7314 19.1534C31.7664 20.1534 30.1816 20.0345 29.6551 20.098L29.6433 18.3153C30.1698 18.2518 31.6769 18.081 31.7314 19.1534Z" fill="white"/>
<defs>
<linearGradient id="paint0_linear" x1="0.25" y1="5.49281" x2="30.4192" y2="30.6557" gradientUnits="userSpaceOnUse">
<stop stop-color="#4A79F1"/>
<stop offset="1" stop-color="#3DE6FF"/>
</linearGradient>
</defs>
</svg>
