<svg width="42" height="32" viewBox="0 0 42 32" fill="none" xmlns="http://www.w3.org/2000/svg">
<mask id="mask0" mask-type="alpha" maskUnits="userSpaceOnUse" x="0" y="0" width="37" height="29">
<path d="M4.75 0.375244H31.525C32.7185 0.375244 33.8631 0.84935 34.707 1.69326C35.5509 2.53718 36.025 3.68177 36.025 4.87524V24.0002C36.025 25.1937 35.5509 26.3383 34.707 27.1822C33.8631 28.0261 32.7185 28.5002 31.525 28.5002H4.75C3.55653 28.5002 2.41193 28.0261 1.56802 27.1822C0.724106 26.3383 0.25 25.1937 0.25 24.0002L0.25 4.87524C0.25 3.68177 0.724106 2.53718 1.56802 1.69326C2.41193 0.84935 3.55653 0.375244 4.75 0.375244V0.375244Z" fill="white"/>
</mask>
<g mask="url(#mask0)">
<path d="M4.75 0.375244H31.525C32.7185 0.375244 33.8631 0.84935 34.707 1.69326C35.5509 2.53718 36.025 3.68177 36.025 4.87524V24.0002C36.025 25.1937 35.5509 26.3383 34.707 27.1822C33.8631 28.0261 32.7185 28.5002 31.525 28.5002H4.75C3.55653 28.5002 2.41193 28.0261 1.56802 27.1822C0.724106 26.3383 0.25 25.1937 0.25 24.0002L0.25 4.87524C0.25 3.68177 0.724106 2.53718 1.56802 1.69326C2.41193 0.84935 3.55653 0.375244 4.75 0.375244V0.375244Z" fill="url(#paint0_linear)"/>
<path fill-rule="evenodd" clip-rule="evenodd" d="M0.25 6.15015H36.025V11.3251H0.25V6.15015Z" fill="#3A61CD"/>
<path opacity="0.2" d="M26.1912 33.5074C32.648 33.5074 37.8824 28.273 37.8824 21.8162C37.8824 15.3593 32.648 10.125 26.1912 10.125C19.7343 10.125 14.5 15.3593 14.5 21.8162C14.5 28.273 19.7343 33.5074 26.1912 33.5074Z" fill="#00084F"/>
<path d="M6.32471 21.3749H12.3247M6.32471 17.1749H14.0497H6.32471Z" stroke="white" stroke-width="1.5" stroke-linecap="round" stroke-linejoin="round"/>
</g>
<path d="M30.096 31.9422C36.2242 31.9422 41.1921 26.9743 41.1921 20.8461C41.1921 14.718 36.2242 9.75012 30.096 9.75012C23.9679 9.75012 19 14.718 19 20.8461C19 26.9743 23.9679 31.9422 30.096 31.9422Z" fill="#26DBF8"/>
<path d="M25.9751 20.85H34.2251" stroke="white" stroke-width="1.5" stroke-linecap="round" stroke-linejoin="round"/>
<path d="M31.8252 18.4498L34.2252 20.7748L31.8252 23.3248" stroke="white" stroke-width="2" stroke-linecap="round" stroke-linejoin="round"/>
<defs>
<linearGradient id="paint0_linear" x1="0.25" y1="5.74281" x2="30.4192" y2="30.9057" gradientUnits="userSpaceOnUse">
<stop stop-color="#4A79F1"/>
<stop offset="1" stop-color="#3DE6FF"/>
</linearGradient>
</defs>
</svg>
