<svg width="32" height="41" viewBox="0 0 32 41" fill="none" xmlns="http://www.w3.org/2000/svg">
<mask id="mask0" mask-type="alpha" maskUnits="userSpaceOnUse" x="4" y="4" width="28" height="34">
<path d="M28.3417 4.41138H8.12107C6.10071 4.41138 4.46289 6.08038 4.46289 8.13921V33.914C4.46289 35.9728 6.10071 37.6418 8.12107 37.6418H28.3417C30.3621 37.6418 31.9999 35.9728 31.9999 33.914V8.13921C31.9999 6.08038 30.3621 4.41138 28.3417 4.41138Z" fill="white"/>
</mask>
<g mask="url(#mask0)">
<path d="M28.3417 4.41138H8.12107C6.10071 4.41138 4.46289 6.08038 4.46289 8.13921V33.914C4.46289 35.9728 6.10071 37.6418 8.12107 37.6418H28.3417C30.3621 37.6418 31.9999 35.9728 31.9999 33.914V8.13921C31.9999 6.08038 30.3621 4.41138 28.3417 4.41138Z" fill="url(#paint0_linear)"/>
<path opacity="0.2" d="M13.1051 43.5695C19.4039 43.5695 24.51 38.3662 24.51 31.9475C24.51 25.5288 19.4039 20.3254 13.1051 20.3254C6.80635 20.3254 1.7002 25.5288 1.7002 31.9475C1.7002 38.3662 6.80635 43.5695 13.1051 43.5695Z" fill="#00084F"/>
</g>
<path d="M10.3892 22.3049L11.6329 23.5723L13.8279 21.3356M17.8519 30.5806H25.8267H17.8519ZM10.3892 29.9842L11.6329 31.1771L13.8279 28.9404L10.3892 29.9842ZM17.8519 22.9013H25.8267H17.8519Z" stroke="white" stroke-width="1.5" stroke-linecap="round" stroke-linejoin="round"/>
<path d="M10.3892 14.6256L11.6329 15.8931L13.8279 13.6564M17.8519 15.2966H25.8267H17.8519Z" stroke="white" stroke-width="1.5" stroke-linecap="round" stroke-linejoin="round"/>
<path fill-rule="evenodd" clip-rule="evenodd" d="M14.852 0.907227H21.6563C23.8512 0.907227 25.6803 2.77114 25.6803 5.08239C25.6803 7.31909 23.8512 9.25756 21.6563 9.25756H14.7789C12.584 9.25756 10.7549 7.39365 10.7549 5.08239C10.7549 2.77114 12.584 0.907227 14.7789 0.907227H14.852Z" fill="#2E4FB4"/>
<path d="M10.4443 40.9071C16.2125 40.9071 20.8886 36.142 20.8886 30.264C20.8886 24.3859 16.2125 19.6208 10.4443 19.6208C4.67607 19.6208 0 24.3859 0 30.264C0 36.142 4.67607 40.9071 10.4443 40.9071Z" fill="#26DBF8"/>
<path d="M7.31641 30.6553L9.51132 33.0411L13.6085 28.866" stroke="white" stroke-width="2" stroke-linecap="round" stroke-linejoin="round"/>
<defs>
<linearGradient id="paint0_linear" x1="12.2186" y1="7.46678" x2="32.8233" y2="36.2325" gradientUnits="userSpaceOnUse">
<stop stop-color="#4A79F1"/>
<stop offset="1" stop-color="#3DE6FF"/>
</linearGradient>
</defs>
</svg>
