<svg width="39" height="33" viewBox="0 0 39 33" fill="none" xmlns="http://www.w3.org/2000/svg">
<mask id="mask0" mask-type="alpha" maskUnits="userSpaceOnUse" x="5" y="5" width="34" height="28">
<path d="M9.875 5.04993H33.65C34.8435 5.04993 35.9881 5.52403 36.832 6.36795C37.6759 7.21186 38.15 8.35645 38.15 9.54993V27.9249C38.15 29.1184 37.6759 30.263 36.832 31.1069C35.9881 31.9508 34.8435 32.4249 33.65 32.4249H9.875C8.68153 32.4249 7.53693 31.9508 6.69302 31.1069C5.84911 30.263 5.375 29.1184 5.375 27.9249V9.54993C5.375 8.35645 5.84911 7.21186 6.69302 6.36795C7.53693 5.52403 8.68153 5.04993 9.875 5.04993V5.04993Z" fill="white"/>
</mask>
<g mask="url(#mask0)">
<path d="M9.875 5.04993H33.65C34.8435 5.04993 35.9881 5.52403 36.832 6.36795C37.6759 7.21186 38.15 8.35645 38.15 9.54993V27.9249C38.15 29.1184 37.6759 30.263 36.832 31.1069C35.9881 31.9508 34.8435 32.4249 33.65 32.4249H9.875C8.68153 32.4249 7.53693 31.9508 6.69302 31.1069C5.84911 30.263 5.375 29.1184 5.375 27.9249V9.54993C5.375 8.35645 5.84911 7.21186 6.69302 6.36795C7.53693 5.52403 8.68153 5.04993 9.875 5.04993V5.04993Z" fill="url(#paint0_linear)"/>
<path d="M23 19H32.6M23 14.5H30.95H23ZM23 23.5H28.85H23Z" stroke="white" stroke-width="1.5" stroke-linecap="round" stroke-linejoin="round"/>
<path opacity="0.2" d="M15.9468 6.75745H3.5C1.42893 6.75745 -0.25 8.43638 -0.25 10.5074V22.9543C-0.25 25.0253 1.42893 26.7043 3.5 26.7043H15.9468C18.0179 26.7043 19.6968 25.0253 19.6968 22.9543V10.5074C19.6968 8.43638 18.0179 6.75745 15.9468 6.75745Z" fill="#00084F"/>
</g>
<path d="M16.3218 0.249756H3.875C1.80393 0.249756 0.125 1.92869 0.125 3.99976V16.4466C0.125 18.5176 1.80393 20.1966 3.875 20.1966H16.3218C18.3929 20.1966 20.0718 18.5176 20.0718 16.4466V3.99976C20.0718 1.92869 18.3929 0.249756 16.3218 0.249756Z" fill="#26DBF8"/>
<path d="M10.0234 10.2251C11.2661 10.2251 12.2734 9.21774 12.2734 7.9751C12.2734 6.73246 11.2661 5.7251 10.0234 5.7251C8.7808 5.7251 7.77344 6.73246 7.77344 7.9751C7.77344 9.21774 8.7808 10.2251 10.0234 10.2251Z" stroke="white" stroke-width="1.5" stroke-linecap="round" stroke-linejoin="round"/>
<path d="M13.7749 14.1251C13.7749 13.1306 13.3798 12.1767 12.6766 11.4735C11.9733 10.7702 11.0195 10.3751 10.0249 10.3751C9.03034 10.3751 8.07651 10.7702 7.37325 11.4735C6.66999 12.1767 6.2749 13.1306 6.2749 14.1251" stroke="white" stroke-width="1.5" stroke-linecap="round" stroke-linejoin="round"/>
<defs>
<linearGradient id="paint0_linear" x1="5.375" y1="9.18545" x2="33.7914" y2="34.3641" gradientUnits="userSpaceOnUse">
<stop stop-color="#4A79F1"/>
<stop offset="1" stop-color="#3DE6FF"/>
</linearGradient>
</defs>
</svg>
