<?xml version="1.0" encoding="utf-8"?>
<!-- Generator: Adobe Illustrator 22.1.0, SVG Export Plug-In . SVG Version: 6.00 Build 0)  -->
<svg version="1.1" id="Слой_1" xmlns="http://www.w3.org/2000/svg" xmlns:xlink="http://www.w3.org/1999/xlink" x="0px" y="0px"
	 viewBox="0 0 730 266" style="enable-background:new 0 0 730 266;" xml:space="preserve">
<style type="text/css">
	.st0{fill:#FFFFFF;}
	.st1{fill:#9965EB;}
	.st2{display:none;opacity:0.64;fill:none;stroke:#000000;stroke-width:3;enable-background:new    ;}
	.st3{display:none;opacity:0.64;fill:#FFFFFF;enable-background:new    ;}
	.st4{font-family:'ArialMT';}
	.st5{font-size:142px;}
	.st6{letter-spacing:-4;}
	.st7{fill:none;}
</style>
<rect x="419.4" y="60.3" class="st0" width="230.6" height="140.8"/>
<g>
	<g>
		<path class="st1" d="M508.4,173.6h-15.8L456.7,110v63.5h-15.8V80.9h15.8l35.8,63.7V80.9h15.8V173.6z"/>
		<path class="st1" d="M565.6,81v15h-32.9v23.7H558v14.7h-25.2v39.1h-15.8V81H565.6z"/>
		<path class="st1" d="M630.5,81v15h-21v77.6h-15.8V96h-21V81H630.5z"/>
	</g>
</g>
<g>
	<path class="st0" d="M57.4,175.6V80.7h26.4c9.2,0,16.3,1.1,21.4,3.2c5.2,2,8.8,5.3,10.9,9.7c2.1,4.4,3.2,10,3.2,16.9v34.6
		c0,7-1.1,12.8-3.2,17.3s-5.7,7.9-10.8,10.1c-5,2.1-12,3.2-21,3.2H57.4V175.6z M79.4,162.1h4.7c4.1,0,7-0.5,8.7-1.6
		c1.8-1.2,2.9-2.9,3.3-5c0.4-2.3,0.7-5,0.7-8.3v-39.1c0-3.3-0.3-5.9-0.9-7.8c-0.5-2-1.7-3.5-3.5-4.5c-1.7-0.9-4.5-1.4-8.4-1.4h-4.6
		V162.1z"/>
	<path class="st0" d="M157,176.8c-5.7,0-10.5-0.9-14.3-2.7c-3.8-1.9-6.7-4.6-8.7-8.1c-2-3.6-2.9-7.9-2.9-12.9v-22.7
		c0-5.2,1-9.5,2.9-12.9c2-3.5,4.9-6.2,8.8-8c3.9-1.9,8.6-2.8,14.1-2.8c5.9,0,10.6,0.9,14.3,2.8c3.6,1.9,6.3,4.6,8,8.2
		c1.8,3.6,2.7,8,2.7,13.1v11.9h-31v13.1c0,2,0.2,3.6,0.7,4.8c0.5,1.3,1.2,2.1,2.1,2.7c0.9,0.5,2,0.7,3.3,0.7c1.2,0,2.3-0.2,3.2-0.7
		c1-0.5,1.7-1.4,2.1-2.5c0.4-1.1,0.7-2.5,0.7-4.3v-6.4h18.7v5.6c0,6.9-2.1,12.1-6.4,15.7C171.1,175,165,176.8,157,176.8z M151,134.2
		h12.1v-6.7c0-2-0.2-3.5-0.7-4.7c-0.4-1.3-1.2-2.1-2.1-2.6c-0.9-0.5-2-0.8-3.5-0.8c-1.3,0-2.4,0.3-3.3,0.8c-0.8,0.5-1.4,1.5-1.9,2.9
		c-0.4,1.3-0.7,3.2-0.7,5.7L151,134.2L151,134.2z"/>
	<path class="st0" d="M209.4,176.8c-3.6,0-6.8-0.8-9.5-2.5c-2.6-1.6-4.5-3.7-5.9-6.2c-1.3-2.5-2-5.1-2-7.7c0-4.2,0.9-7.8,2.8-10.7
		c1.9-2.9,4.3-5.3,7.3-7.3s6.4-3.6,10.1-5c3.7-1.4,7.5-2.7,11.2-3.9v-6.3c0-1.5-0.1-2.8-0.4-3.9c-0.3-1.1-0.8-1.9-1.6-2.5
		c-0.7-0.6-1.8-0.9-3.2-0.9s-2.5,0.3-3.3,0.8c-0.7,0.5-1.2,1.2-1.6,2.2c-0.3,0.9-0.4,2-0.5,3.2l-0.4,4.7l-19.1-0.7
		c0.4-8,2.8-13.9,7.1-17.7c4.4-3.8,10.9-5.7,19.6-5.7c7.8,0,13.6,1.9,17.3,5.7c3.7,3.8,5.6,8.7,5.6,14.9v31.5c0,2.7,0,5,0.1,7.1
		c0.2,2,0.4,3.9,0.5,5.5c0.3,1.6,0.5,2.9,0.7,4.1h-18.1c-0.3-1.7-0.6-3.6-0.9-5.6c-0.4-2-0.6-3.4-0.8-4.1c-0.9,2.8-2.6,5.4-5.1,7.6
		C216.9,175.7,213.6,176.8,209.4,176.8z M216.8,164.2c1,0,1.9-0.2,2.8-0.6c0.9-0.4,1.6-0.9,2.3-1.5s1.3-1.2,1.7-1.8v-18.6
		c-1.9,1-3.6,2-5.2,3c-1.6,0.9-3,2-4.1,3.2c-1.2,1.2-2,2.5-2.7,3.9c-0.6,1.4-0.9,3-0.9,4.8c0,2.3,0.5,4.2,1.6,5.6
		C213.3,163.6,214.8,164.2,216.8,164.2z"/>
	<path class="st0" d="M257,194.2V97.3l20.2-16.6v96.9L257,194.2z"/>
	<path class="st0" d="M292.2,194.2V97.3l20.2-16.6v96.9L292.2,194.2z"/>
	<path class="st0" d="M327.8,194.7v-12.4c2.9,0,5.3-0.2,7.2-0.5c1.9-0.3,3.2-0.9,4.1-1.8c1-0.8,1.5-1.9,1.5-3.4
		c0-1.2-0.3-2.8-0.9-4.8c-0.5-2-1.2-4.3-1.9-6.8l-17.6-57.2h19.1l9.9,41.6l8-41.6h19.2l-17.9,69.9c-1.1,4.4-2.8,7.8-5.3,10.2
		c-2.4,2.5-5.4,4.3-8.9,5.3s-7.5,1.5-12.1,1.5H327.8z"/>
</g>
<path class="st2" d="M475.2,74h-2v2v50.8L444.3,75l-0.6-1h-1.2H428h-2v2v96v2h2h19.2h2v-2v-51l28.8,52l0.6,1h1.2h14.6h2v-2V76v-2h-2
	H475.2z M570.5,96.1h2v-2V76v-2h-2h-58.1h-2v2v96v2h2h19.2h2v-2v-35h35.8h2v-2v-18.1v-2h-2h-35.8V96.1H570.5z M655,76v-2h-1.9h-67.8
	h-1.9v2v18.1v2h1.9h22.9V172v2h1.9h18.2h1.9v-2V96.1h23h1.9v-2V76H655z"/>
<text transform="matrix(1 0 0 1 395.3354 171.8184)" class="st3 st4 st5 st6">NF</text>
<rect x="700" y="16" class="st7" width="6" height="1"/>
</svg>
