<svg width="1920" height="1050" viewBox="0 0 1920 1050" fill="none" xmlns="http://www.w3.org/2000/svg">
<path opacity="0.05" d="M1607 781.5C1607 774.596 1601.4 769 1594.5 769C1587.6 769 1582 774.596 1582 781.5L1607 781.5ZM1607 1050L1607 781.5L1582 781.5L1582 1050L1607 1050Z" fill="#EEEEEE"/>
<path opacity="0.05" d="M1756.5 189L1756.5 82.5" stroke="#EEEEEE" stroke-width="25" stroke-linecap="round" stroke-linejoin="round"/>
<path opacity="0.05" d="M319.5 633L319.5 580.5" stroke="#EEEEEE" stroke-width="25" stroke-linecap="round" stroke-linejoin="round"/>
<path opacity="0.05" d="M1596 423L1596 235.5" stroke="#EEEEEE" stroke-width="25" stroke-linecap="round" stroke-linejoin="round"/>
<path opacity="0.05" d="M121.5 328.5L121.5 141" stroke="#EEEEEE" stroke-width="25" stroke-linecap="round" stroke-linejoin="round"/>
<path opacity="0.05" d="M134 780C134 773.096 128.404 767.5 121.5 767.5C114.596 767.5 109 773.096 109 780L134 780ZM134 1050L134 780L109 780L109 1050L134 1050Z" fill="#EEEEEE"/>
<path opacity="0.05" d="M1769 922.5C1769 915.596 1763.4 910 1756.5 910C1749.6 910 1744 915.596 1744 922.5L1769 922.5ZM1769 1050L1769 922.5L1744 922.5L1744 1050L1769 1050Z" fill="#EEEEEE"/>
<path opacity="0.05" d="M1269.5 987C1269.5 980.096 1263.9 974.5 1257 974.5C1250.1 974.5 1244.5 980.096 1244.5 987L1269.5 987ZM1269.5 1050L1269.5 987L1244.5 987L1244.5 1050L1269.5 1050Z" fill="#EEEEEE"/>
<path opacity="0.05" d="M1244.5 114C1244.5 120.904 1250.1 126.5 1257 126.5C1263.9 126.5 1269.5 120.904 1269.5 114H1244.5ZM1244.5 15V114H1269.5V15L1244.5 15Z" fill="#EEEEEE"/>
<path opacity="0.05" d="M799 145.5C799 152.404 804.596 158 811.5 158C818.404 158 824 152.404 824 145.5H799ZM799 0V145.5H824V0L799 0Z" fill="#EEEEEE"/>
<path opacity="0.05" d="M332 922.5C332 915.596 326.404 910 319.5 910C312.596 910 307 915.596 307 922.5L332 922.5ZM332 1050L332 922.5L307 922.5L307 1050L332 1050Z" fill="#EEEEEE"/>
</svg>
