<svg width="0" height="0" display="none" xmlns="http://www.w3.org/2000/svg">
<symbol id="blockchain" viewBox="0 0 63 62"><path d="M41.89 21.068a3.416 3.416 0 00-1.754-.017l-1.915-3.36-1.604.921 1.915 3.36c-.414.42-.716.941-.875 1.527a3.45 3.45 0 00.335 2.627l.96 1.687a3.46 3.46 0 002.998 1.744c.285 0 .568-.036.844-.107l.377.66a3.477 3.477 0 00-.542 4.154l.961 1.686a3.428 3.428 0 002.088 1.621 3.443 3.443 0 001.754.017l1.928 3.384 1.605-.92-1.93-3.386a3.477 3.477 0 00.541-4.153l-.96-1.687a3.449 3.449 0 00-3.841-1.636l-.377-.66c.414-.42.716-.942.874-1.527a3.45 3.45 0 00-.334-2.628l-.96-1.686a3.425 3.425 0 00-2.088-1.621zm5.121 10.68l.961 1.686c.268.469.272 1.018.062 1.474l-.538-.942-1.603.921.537.943a1.608 1.608 0 01-1.236-.801l-.96-1.686a1.611 1.611 0 01-.062-1.475l.55.966 1.605-.92-.551-.968a1.6 1.6 0 011.235.801zm-4.152-5.92l-1.604.922.537.943a1.59 1.59 0 01-1.236-.801l-.96-1.687a1.6 1.6 0 01-.063-1.476l.552.968 1.604-.921-.551-.967c.499.049.968.332 1.235.8l.961 1.687a1.6 1.6 0 01.063 1.476l-.538-.943zM13.688 40.972l1.93-3.385a3.447 3.447 0 003.84-1.637l.962-1.686a3.452 3.452 0 00.334-2.628 3.446 3.446 0 00-.875-1.526l.377-.66a3.448 3.448 0 003.84-1.637l.962-1.687a3.477 3.477 0 00-.541-4.152l1.916-3.362-1.604-.92-1.916 3.36a3.449 3.449 0 00-3.841 1.637l-.961 1.686a3.477 3.477 0 00.541 4.153l-.377.66a3.416 3.416 0 00-1.753.017 3.428 3.428 0 00-2.088 1.62l-.96 1.687a3.478 3.478 0 00.54 4.154l-1.93 3.385 1.604.921zm5.872-14.456a1.602 1.602 0 01.155-1.22l.96-1.686a1.6 1.6 0 011.236-.8l-.55.966 1.604.921.55-.967a1.61 1.61 0 01-.061 1.475l-.96 1.687a1.6 1.6 0 01-1.237.8l.537-.942-1.604-.921-.537.943a1.613 1.613 0 01-.093-.256zm-4.483 6.918l.961-1.687a1.59 1.59 0 011.236-.801l-.552.967 1.604.921.551-.966a1.611 1.611 0 01-.06 1.475l-.962 1.686c-.267.47-.736.752-1.236.8l.537-.941-1.603-.922-.537.943a1.61 1.61 0 01.061-1.475zM40.8 50.733l3.857-.011-.005-1.856-3.858.011a3.456 3.456 0 00-3.32-2.524h-.01l-1.935.006a3.456 3.456 0 00-3.315 2.543l-.758.002a3.44 3.44 0 00-.89-1.517 3.42 3.42 0 00-2.431-1.007h-.01l-1.935.005a3.419 3.419 0 00-2.435 1.021c-.427.43-.727.953-.881 1.523l-3.885.011.005 1.855 3.886-.011a3.456 3.456 0 003.32 2.524h.01l1.934-.006a3.42 3.42 0 002.436-1.02 3.45 3.45 0 00.881-1.523l.757-.002c.158.569.461 1.09.89 1.518a3.418 3.418 0 002.43 1.006h.01l1.936-.005a3.42 3.42 0 002.435-1.021c.426-.43.726-.953.882-1.522zm-11.53.24a1.586 1.586 0 01-1.13.475l-1.935.005H26.2a1.597 1.597 0 01-1.303-.675l1.081-.003-.005-1.855-1.083.003a1.586 1.586 0 011.305-.683l1.935-.005h.005a1.585 1.585 0 011.304.675l-1.11.003.005 1.855 1.11-.003c-.051.074-.11.144-.174.209zm8.209.448l-1.935.005h-.005a1.587 1.587 0 01-1.304-.675l1.082-.003-.005-1.855-1.081.003a1.6 1.6 0 011.303-.682l1.936-.006h.004c.537 0 1.013.267 1.303.675l-1.109.004.005 1.854 1.11-.003a1.587 1.587 0 01-1.305.682zM32.448 25.544V15.272l8.863-5.137-.924-1.606-8.862 5.136-8.863-5.136-.924 1.606 8.863 5.137v10.272h1.847z"/><path d="M59.144 41.053l-8.86 5.14-8.866-5.132-.924 1.607 8.867 5.133.004 10.273 1.848-.001-.004-10.273 8.86-5.141-.925-1.606zM13.637 58.007V47.734l8.862-5.136-.923-1.606-8.863 5.136-8.863-5.136-.924 1.606 8.863 5.136v10.273h1.848zM20.66 8.439l10.864-6.297L42.39 8.439v11.543h1.848V7.368L31.524 0 18.812 7.368v12.614h1.848V8.439zM31.524 29.47l5.104-2.957-.924-1.606-4.18 2.422-4.18-2.423-.924 1.606 5.104 2.959z"/><path d="M12.713 59.793L1.848 53.496V40.901l10.093-5.85-.924-1.606L0 39.83v14.736l12.713 7.367 11.732-6.8-.923-1.606-10.81 6.265zM25.425 45.136v-5.305l-4.96-2.875-.924 1.607 4.036 2.339v4.234h1.848zM62.993 39.89L52.03 33.544l-.924 1.607 10.039 5.811.006 12.594-10.862 6.302L39.67 53.71l-.924 1.607L50.291 62 63 54.626l-.007-14.735zM42.606 36.98l-5.038 2.923.002 5.01h1.848l-.002-3.94 4.115-2.388-.925-1.605zM25.725 9.087L24.8 7.482l1.599-.93.927 1.605-1.6.93zm10.966-.38l-5.166-2.995-.47.274-.927-1.605 1.395-.812 6.093 3.53-.925 1.607zm-8.3-1.17l-.927-1.606 1.599-.93.926 1.605-1.599.93z"/><path d="M53.83 56.376l-.925-1.606 5.165-2.997-.001-.546 1.848-.004.003 1.619-6.09 3.534zm4.236-6.386l-.004-1.855 1.848-.004.004 1.855-1.848.004zM58.06 46.9l-.003-1.855 1.848-.004.003 1.854-1.848.005zM9.818 56.672l-6.738-3.89v-1.94h1.848v.868l5.81 3.355-.92 1.607zM3.08 49.606V47.75h1.848v1.855H3.08zm1.848-3.092H3.08v-1.855h1.848v1.855z"/></symbol>
<symbol id="clock" viewBox="0 0 74 59"><path d="M47.027 52.41c11.22 0 20.348-9.08 20.348-20.24 0-11.161-9.128-20.241-20.348-20.241-11.22 0-20.348 9.08-20.348 20.24 0 11.161 9.128 20.24 20.348 20.24zm-15.15-21.325h-2.985a17.95 17.95 0 014.547-10.898l2.104 2.093c.213.211.492.317.77.317.28 0 .559-.106.772-.317a1.08 1.08 0 000-1.534l-2.104-2.093a18.144 18.144 0 0110.956-4.522v2.968c0 .599.488 1.084 1.09 1.084.602 0 1.09-.485 1.09-1.084v-2.968a18.144 18.144 0 0110.956 4.522l-2.105 2.093a1.08 1.08 0 000 1.534 1.09 1.09 0 001.542 0l2.104-2.093a17.95 17.95 0 014.547 10.898h-2.984c-.602 0-1.09.485-1.09 1.084 0 .599.487 1.084 1.09 1.084h2.984a17.949 17.949 0 01-4.547 10.898L58.51 42.06a1.094 1.094 0 00-1.541 0 1.08 1.08 0 000 1.533l2.103 2.093a18.143 18.143 0 01-10.955 4.523v-2.969c0-.598-.488-1.084-1.09-1.084-.602 0-1.09.486-1.09 1.084v2.969a18.143 18.143 0 01-10.956-4.523l2.104-2.093a1.08 1.08 0 000-1.533 1.094 1.094 0 00-1.542 0l-2.104 2.093a17.95 17.95 0 01-4.547-10.899h2.985c.601 0 1.09-.485 1.09-1.084 0-.599-.489-1.084-1.09-1.084z"/><path d="M60.244 53.038a24.814 24.814 0 01-13.217 3.793c-13.671 0-24.793-11.063-24.793-24.662a24.344 24.344 0 015.156-15.06 1.08 1.08 0 00-.196-1.52 1.094 1.094 0 00-1.53.195c-3.67 4.73-5.61 10.395-5.61 16.385 0 14.795 12.1 26.83 26.973 26.83a27.001 27.001 0 0014.38-4.127c.51-.32.662-.99.34-1.496a1.094 1.094 0 00-1.503-.337zM53.6 6.145v-4.11A2.043 2.043 0 0051.556 0h-9.057a2.043 2.043 0 00-2.045 2.035v4.11a26.933 26.933 0 00-11.704 6.292 1.08 1.08 0 00-.063 1.532c.408.44 1.098.469 1.54.063a24.791 24.791 0 0116.8-6.526c13.672 0 24.794 11.064 24.794 24.663a24.65 24.65 0 01-8.213 18.337 1.08 1.08 0 00-.081 1.531 1.09 1.09 0 001.54.08A26.818 26.818 0 0074 32.17c0-12.54-8.693-23.096-20.4-26.024zm-10.967-.451V2.169h8.788v3.527a27.177 27.177 0 00-8.788-.002z"/><path d="M47.027 32.928c.409 0 .765-.224.951-.556l3.76-3.74a1.08 1.08 0 000-1.534 1.094 1.094 0 00-1.541 0l-2.08 2.07v-5.281c0-.599-.488-1.085-1.09-1.085-.602 0-1.09.486-1.09 1.085v7.956c0 .6.488 1.085 1.09 1.085zM16.086 32.414c0-.6-.488-1.085-1.09-1.085H1.09c-.602 0-1.09.486-1.09 1.085s.488 1.084 1.09 1.084h13.905c.603 0 1.09-.485 1.09-1.084zM5.438 27.183h11.011c.602 0 1.09-.485 1.09-1.084 0-.599-.488-1.084-1.09-1.084H5.438c-.602 0-1.09.485-1.09 1.084 0 .599.488 1.084 1.09 1.084zM17.902 18.7h-9.03c-.602 0-1.09.486-1.09 1.085 0 .598.488 1.084 1.09 1.084h9.03c.602 0 1.09-.486 1.09-1.084 0-.6-.488-1.085-1.09-1.085zM17.539 38.24c0-.6-.488-1.085-1.09-1.085H5.438c-.602 0-1.09.485-1.09 1.084 0 .599.488 1.084 1.09 1.084h11.011c.602 0 1.09-.485 1.09-1.084zM17.902 43.47h-9.03c-.602 0-1.09.485-1.09 1.084 0 .599.488 1.084 1.09 1.084h9.03c.602 0 1.09-.485 1.09-1.084 0-.599-.488-1.085-1.09-1.085z"/></symbol>
<symbol id="credit-card" viewBox="0 0 34 24"><path d="M30.281 0H3.72C1.669 0 0 1.713 0 3.818v16.364C0 22.287 1.668 24 3.719 24H30.28C32.331 24 34 22.287 34 20.182V3.818C34 1.713 32.332 0 30.281 0zM3.72 2.182H30.28c.879 0 1.594.734 1.594 1.636V6H2.125V3.818c0-.902.715-1.636 1.594-1.636zM30.28 21.818H3.72c-.879 0-1.594-.734-1.594-1.636v-12h29.75v12c0 .902-.715 1.636-1.594 1.636z"/><path d="M7.438 18.545H6.375c-.587 0-1.063-.488-1.063-1.09v-1.092c0-.602.476-1.09 1.063-1.09h1.063c.586 0 1.062.488 1.062 1.09v1.091c0 .603-.476 1.091-1.063 1.091z"/></symbol>
<symbol id="dly-graph" viewBox="0 0 56 65"><path d="M28.221 34.71c9.495 0 17.22-7.786 17.22-17.355C45.44 7.785 37.715 0 28.22 0S11.002 7.785 11.002 17.355 18.727 34.71 28.221 34.71zm0-32.802c8.45 0 15.326 6.93 15.326 15.447s-6.875 15.447-15.326 15.447c-8.45 0-15.326-6.93-15.326-15.447 0-8.518 6.875-15.447 15.326-15.447zM12.16 44.18a.943.943 0 00-1.38 0l-6.43 6.889a.96.96 0 00-.178 1.032c.15.349.49.575.868.575H6.9v3.464a.95.95 0 00.946.954.95.95 0 00.947-.954v-4.418a.95.95 0 00-.947-.954H7.23l4.24-4.543 4.24 4.543h-.615a.95.95 0 00-.947.954v11.37H8.792v-3.136a.95.95 0 00-.947-.954.95.95 0 00-.946.954v4.09a.95.95 0 00.946.954h7.25a.95.95 0 00.946-.954v-11.37h1.858a.946.946 0 00.87-.575.96.96 0 00-.18-1.032l-6.43-6.89zM28.91 37.616a.943.943 0 00-1.378 0l-6.43 6.89a.96.96 0 00-.18 1.032c.15.35.492.575.87.575h1.858v17.933a.95.95 0 00.947.954h7.249a.95.95 0 00.946-.954V46.113h1.859a.946.946 0 00.869-.575.96.96 0 00-.18-1.032l-6.43-6.89zm2.936 6.59a.95.95 0 00-.947.953v17.933h-5.356V45.16a.95.95 0 00-.947-.954h-.615l4.24-4.543 4.24 4.543h-.615zM45.662 31.543a.943.943 0 00-1.38 0l-6.429 6.89a.96.96 0 00-.18 1.032c.15.349.492.575.87.575H40.4v5.822a.95.95 0 00.946.954.95.95 0 00.947-.954v-6.776a.95.95 0 00-.947-.954h-.615l4.24-4.543 4.24 4.543h-.615a.95.95 0 00-.947.954v24.005h-5.356V49.678a.95.95 0 00-.947-.954.95.95 0 00-.946.954v14.368a.95.95 0 00.946.953h7.25a.95.95 0 00.946-.953V40.04h1.859a.946.946 0 00.868-.575.96.96 0 00-.18-1.033l-6.428-6.889zM7.445 17.697a.95.95 0 00-.947-.954H.947a.95.95 0 00-.947.954.95.95 0 00.947.954h5.551a.95.95 0 00.947-.954zM7.723 25.183l-1.975.78a.956.956 0 00.346 1.842.937.937 0 00.345-.066l1.974-.78a.956.956 0 00.536-1.235.944.944 0 00-1.226-.54zM5.748 9.43l1.975.78a.947.947 0 001.227-.54.956.956 0 00-.537-1.237l-1.974-.78a.944.944 0 00-1.227.54.956.956 0 00.536 1.237zM55.053 16.743h-5.551a.95.95 0 00-.947.954.95.95 0 00.947.954h5.551a.95.95 0 00.947-.954.95.95 0 00-.947-.954zM47.587 26.96l1.974.78a.947.947 0 001.227-.54.956.956 0 00-.536-1.237l-1.974-.78a.944.944 0 00-1.227.54.956.956 0 00.536 1.237zM47.932 10.275a.937.937 0 00.346-.066l1.974-.78a.956.956 0 00.536-1.236.944.944 0 00-1.227-.54l-1.974.78a.956.956 0 00.345 1.842z"/><path d="M28.086 17.902a.73.73 0 01-.725-.736c0-.405.324-.736.725-.736h1.45c.4 0 .726.33.726.736a.73.73 0 01-.725.736h-1.45z"/><path d="M29.535 20.845c2.002 0 3.625-1.65 3.625-3.68 0-2.03-1.623-3.678-3.625-3.678h-3.853a.73.73 0 00-.726.736c0 .405.326.736.726.736h3.853c1.202 0 2.176.99 2.176 2.208 0 1.22-.974 2.209-2.176 2.209h-3.853a.73.73 0 00-.726.736.73.73 0 00.726.734h3.853v-.001z"/><path d="M20.835 9.075a.73.73 0 01-.726-.736.73.73 0 01.726-.736h8.7c5.206 0 9.427 4.285 9.427 9.566 0 5.28-4.221 9.566-9.426 9.566h-8.701a.73.73 0 01-.726-.736.73.73 0 01.726-.737h8.7c4.405 0 7.976-3.627 7.976-8.093 0-4.469-3.572-8.094-7.975-8.094h-8.701z"/><path d="M29.536 12.015c2.802 0 5.076 2.307 5.076 5.15 0 2.845-2.272 5.152-5.076 5.152h-6.287a.73.73 0 00-.725.736c0 .405.326.736.725.736h6.287c3.602 0 6.526-2.967 6.526-6.623 0-3.657-2.923-6.622-6.526-6.622h-6.287a.73.73 0 00-.725.734c0 .407.326.737.725.737h6.287z"/></symbol>
<symbol id="gear" viewBox="0 0 34 34"><path d="M16.518 17.367a.367.367 0 110-.734h.735a.367.367 0 010 .734h-.735z"/><path d="M17.252 18.834a1.835 1.835 0 100-3.669H15.3a.367.367 0 100 .735h1.952a1.102 1.102 0 110 2.202H15.3a.367.367 0 100 .733h1.95z"/><path d="M12.846 12.964a.367.367 0 110-.734h4.406A4.773 4.773 0 0122.025 17a4.773 4.773 0 01-4.773 4.77h-4.406a.367.367 0 110-.734h4.406A4.038 4.038 0 0021.291 17a4.038 4.038 0 00-4.039-4.036h-4.406z"/><path d="M17.252 14.432a2.57 2.57 0 110 5.137H14.07a.367.367 0 100 .734h3.183A3.305 3.305 0 0020.557 17a3.304 3.304 0 00-3.305-3.302H14.07a.367.367 0 100 .734h3.183z"/><path d="M17 6.707C11.324 6.707 6.707 11.324 6.707 17c0 5.676 4.617 10.293 10.293 10.293 5.676 0 10.293-4.617 10.293-10.293 0-5.676-4.617-10.293-10.293-10.293zm0 18.594c-4.577 0-8.3-3.724-8.3-8.301s3.723-8.3 8.3-8.3c4.577 0 8.3 3.723 8.3 8.3 0 4.577-3.723 8.3-8.3 8.3z"/><path d="M31.676 12.02h-1.292c-.121-.325-.255-.646-.399-.961l.914-.915a2.327 2.327 0 000-3.287l-3.757-3.756a2.327 2.327 0 00-3.286 0l-.915.914a14.318 14.318 0 00-.96-.399V1.66c0-.915-.745-1.66-1.66-1.66H13.68c-.916 0-1.66.745-1.66 1.66v1.956c-.325.121-.646.254-.961.399l-.915-.914a2.327 2.327 0 00-3.287 0L3.101 6.857a2.327 2.327 0 000 3.287l.914.915c-.144.315-.278.636-.399.96H2.324A2.327 2.327 0 000 14.345v5.312a2.327 2.327 0 002.324 2.325h1.292c.121.324.254.645.4.96l-.915.915a2.327 2.327 0 000 3.286L6.857 30.9c.907.906 2.381.906 3.287 0l.915-.914c.315.145.636.278.96.399v1.292A2.327 2.327 0 0014.345 34h5.312a2.327 2.327 0 002.325-2.324v-1.292c.324-.121.645-.255.96-.399l.915.914c.906.906 2.38.906 3.286 0l3.757-3.757a2.327 2.327 0 000-3.286l-.914-.915c.145-.315.278-.636.399-.96h1.292A2.327 2.327 0 0034 19.655v-5.312a2.327 2.327 0 00-2.324-2.324zm.332 7.636a.332.332 0 01-.332.332h-2.003a.996.996 0 00-.95.698 12.233 12.233 0 01-.828 1.995.996.996 0 00.178 1.166l1.417 1.417c.13.13.13.34 0 .47l-3.756 3.756c-.13.13-.34.13-.47 0l-1.417-1.417a.996.996 0 00-1.166-.178c-.64.334-1.31.613-1.995.828a.996.996 0 00-.698.95v2.003a.332.332 0 01-.332.332h-5.312a.332.332 0 01-.332-.332v-2.003a.996.996 0 00-.698-.95 12.233 12.233 0 01-1.995-.828.993.993 0 00-1.166.178L8.736 29.49c-.13.13-.34.13-.47 0L4.51 25.734a.333.333 0 010-.47l1.417-1.417a.997.997 0 00.178-1.166 12.253 12.253 0 01-.828-1.995.996.996 0 00-.95-.698H2.324a.332.332 0 01-.332-.332v-5.312c0-.183.15-.332.332-.332h2.003c.435 0 .82-.283.95-.698.216-.684.494-1.355.828-1.995a.996.996 0 00-.178-1.166L4.51 8.736a.333.333 0 010-.47L8.266 4.51c.13-.13.34-.13.47 0l1.417 1.417c.308.308.78.38 1.166.178.64-.334 1.31-.612 1.995-.828a.996.996 0 00.698-.95V1.992h5.976v2.335c0 .435.283.82.698.95.684.216 1.355.494 1.995.828a.996.996 0 001.166-.178l1.417-1.417c.13-.13.34-.13.47 0l3.756 3.756c.13.13.13.34 0 .47l-1.417 1.417a.996.996 0 00-.178 1.166c.334.64.613 1.31.828 1.995.13.415.515.698.95.698h2.003c.183 0 .332.149.332.332v5.312z"/></symbol>
<symbol id="money" viewBox="0 0 53 59"><path d="M43.8 34.669c.47 0 .852-.381.852-.852v-.057a2.9 2.9 0 00-2.897-2.897c-1.178-.078-1.177 1.783 0 1.704.657 0 1.192.535 1.192 1.193v.057c0 .47.382.852.852.852zM41.755 54.456a2.9 2.9 0 002.896-2.897v-.057a.852.852 0 10-1.704 0v.057c0 .658-.535 1.193-1.192 1.193-1.178-.079-1.177 1.782 0 1.704zM34.216 54.456h4.194a.852.852 0 100-1.704h-4.194a.852.852 0 000 1.704zM30.928 52.752h-4.194a.852.852 0 100 1.704h4.194a.852.852 0 100-1.704zM23.447 52.752h-4.195a.852.852 0 100 1.704h4.195a.852.852 0 100-1.704zM15.965 52.752H11.77a.852.852 0 100 1.704h4.195a.852.852 0 100-1.704zM5.529 51.56a2.9 2.9 0 002.897 2.896h.057a.852.852 0 100-1.704h-.057a1.194 1.194 0 01-1.193-1.193c.078-1.177-1.782-1.177-1.704 0zM5.529 48.317a.852.852 0 101.704 0v-4.065a.852.852 0 10-1.704 0v4.065zM6.381 41.919c.47 0 .852-.381.852-.852v-4.065a.852.852 0 10-1.704 0v4.065c0 .47.381.852.852.852zM8.483 30.863h-.057a2.9 2.9 0 00-2.897 2.897c-.078 1.177 1.782 1.177 1.704 0 0-.658.535-1.193 1.193-1.193h.056a.852.852 0 000-1.704zM30.928 30.863h-4.194a.852.852 0 100 1.704h4.194a.852.852 0 000-1.704zM15.965 30.863H11.77a.852.852 0 100 1.704h4.195a.852.852 0 000-1.704zM34.216 32.567h4.194a.852.852 0 000-1.704h-4.194a.852.852 0 100 1.704zM23.447 30.863h-4.195a.852.852 0 100 1.704h4.195a.852.852 0 000-1.704z"/><path d="M49.2 37.376h-.005v-6.838a4.224 4.224 0 00-4.219-4.219h-6.595a16.584 16.584 0 001.465-2.415h3.922a3.334 3.334 0 002.512 1.13c.97 0 1.874-.409 2.511-1.13 2.028.086 3.747-1.543 3.742-3.578a3.581 3.581 0 00-3.577-3.577h-.492a4.412 4.412 0 00-4.352-3.72 4.384 4.384 0 00-2.752.966 16.572 16.572 0 00-5.054-9.52.852.852 0 10-1.165 1.244 14.868 14.868 0 014.544 8.593 3.352 3.352 0 00-1.612.812C37.35 8.544 31.759 3.408 24.99 3.408c-7.258 0-13.163 5.905-13.163 13.163 0 1.06.127 2.116.378 3.138a.852.852 0 101.655-.406 11.466 11.466 0 01-.33-2.732c0-6.319 5.141-11.46 11.46-11.46 6.318 0 11.459 5.141 11.459 11.46 0 .12-.004.24-.008.36a3.584 3.584 0 00-2.449 3.395c0 .837.29 1.607.773 2.217a11.554 11.554 0 01-3.76 3.776H18.83a.849.849 0 00-.241-.248 11.624 11.624 0 01-3.418-3.598.852.852 0 00-1.46.88 13.328 13.328 0 002.445 2.966h-2.382a14.817 14.817 0 01-3.651-9.748c0-8.198 6.669-14.867 14.867-14.867 2.51 0 4.992.64 7.177 1.85a.852.852 0 00.826-1.49A16.564 16.564 0 0024.99 0c-4.206 0-8.05 1.576-10.975 4.167a4.339 4.339 0 00-2.081-.742 4.421 4.421 0 00-3.407 1.18 3.38 3.38 0 00-1.733-.326A3.382 3.382 0 003.71 7.5h-.132A3.581 3.581 0 000 11.078a3.581 3.581 0 003.577 3.578H8.53a16.507 16.507 0 003.067 11.663H5.204a4.224 4.224 0 00-4.219 4.219v24.243A4.224 4.224 0 005.204 59h23.893a.852.852 0 100-1.704H5.204a2.518 2.518 0 01-2.515-2.515V30.538a2.518 2.518 0 012.515-2.515h39.773a2.518 2.518 0 012.514 2.515v6.838h-2.84v-.374a.852.852 0 00-1.704 0v.374h-5.623a2.331 2.331 0 00-2.328 2.329v5.705a2.331 2.331 0 002.328 2.329h5.623v.578a.852.852 0 101.704 0v-.578h2.84v7.042a2.518 2.518 0 01-2.514 2.515H33.148a.852.852 0 000 1.704h11.828a4.224 4.224 0 004.22-4.219V47.74h.005a2.331 2.331 0 002.328-2.329v-5.705a2.331 2.331 0 00-2.329-2.33zM3.578 12.952a1.875 1.875 0 01-1.873-1.873c0-1.033.84-1.874 1.873-1.874h.802c.653.017 1.199-.633 1.061-1.274a1.68 1.68 0 01-.022-.462 1.66 1.66 0 011.51-1.491c.392-.03.769.072 1.087.297a1.083 1.083 0 001.453-.188 2.68 2.68 0 012.319-.965c.342.03.67.126.973.28a16.546 16.546 0 00-3.942 7.55h-5.24zm33.992 5.501c.57.045 1.085-.377 1.116-.953a1.652 1.652 0 012.2-1.455 1.02 1.02 0 001.132-.316 2.692 2.692 0 012.095-.996c1.49 0 2.7 1.211 2.7 2.702a1.02 1.02 0 001.019 1.018h1.125c1.033 0 1.873.84 1.873 1.873s-.84 1.874-1.873 1.874c-.51-.038-1.058.062-1.379.5-.316.4-.788.63-1.297.63-.509 0-.982-.23-1.297-.63-.251-.318-.625-.5-1.027-.5H37.57a1.875 1.875 0 01-1.874-1.874c0-1.032.84-1.873 1.873-1.873zm-1.452 5.141c.539.254 1.187.334 1.802.31a14.93 14.93 0 01-1.716 2.415h-2.378c.881-.8 1.653-1.716 2.292-2.725zM49.825 45.41c0 .345-.28.625-.624.625H37.324a.626.626 0 01-.624-.625v-5.705c0-.345.28-.625.624-.625h11.877c.344 0 .624.28.624.625v5.705z"/><path d="M39.877 43.69a1.143 1.143 0 10-.366-2.257 1.143 1.143 0 00.366 2.257zM33.865 14.214a1.41 1.41 0 00-1.146-.967l-4.46-.648-1.996-4.042a1.411 1.411 0 00-1.273-.792c-.545 0-1.033.303-1.274.792l-1.995 4.042-4.46.648a1.411 1.411 0 00-1.147.967 1.411 1.411 0 00.36 1.455l3.227 3.147-.762 4.443a1.41 1.41 0 00.565 1.389c.442.321 1.015.36 1.495.108l3.99-2.098 3.99 2.098a1.41 1.41 0 001.496-.108c.44-.32.657-.852.565-1.389l-.762-4.443 3.228-3.147c.39-.38.528-.938.36-1.455zM28.982 17.7a1.419 1.419 0 00-.409 1.257l.69 4.023-3.613-1.9a1.42 1.42 0 00-1.321 0l-3.613 1.9.69-4.023a1.42 1.42 0 00-.408-1.257l-2.923-2.85 4.039-.586a1.42 1.42 0 001.07-.777l1.806-3.66 1.806 3.66c.207.42.607.71 1.07.777l4.039.587-2.923 2.849z"/></symbol>
<symbol id="percent" viewBox="0 0 32 34"><path d="M31.707 24.138a4.77 4.77 0 00-3.39-1.402 4.77 4.77 0 00-3.392 1.402l-2.998 2.99h-1.421a4.875 4.875 0 00.964-2.916.998.998 0 00-.999-.997h-3.317c-1.084 0-2.126-.49-3.228-1.01-1.156-.544-2.351-1.108-3.75-1.2a10.592 10.592 0 00-3.641.396 3.224 3.224 0 00-2.308 2.788H1c-.552 0-.999.447-.999.997v7.818c0 .55.447.996 1 .996h20.4c1.182 0 2.293-.459 3.129-1.293l7.178-7.16a.995.995 0 000-1.41zM1.998 26.183h2.216v5.824H1.998v-5.824zm21.118 5.115a2.413 2.413 0 01-1.716.709H6.212v-7.534a1.216 1.216 0 01.877-1.157 8.592 8.592 0 012.955-.323c1.02.068 1.996.528 3.029 1.015 1.253.59 2.548 1.2 4.08 1.2h2.143a2.928 2.928 0 01-2.544 1.912c-.048-.007-5.21-.012-5.21-.012a.996.996 0 00-.638.23.993.993 0 00-.375.777c0 .55.448.997 1 .997l10.812.009a1 1 0 00.707-.292l3.29-3.282a2.783 2.783 0 011.978-.817c.4 0 .788.083 1.143.241l-6.343 6.327zM18.211 20.812c5.753 0 10.433-4.668 10.433-10.406S23.964 0 18.21 0C12.46 0 7.78 4.668 7.78 10.406s4.68 10.406 10.432 10.406zm0-18.819c4.65 0 8.434 3.774 8.434 8.413s-3.783 8.413-8.434 8.413c-4.65 0-8.434-3.774-8.434-8.413s3.784-8.413 8.434-8.413z"/><path d="M15.255 8.817c.672 0 1.316-.59 1.285-1.281-.032-.695-.565-1.282-1.285-1.282-.672 0-1.315.59-1.284 1.282.03.694.564 1.28 1.284 1.28zM19.883 13.369c.032.694.565 1.28 1.285 1.28.672 0 1.315-.588 1.284-1.28-.031-.695-.564-1.282-1.284-1.282-.672 0-1.316.59-1.285 1.282zM15.707 16.462a.997.997 0 001.307-.534l4.378-10.405a.996.996 0 00-.534-1.304 1 1 0 00-1.308.533l-4.378 10.405a.996.996 0 00.535 1.305z"/></symbol>
<symbol id="play" viewBox="0 0 44 44"><path d="M43 22c0-11.598-9.402-21-21-21S1 10.402 1 22s9.402 21 21 21" stroke-width="2"/><path d="M19 17l9 5-9 5V17z" stroke-width="2"/></symbol>
<symbol id="rocket" viewBox="0 0 33 33"><path d="M32.462 2.889A2.487 2.487 0 0030.111.538c-2.565-.14-7.584-.004-12.383 2.478-2.447 1.266-5.034 3.411-7.099 5.887l-.075.091-4.687.362a2.474 2.474 0 00-1.885 1.11L.785 15.3a1.706 1.706 0 00-.138 1.638c.238.537.726.91 1.305 1l3.948.612c-.014.077-.028.154-.04.23-.132.787.129 1.595.697 2.163l5.5 5.5a2.492 2.492 0 002.162.696l.23-.04.611 3.948a1.714 1.714 0 002.638 1.167l4.836-3.197a2.473 2.473 0 001.11-1.885l.361-4.686.092-.076c2.476-2.065 4.621-4.652 5.887-7.099 2.482-4.8 2.618-9.818 2.478-12.383zM21.5 27.454l-4.625 3.058-.596-3.848c1.955-.575 3.889-1.495 5.731-2.729l-.236 3.053a.61.61 0 01-.274.466zm-8.118-2.337l-5.5-5.499a.608.608 0 01-.173-.527c.163-.978.418-1.909.732-2.786l8.252 8.252a16.192 16.192 0 01-2.784.734.608.608 0 01-.527-.174zm-7.37-13.891l3.052-.236c-1.233 1.842-2.154 3.776-2.728 5.731l-3.848-.596L5.546 11.5a.61.61 0 01.466-.274zm16.884 9.705a21.493 21.493 0 01-4.34 2.838L9.23 14.443a21.869 21.869 0 012.839-4.34c1.91-2.29 4.287-4.267 6.52-5.422 4.405-2.278 9.046-2.4 11.42-2.271a.615.615 0 01.581.581c.13 2.374.007 7.015-2.271 11.42-1.155 2.233-3.132 4.61-5.423 6.52z"/><path d="M22.42 15.265c1.2 0 2.4-.457 3.314-1.37a4.656 4.656 0 001.373-3.315c0-1.252-.487-2.43-1.373-3.315a4.692 4.692 0 00-6.629 0 4.656 4.656 0 00-1.372 3.315c0 1.252.487 2.429 1.372 3.314a4.671 4.671 0 003.315 1.371zM20.43 8.591a2.803 2.803 0 011.989-.822c.72 0 1.44.274 1.988.822.532.531.824 1.238.824 1.989 0 .751-.292 1.457-.823 1.989a2.816 2.816 0 01-3.978 0 2.794 2.794 0 01-.824-1.99c0-.75.293-1.457.824-1.988zM1.456 26.87c.24 0 .48-.09.663-.274l3.061-3.06a.937.937 0 10-1.326-1.326l-3.06 3.06a.937.937 0 00.662 1.6zM7.985 25.015a.938.938 0 00-1.326 0L.775 30.899A.937.937 0 102.1 32.225l5.885-5.884a.937.937 0 000-1.326zM9.464 27.82l-3.06 3.06a.937.937 0 101.325 1.326l3.061-3.06a.937.937 0 00-1.326-1.326z"/></symbol>
<symbol id="shield-check" viewBox="0 0 28 32"><path d="M27.2 5.182L14.498.096a1.34 1.34 0 00-.994 0L.799 5.182C.315 5.375 0 5.83 0 6.336v6.183c0 8.513 5.336 16.171 13.51 19.388.314.124.666.124.98 0C22.664 28.69 28 21.032 28 12.52V6.336c0-.505-.315-.96-.8-1.154zm-1.793 7.337c0 7.237-4.407 13.9-11.407 16.873-6.813-2.894-11.407-9.44-11.407-16.873V7.17L14 2.603l11.407 4.568v5.348zm-12.84 4.213l5.572-5.372a1.33 1.33 0 011.833 0c.506.488.506 1.28 0 1.767l-6.488 6.257a1.33 1.33 0 01-1.833 0L8.028 15.89a1.219 1.219 0 010-1.767 1.33 1.33 0 011.833 0l2.706 2.61z"/></symbol>
<symbol id="shield-lock" viewBox="0 0 51 59"><path d="M45.272 13.527c-3.895-1.33-7.013-4.457-8.34-8.363a1.317 1.317 0 00-1.241-.901H14.727c-.56 0-1.059.362-1.242.9-1.326 3.907-4.443 7.033-8.339 8.364a1.328 1.328 0 00-.897 1.258v10.051c0 6.85 2.149 13.364 6.213 18.84 3.59 4.837 8.665 8.66 14.29 10.766.295.11.62.11.914 0a31.761 31.761 0 0012.717-8.816.872.872 0 00-.074-1.221.849.849 0 00-1.207.075 30.05 30.05 0 01-11.893 8.287c-5.266-2.002-10.013-5.595-13.379-10.13-3.84-5.173-5.87-11.329-5.87-17.8v-9.765c4.182-1.519 7.535-4.883 9.05-9.079h20.398c1.515 4.196 4.868 7.56 9.05 9.08v9.763c0 5.902-1.709 11.6-4.94 16.477a.871.871 0 00.233 1.2.85.85 0 001.187-.236c3.422-5.164 5.23-11.194 5.23-17.44V14.785c0-.569-.36-1.075-.896-1.258zM22.643 34.882c0 1.431 1.151 2.595 2.566 2.595 1.415 0 2.566-1.164 2.566-2.595v-2.268a3.145 3.145 0 00-.452-3.986 3.036 3.036 0 00-2.294-.845c-1.514.088-2.755 1.305-2.887 2.832a3.147 3.147 0 00.501 1.999v2.268zm1.203-4.116a1.378 1.378 0 011.363-1.258 1.38 1.38 0 011.369 1.384c0 .297-.092.58-.265.818a1.311 1.311 0 00-.249.777v2.395a.861.861 0 01-.855.865.861.861 0 01-.855-.865v-2.395c0-.284-.086-.553-.249-.777a1.38 1.38 0 01-.259-.944zm24.777-20.84c-4.254-.438-7.66-3.85-8.099-8.114A2 2 0 0038.54 0H11.879a2 2 0 00-1.985 1.812C9.455 6.076 6.05 9.488 1.795 9.926A2.005 2.005 0 000 11.933v12.904c0 7.706 2.401 15.05 6.944 21.237a35.913 35.913 0 007.784 7.763 35.507 35.507 0 009.867 5.065c.396.13.832.13 1.228 0a35.515 35.515 0 009.867-5.065 35.915 35.915 0 007.784-7.763c4.543-6.187 6.944-13.53 6.944-21.237V11.933a2.005 2.005 0 00-1.795-2.007zm.085 14.91c0 7.333-2.285 14.32-6.607 20.206-4.239 5.772-10.05 9.996-16.806 12.215a.277.277 0 01-.172 0c-6.756-2.22-12.567-6.443-16.806-12.215-4.322-5.886-6.606-12.873-6.606-20.206V11.934c0-.148.11-.27.257-.286 5.057-.52 9.105-4.581 9.628-9.656a.286.286 0 01.283-.26h26.66c.147 0 .268.111.283.26.523 5.075 4.572 9.136 9.628 9.656a.286.286 0 01.258.286v12.904zM18.274 14.629a.87.87 0 00-.269-1.193.85.85 0 00-1.18.272 10.055 10.055 0 00-1.514 5.317v4.812a4.336 4.336 0 00-2.19 3.774v10.035c0 2.385 1.918 4.326 4.276 4.326H33.02c2.358 0 4.277-1.94 4.277-4.326V27.61c0-1.62-.885-3.033-2.19-3.774v-4.812c0-5.52-4.441-10.01-9.899-10.01-1.885 0-3.72.54-5.306 1.562a.87.87 0 00-.261 1.194.85.85 0 001.18.265 8.08 8.08 0 014.387-1.292c4.515 0 8.187 3.715 8.187 8.281v4.278a4.231 4.231 0 00-.375-.017h-1.335v-4.26c0-1.75-.674-3.396-1.898-4.634a6.4 6.4 0 00-4.579-1.918c-3.571 0-6.477 2.94-6.477 6.551v4.26h-1.335c-.127 0-.252.007-.375.018v-4.278c0-1.56.433-3.08 1.252-4.396zm2.17 4.396c0-2.658 2.137-4.82 4.765-4.82 1.272 0 2.47.501 3.37 1.41.9.912 1.396 2.122 1.396 3.41v4.26h-9.532v-4.26zm-3.047 5.99H33.02c1.415 0 2.566 1.165 2.566 2.596v10.035c0 1.431-1.15 2.595-2.566 2.595H17.397c-1.415 0-2.566-1.164-2.566-2.595V27.61c0-1.431 1.151-2.595 2.566-2.595z"/></symbol>
<symbol id="shield" viewBox="0 0 71 60"><path d="M57.763 28.135h5.883c.235.872.78 1.629 1.535 2.13a3.756 3.756 0 004.89-.642 3.712 3.712 0 000-4.907 3.756 3.756 0 00-4.89-.642 3.723 3.723 0 00-1.535 2.13h-5.883v-4.673h4.365a.974.974 0 00.789-.403l3.026-4.206a3.754 3.754 0 002.632-.006 3.73 3.73 0 001.975-1.732 3.7 3.7 0 00.338-2.596 3.717 3.717 0 00-1.467-2.175 3.751 3.751 0 00-4.902.489 3.708 3.708 0 00-.154 4.899l-2.736 3.8h-3.866v-3.578a.963.963 0 00-.284-.683.973.973 0 00-.686-.283c-1.5 0-2.962-.471-4.177-1.347l5.351-6.562c.832.371 1.771.429 2.642.162a3.754 3.754 0 002.094-1.612 3.722 3.722 0 00-.828-4.86 3.77 3.77 0 00-4.951.184 3.724 3.724 0 00-.461 4.908l-5.26 6.452a7.072 7.072 0 01-1.577-4.452.963.963 0 00-.284-.682.973.973 0 00-.686-.283H22.392a.973.973 0 00-.686.283.963.963 0 00-.284.682c0 1.62-.556 3.19-1.577 4.452l-5.26-6.452a3.713 3.713 0 00-.462-4.894A3.756 3.756 0 009.186.854 3.711 3.711 0 008.36 5.7a3.744 3.744 0 002.087 1.607c.868.267 1.804.21 2.634-.16l5.351 6.562a7.145 7.145 0 01-4.177 1.348.972.972 0 00-.686.283.962.962 0 00-.284.682V19.6H9.42l-2.734-3.8a3.744 3.744 0 00-.147-4.954 3.79 3.79 0 00-4.957-.497 3.756 3.756 0 00-1.481 2.2 3.74 3.74 0 00.344 2.625 3.77 3.77 0 002 1.747 3.794 3.794 0 002.662 0l3.026 4.206a.97.97 0 00.789.404h4.364v4.674H7.403a3.723 3.723 0 00-1.536-2.13 3.756 3.756 0 00-4.89.64 3.711 3.711 0 000 4.909 3.756 3.756 0 004.89.642 3.723 3.723 0 001.536-2.131h5.882v5.44c0 .242.014.481.022.722H8.505a.975.975 0 00-.867.533l-3.09 6.127a3.78 3.78 0 00-2.622.4A3.75 3.75 0 00.22 43.38a3.727 3.727 0 00.059 2.638c.34.844.978 1.535 1.793 1.945.815.41 1.753.512 2.637.285a3.764 3.764 0 002.171-1.516 3.73 3.73 0 00-.602-4.903l2.825-5.603h4.362a20.143 20.143 0 005.726 11.59l-6.288 5.354a3.78 3.78 0 00-4.934.576 3.736 3.736 0 00-.067 4.941 3.781 3.781 0 004.916.708 3.748 3.748 0 001.573-2.126 3.729 3.729 0 00-.228-2.631l6.477-5.514c.483.398.981.783 1.505 1.139l12.833 8.712a.98.98 0 001.093 0l12.832-8.712c.525-.356 1.022-.74 1.506-1.14l6.477 5.515a3.704 3.704 0 00-.222 2.611 3.722 3.722 0 001.563 2.11 3.755 3.755 0 004.88-.705 3.71 3.71 0 00-.064-4.906 3.755 3.755 0 00-4.897-.578l-6.289-5.353a20.143 20.143 0 005.726-11.59h4.362l2.826 5.6a3.672 3.672 0 00-.577 4.824 3.706 3.706 0 002.138 1.486c.87.222 1.79.122 2.592-.281a3.694 3.694 0 001.764-1.911 3.67 3.67 0 00.062-2.595 3.692 3.692 0 00-1.671-1.991 3.723 3.723 0 00-2.577-.404l-3.09-6.127a.967.967 0 00-.867-.532h-4.803c.009-.24.023-.48.023-.723l-.002-5.437zm9.492-2.758a1.808 1.808 0 011.664 1.107 1.783 1.783 0 01-.39 1.953 1.805 1.805 0 01-2.772-.272 1.786 1.786 0 01.225-2.262 1.808 1.808 0 011.273-.525zm0-13.73a1.808 1.808 0 011.664 1.106 1.783 1.783 0 01-.39 1.953 1.805 1.805 0 01-2.772-.271 1.786 1.786 0 01.225-2.261 1.808 1.808 0 011.273-.525v-.002zM1.993 13.44a1.786 1.786 0 011.111-1.656 1.809 1.809 0 011.964.389 1.789 1.789 0 01-1.274 3.059c-.478 0-.936-.19-1.273-.526a1.79 1.79 0 01-.528-1.266zm1.8 15.52a1.808 1.808 0 01-1.663-1.105 1.784 1.784 0 01.39-1.954 1.805 1.805 0 013.075 1.268c0 .475-.19.93-.528 1.266a1.808 1.808 0 01-1.273.526zm0 17.434a1.807 1.807 0 01-1.663-1.107 1.784 1.784 0 01.39-1.953 1.805 1.805 0 013.075 1.267c0 .476-.19.931-.528 1.267a1.808 1.808 0 01-1.273.526zm65.263-1.793a1.786 1.786 0 01-1.112 1.656 1.81 1.81 0 01-1.963-.388 1.79 1.79 0 01-.39-1.953c.136-.328.367-.608.663-.805a1.808 1.808 0 012.274.224c.338.336.528.791.528 1.267zM59.49 1.959a1.808 1.808 0 011.664 1.107 1.784 1.784 0 01-.39 1.953 1.804 1.804 0 01-3.075-1.268c0-.475.19-.93.528-1.266a1.808 1.808 0 011.273-.526zM9.757 3.75a1.786 1.786 0 011.112-1.655 1.81 1.81 0 011.963.388 1.79 1.79 0 01.391 1.953 1.795 1.795 0 01-1.664 1.107c-.478-.001-.936-.19-1.273-.526a1.79 1.79 0 01-.529-1.267zm1.033 54.28a1.808 1.808 0 01-1.664-1.107 1.784 1.784 0 01.39-1.953 1.803 1.803 0 011.963-.388 1.786 1.786 0 01.584 2.922 1.808 1.808 0 01-1.273.526zm37.02-9.362l-12.286 8.34-12.285-8.34a18.293 18.293 0 01-5.889-6.558 18.186 18.186 0 01-2.125-8.535V16.936a9.232 9.232 0 005.45-2.623A9.148 9.148 0 0023.31 8.89h24.427a9.148 9.148 0 002.636 5.422 9.232 9.232 0 005.45 2.623v16.639a18.186 18.186 0 01-2.125 8.535 18.292 18.292 0 01-5.89 6.558zm14.25 7.57a1.786 1.786 0 01-1.112 1.655 1.81 1.81 0 01-1.963-.388 1.79 1.79 0 011.274-3.06c.477.001.935.19 1.273.526.337.336.527.792.528 1.267z"/><path d="M52.22 20.369a.963.963 0 00-.575-.882 12.707 12.707 0 01-6.471-6.438.967.967 0 00-.887-.573H26.76a.974.974 0 00-.887.573 12.707 12.707 0 01-6.47 6.438.97.97 0 00-.576.882v13.206a14.617 14.617 0 001.708 6.862 14.702 14.702 0 004.735 5.273l9.708 6.59a.98.98 0 001.093 0l9.706-6.59a14.703 14.703 0 004.733-5.27 14.618 14.618 0 001.709-6.862v-13.21zm-1.939 13.206c0 2.076-.51 4.122-1.484 5.958a12.77 12.77 0 01-4.112 4.578l-9.16 6.221-9.162-6.221a12.772 12.772 0 01-4.111-4.578 12.698 12.698 0 01-1.485-5.959V20.982a14.633 14.633 0 006.61-6.575h16.295a14.633 14.633 0 006.609 6.575v12.593z"/></symbol>
</svg>