<svg width="42" height="42" viewBox="0 0 42 42" fill="none" xmlns="http://www.w3.org/2000/svg">
<path d="M21 4.375C16.5908 4.375 12.3621 6.12656 9.24435 9.24435C6.12656 12.3621 4.375 16.5908 4.375 21C4.375 25.4092 6.12656 29.6379 9.24435 32.7556C12.3621 35.8734 16.5908 37.625 21 37.625C25.4092 37.625 29.6379 35.8734 32.7556 32.7556C35.8734 29.6379 37.625 25.4092 37.625 21C37.625 16.5908 35.8734 12.3621 32.7556 9.24435C29.6379 6.12656 25.4092 4.375 21 4.375Z" fill="#039BE5"/>
<path d="M23.2505 25.4065H27.5529L28.2284 21.0359H23.2496V18.6471C23.2496 16.8315 23.8429 15.2215 25.5412 15.2215H28.2704V11.4074C27.7909 11.3426 26.7767 11.2009 24.8605 11.2009C20.8591 11.2009 18.5132 13.314 18.5132 18.1282V21.0359H14.3999V25.4065H18.5132V37.4194C19.3279 37.5419 20.153 37.625 21 37.625C21.7656 37.625 22.5129 37.555 23.2505 37.4552V25.4065Z" fill="white"/>
</svg>
