<svg width="42" height="42" viewBox="0 0 42 42" fill="none" xmlns="http://www.w3.org/2000/svg">
<path d="M37.3425 17.7358H36V17.6667H21V24.3333H30.4191C29.045 28.2142 25.3525 31 21 31C15.4775 31 11 26.5225 11 21C11 15.4775 15.4775 11 21 11C23.5491 11 25.8683 11.9617 27.6341 13.5325L32.3483 8.81834C29.3716 6.04418 25.39 4.33334 21 4.33334C11.7958 4.33334 4.33331 11.7958 4.33331 21C4.33331 30.2042 11.7958 37.6667 21 37.6667C30.2041 37.6667 37.6666 30.2042 37.6666 21C37.6666 19.8825 37.5516 18.7917 37.3425 17.7358Z" fill="#FFC107"/>
<path d="M6.255 13.2425L11.7308 17.2583C13.2125 13.59 16.8008 11 21 11C23.5492 11 25.8683 11.9617 27.6342 13.5325L32.3483 8.81834C29.3717 6.04418 25.39 4.33334 21 4.33334C14.5983 4.33334 9.04667 7.94751 6.255 13.2425Z" fill="#FF3D00"/>
<path d="M21 37.6667C25.305 37.6667 29.2166 36.0192 32.1741 33.34L27.0158 28.975C25.3425 30.2425 23.2625 31 21 31C16.665 31 12.9841 28.2358 11.5975 24.3783L6.16248 28.5658C8.92081 33.9633 14.5225 37.6667 21 37.6667Z" fill="#4CAF50"/>
<path d="M37.3425 17.7358H36V17.6667H21V24.3333H30.4192C29.7592 26.1975 28.56 27.805 27.0133 28.9758C27.0142 28.975 27.015 28.975 27.0158 28.9742L32.1742 33.3392C31.8092 33.6708 37.6667 29.3333 37.6667 21C37.6667 19.8825 37.5517 18.7917 37.3425 17.7358Z" fill="#1976D2"/>
</svg>
