<svg width="338" height="94" viewBox="0 0 338 94" fill="none" xmlns="http://www.w3.org/2000/svg">
<path d="M39.8019 50.6165C37.8009 50.6165 36.1826 48.9994 36.1826 46.9999C36.1826 45.0084 37.8009 43.3833 39.8019 43.3833H47.0404C49.0333 43.3833 50.6596 45.0004 50.6596 46.9999C50.6596 48.9994 49.0413 50.6165 47.0404 50.6165H39.8019Z" fill="url(#paint0_radial)"/>
<path d="M47.0333 65.0749C57.0221 65.0749 65.1216 56.9734 65.1216 46.9999C65.1216 37.0184 57.0221 28.9249 47.0333 28.9249H27.805C25.8041 28.9249 24.1858 30.542 24.1858 32.5415C24.1858 34.533 25.8121 36.1581 27.805 36.1581H47.0333C53.0282 36.1581 57.891 41.0174 57.891 47.0079C57.891 52.9984 53.0282 57.8577 47.0333 57.8577H27.805C25.8041 57.8577 24.1858 59.4748 24.1858 61.4743C24.1858 63.4658 25.8121 65.0829 27.805 65.0829H47.0333V65.0749Z" fill="url(#paint1_radial)"/>
<path d="M3.61925 7.23322C1.6183 7.23322 0 5.6161 0 3.61661C0 1.61712 1.6183 0 3.61925 0H47.0343C73.0067 0 94.0685 21.0544 94.0685 47C94.0685 72.9456 73.0067 94 47.0343 94H3.61925C1.6183 94 0 92.3829 0 90.3834C0 88.3839 1.6183 86.7668 3.61925 86.7668H47.0343C69.0128 86.7668 86.83 68.9466 86.83 47C86.83 25.0454 69.0048 7.23322 47.0343 7.23322H3.61925Z" fill="url(#paint2_radial)"/>
<path d="M47.0362 21.6915C61.0189 21.6915 72.3629 33.0272 72.3629 46.9997C72.3629 60.9722 61.0269 72.3079 47.0362 72.3079H15.6667C13.6658 72.3079 12.0475 73.9251 12.0475 75.9245C12.0475 77.9161 13.6738 79.5411 15.6667 79.5411H47.0362C65.0128 79.5411 79.6014 64.9632 79.6014 46.9997C79.6014 29.0362 65.0128 14.4663 47.0362 14.4663H15.6667C13.6658 14.4663 12.0475 16.0834 12.0475 18.0749C12.0475 20.0744 13.6738 21.6915 15.6667 21.6915H47.0362Z" fill="url(#paint3_radial)"/>
<path d="M125.786 31.7424C129.757 31.7424 133.226 32.527 136.195 34.096C139.164 35.6651 141.453 37.876 143.063 40.7288C144.709 43.546 145.531 46.8089 145.531 50.5175C145.531 54.1906 144.709 57.4535 143.063 60.3063C141.453 63.1591 139.146 65.37 136.142 66.9391C133.173 68.5081 129.721 69.2927 125.786 69.2927H111.675V31.7424H125.786ZM125.196 61.3761C128.666 61.3761 131.366 60.4311 133.298 58.5411C135.229 56.6511 136.195 53.9766 136.195 50.5175C136.195 47.0585 135.229 44.3662 133.298 42.4405C131.366 40.5148 128.666 39.552 125.196 39.552H120.85V61.3761H125.196Z" fill="#543EDB"/>
<path d="M159.834 62.2319H171.853V69.2927H150.659V31.7424H159.834V62.2319Z" fill="#543EDB"/>
<path d="M208.53 31.7424L195.491 56.8829V69.2927H186.316V56.8829L173.278 31.7424H183.687L190.984 47.4686L198.228 31.7424H208.53Z" fill="#543EDB"/>
<path d="M238.339 67.9641C237.74 68.4037 236.999 68.7398 236.113 68.9725C235.254 69.1794 234.343 69.2828 233.38 69.2828C230.881 69.2828 228.942 68.6493 227.562 67.3824C226.208 66.1154 225.531 64.2538 225.531 61.7974V53.2261H222.291V48.572H225.531V43.4912H231.623V48.572H236.855V53.2261H231.623V61.7199C231.623 62.599 231.844 63.2842 232.287 63.7754C232.755 64.2408 233.406 64.4735 234.239 64.4735C235.202 64.4735 236.022 64.215 236.699 63.6978L238.339 67.9641Z" fill="#543EDB"/>
<path d="M251.107 69.2828C248.894 69.2828 246.902 68.8303 245.132 67.9253C243.388 66.9945 242.021 65.7146 241.032 64.0857C240.043 62.4568 239.548 60.608 239.548 58.5395C239.548 56.471 240.043 54.6223 241.032 52.9934C242.021 51.3645 243.388 50.0975 245.132 49.1925C246.902 48.2617 248.894 47.7963 251.107 47.7963C253.319 47.7963 255.298 48.2617 257.042 49.1925C258.786 50.0975 260.153 51.3645 261.142 52.9934C262.131 54.6223 262.626 56.471 262.626 58.5395C262.626 60.608 262.131 62.4568 261.142 64.0857C260.153 65.7146 258.786 66.9945 257.042 67.9253C255.298 68.8303 253.319 69.2828 251.107 69.2828ZM251.107 64.3184C252.669 64.3184 253.944 63.8013 254.933 62.767C255.949 61.7069 256.456 60.2978 256.456 58.5395C256.456 56.7813 255.949 55.3851 254.933 54.3508C253.944 53.2907 252.669 52.7607 251.107 52.7607C249.545 52.7607 248.256 53.2907 247.241 54.3508C246.226 55.3851 245.718 56.7813 245.718 58.5395C245.718 60.2978 246.226 61.7069 247.241 62.767C248.256 63.8013 249.545 64.3184 251.107 64.3184Z" fill="#543EDB"/>
<path d="M275.717 60.789L272.789 63.6591V68.9725H266.697V40.1946H272.789V56.484L281.692 48.1066H288.955L280.208 56.9494L289.736 68.9725H282.356L275.717 60.789Z" fill="#543EDB"/>
<path d="M312.138 58.6171C312.138 58.6947 312.099 59.2377 312.021 60.246H296.128C296.415 61.5389 297.092 62.5602 298.159 63.31C299.226 64.0598 300.554 64.4348 302.142 64.4348C303.235 64.4348 304.198 64.2796 305.031 63.9693C305.89 63.6332 306.684 63.1161 307.413 62.418L310.654 65.9086C308.676 68.158 305.786 69.2828 301.986 69.2828C299.617 69.2828 297.521 68.8303 295.699 67.9253C293.877 66.9945 292.471 65.7146 291.482 64.0857C290.493 62.4568 289.998 60.608 289.998 58.5395C289.998 56.4969 290.48 54.6611 291.443 53.0322C292.432 51.3774 293.773 50.0975 295.465 49.1925C297.183 48.2617 299.096 47.7963 301.205 47.7963C303.261 47.7963 305.122 48.2359 306.789 49.115C308.455 49.9941 309.756 51.261 310.693 52.9158C311.657 54.5448 312.138 56.4452 312.138 58.6171ZM301.244 52.3728C299.864 52.3728 298.706 52.7607 297.768 53.5364C296.831 54.3121 296.259 55.3722 296.05 56.7167H306.398C306.19 55.398 305.617 54.3508 304.68 53.5752C303.743 52.7736 302.597 52.3728 301.244 52.3728Z" fill="#543EDB"/>
<path d="M328.962 47.7963C331.565 47.7963 333.661 48.572 335.249 50.1234C336.863 51.6747 337.67 53.9759 337.67 57.027V68.9725H331.578V57.9578C331.578 56.303 331.214 55.0748 330.485 54.2733C329.756 53.4459 328.702 53.0322 327.322 53.0322C325.786 53.0322 324.563 53.5105 323.652 54.4672C322.741 55.398 322.285 56.7942 322.285 58.6559V68.9725H316.194V48.1066H322.012V50.55C322.819 49.6709 323.821 48.9986 325.018 48.5332C326.216 48.0419 327.53 47.7963 328.962 47.7963Z" fill="#543EDB"/>
<defs>
<radialGradient id="paint0_radial" cx="0" cy="0" r="1" gradientUnits="userSpaceOnUse" gradientTransform="translate(0.125504 3.31378) scale(111.97 111.888)">
<stop stop-color="#07D8FF"/>
<stop offset="0.1117" stop-color="#0AD2FE"/>
<stop offset="0.2673" stop-color="#14C0FA"/>
<stop offset="0.4484" stop-color="#24A2F3"/>
<stop offset="0.649" stop-color="#3979EA"/>
<stop offset="0.863" stop-color="#5544DE"/>
<stop offset="1" stop-color="#691FD6"/>
</radialGradient>
<radialGradient id="paint1_radial" cx="0" cy="0" r="1" gradientUnits="userSpaceOnUse" gradientTransform="translate(0.123146 3.31401) scale(111.974 111.892)">
<stop stop-color="#07D8FF"/>
<stop offset="0.1117" stop-color="#0AD2FE"/>
<stop offset="0.2673" stop-color="#14C0FA"/>
<stop offset="0.4484" stop-color="#24A2F3"/>
<stop offset="0.649" stop-color="#3979EA"/>
<stop offset="0.863" stop-color="#5544DE"/>
<stop offset="1" stop-color="#691FD6"/>
</radialGradient>
<radialGradient id="paint2_radial" cx="0" cy="0" r="1" gradientUnits="userSpaceOnUse" gradientTransform="translate(0.124227 3.31372) scale(111.974 111.893)">
<stop stop-color="#07D8FF"/>
<stop offset="0.1117" stop-color="#0AD2FE"/>
<stop offset="0.2673" stop-color="#14C0FA"/>
<stop offset="0.4484" stop-color="#24A2F3"/>
<stop offset="0.649" stop-color="#3979EA"/>
<stop offset="0.863" stop-color="#5544DE"/>
<stop offset="1" stop-color="#691FD6"/>
</radialGradient>
<radialGradient id="paint3_radial" cx="0" cy="0" r="1" gradientUnits="userSpaceOnUse" gradientTransform="translate(0.125785 3.31364) scale(111.975 111.893)">
<stop stop-color="#07D8FF"/>
<stop offset="0.1117" stop-color="#0AD2FE"/>
<stop offset="0.2673" stop-color="#14C0FA"/>
<stop offset="0.4484" stop-color="#24A2F3"/>
<stop offset="0.649" stop-color="#3979EA"/>
<stop offset="0.863" stop-color="#5544DE"/>
<stop offset="1" stop-color="#691FD6"/>
</radialGradient>
</defs>
</svg>
