<svg width="160" height="26" viewBox="0 0 160 26" fill="none" xmlns="http://www.w3.org/2000/svg">
<path d="M30.8524 19.7568C30.4803 19.7568 30.2173 19.6798 30.0633 19.5258C29.9221 19.3719 29.8516 19.1281 29.8516 18.7945V7.65054C29.8516 7.31693 29.9285 7.07314 30.0825 6.91916C30.2365 6.75236 30.4931 6.66895 30.8524 6.66895H35.5679C37.3642 6.66895 38.6858 7.04747 39.5327 7.80451C40.3796 8.56155 40.803 9.6907 40.803 11.192C40.803 12.6804 40.3796 13.8031 39.5327 14.5602C38.6987 15.3044 37.3771 15.6765 35.5679 15.6765H33.7394V18.7945C33.7394 19.1281 33.6624 19.3719 33.5085 19.5258C33.3545 19.6798 33.0914 19.7568 32.7193 19.7568H30.8524ZM35.2599 12.8857C35.786 12.8857 36.1902 12.7445 36.4725 12.4623C36.7676 12.18 36.9151 11.7565 36.9151 11.192C36.9151 10.6146 36.7676 10.1847 36.4725 9.90241C36.1902 9.62013 35.786 9.47899 35.2599 9.47899H33.7394V12.8857H35.2599Z" fill="#333333"/>
<path d="M45.3484 20.0454C44.1423 20.0454 43.1735 19.6605 42.4421 18.8906C41.7236 18.1079 41.3643 17.0108 41.3643 15.5994C41.3643 14.5216 41.6081 13.5785 42.0957 12.7701C42.5961 11.9617 43.2954 11.3394 44.1936 10.9032C45.1046 10.4541 46.1503 10.2295 47.3308 10.2295C48.306 10.2295 49.1657 10.3386 49.9099 10.5567C50.6669 10.762 51.3598 11.0636 51.9885 11.4613V19.16C51.9885 19.4038 51.9436 19.5642 51.8538 19.6412C51.764 19.7182 51.5844 19.7567 51.3149 19.7567H49.3517C49.2106 19.7567 49.1015 19.7374 49.0245 19.699C48.9475 19.6476 48.8834 19.5706 48.8321 19.468L48.5819 18.8906C48.2097 19.2884 47.7607 19.5771 47.2346 19.7567C46.7213 19.9492 46.0926 20.0454 45.3484 20.0454ZM46.7919 17.4278C47.2923 17.4278 47.6837 17.3059 47.966 17.0621C48.2482 16.8184 48.3894 16.4719 48.3894 16.0228V13.0203C48.1456 12.9048 47.8376 12.8471 47.4655 12.8471C46.7855 12.8471 46.2402 13.0845 45.8296 13.5592C45.4318 14.034 45.2329 14.7012 45.2329 15.5609C45.2329 16.8055 45.7526 17.4278 46.7919 17.4278Z" fill="#333333"/>
<path d="M54.667 19.7567C54.2949 19.7567 54.0318 19.6797 53.8778 19.5257C53.7238 19.3718 53.6469 19.128 53.6469 18.7944V11.1149C53.6469 10.8839 53.6854 10.7299 53.7624 10.653C53.8522 10.5631 54.0318 10.5182 54.3013 10.5182H56.2836C56.4376 10.5182 56.5531 10.5439 56.6301 10.5952C56.7199 10.6337 56.7713 10.7107 56.784 10.8262L56.8804 11.4036C57.2397 11.0443 57.708 10.762 58.2854 10.5567C58.8756 10.3386 59.53 10.2295 60.2486 10.2295C61.2879 10.2295 62.1283 10.5246 62.7699 11.1149C63.4115 11.6923 63.7322 12.552 63.7322 13.694V18.7944C63.7322 19.128 63.6552 19.3718 63.5013 19.5257C63.3601 19.6797 63.1034 19.7567 62.7313 19.7567H60.8644C60.4923 19.7567 60.2228 19.6797 60.056 19.5257C59.902 19.3718 59.8251 19.128 59.8251 18.7944V13.9442C59.8251 13.5592 59.7417 13.2834 59.5749 13.1165C59.4081 12.9497 59.1451 12.8663 58.7858 12.8663C58.4009 12.8663 58.0928 12.969 57.8619 13.1743C57.6437 13.3796 57.5348 13.6619 57.5348 14.0211V18.7944C57.5348 19.128 57.4577 19.3718 57.3037 19.5257C57.1626 19.6797 56.906 19.7567 56.5339 19.7567H54.667Z" fill="#333333"/>
<path d="M70.5354 20.0454C68.739 20.0454 67.3532 19.6284 66.3781 18.7944C65.4029 17.9603 64.9153 16.7478 64.9153 15.1567C64.9153 14.1815 65.1399 13.3218 65.5889 12.5776C66.038 11.8334 66.686 11.256 67.5329 10.8454C68.3926 10.4348 69.4062 10.2295 70.5739 10.2295C71.4592 10.2295 72.2034 10.3129 72.8065 10.4797C73.4224 10.6465 73.9677 10.9032 74.4425 11.2496C74.5836 11.3394 74.6542 11.4549 74.6542 11.5961C74.6542 11.6987 74.6029 11.8334 74.5002 12.0002L73.7111 13.3668C73.6213 13.5464 73.5122 13.6362 73.3839 13.6362C73.3069 13.6362 73.185 13.5849 73.0182 13.4822C72.6718 13.2641 72.3446 13.1037 72.0366 13.0011C71.7415 12.8984 71.3694 12.8471 70.9203 12.8471C70.2787 12.8471 69.7591 13.0524 69.3613 13.463C68.9764 13.8736 68.7839 14.4382 68.7839 15.1567C68.7839 15.8881 68.9828 16.4527 69.3806 16.8504C69.7783 17.2354 70.3237 17.4278 71.0165 17.4278C71.4271 17.4278 71.7992 17.3701 72.1329 17.2546C72.4665 17.1391 72.8065 16.9787 73.1529 16.7734C73.3326 16.6708 73.4609 16.6195 73.5379 16.6195C73.6534 16.6195 73.756 16.7093 73.8458 16.8889L74.7119 18.3709C74.7761 18.4992 74.8082 18.6019 74.8082 18.6789C74.8082 18.7944 74.7312 18.9034 74.5772 19.0061C74.0383 19.3525 73.4481 19.6091 72.8065 19.7759C72.1778 19.9556 71.4207 20.0454 70.5354 20.0454Z" fill="#333333"/>
<path d="M79.6881 20.0454C78.482 20.0454 77.5132 19.6605 76.7819 18.8906C76.0633 18.1079 75.704 17.0108 75.704 15.5994C75.704 14.5216 75.9478 13.5785 76.4354 12.7701C76.9358 11.9617 77.6351 11.3394 78.5333 10.9032C79.4443 10.4541 80.4901 10.2295 81.6705 10.2295C82.6457 10.2295 83.5054 10.3386 84.2496 10.5567C85.0067 10.762 85.6995 11.0636 86.3283 11.4613V19.16C86.3283 19.4038 86.2834 19.5642 86.1935 19.6412C86.1037 19.7182 85.9241 19.7567 85.6546 19.7567H83.6915C83.5503 19.7567 83.4412 19.7374 83.3643 19.699C83.2873 19.6476 83.2231 19.5706 83.1718 19.468L82.9216 18.8906C82.5495 19.2884 82.1004 19.5771 81.5743 19.7567C81.0611 19.9492 80.4323 20.0454 79.6881 20.0454ZM81.1316 17.4278C81.632 17.4278 82.0234 17.3059 82.3057 17.0621C82.588 16.8184 82.7291 16.4719 82.7291 16.0228V13.0203C82.4853 12.9048 82.1774 12.8471 81.8053 12.8471C81.1252 12.8471 80.5799 13.0845 80.1693 13.5592C79.7715 14.034 79.5726 14.7012 79.5726 15.5609C79.5726 16.8055 80.0923 17.4278 81.1316 17.4278Z" fill="#333333"/>
<path d="M98.4184 19.0254C98.5082 19.1281 98.5531 19.2435 98.5531 19.3719C98.5531 19.4873 98.5146 19.5836 98.4377 19.6606C98.3607 19.7247 98.258 19.7568 98.1297 19.7568H95.1465C94.9668 19.7568 94.8321 19.744 94.7423 19.7183C94.6653 19.6798 94.5819 19.6092 94.4921 19.5066L91.8745 15.9459V18.7945C91.8745 19.1281 91.7975 19.3719 91.6435 19.5258C91.4896 19.6798 91.2265 19.7568 90.8544 19.7568H88.9875C88.6154 19.7568 88.3523 19.6798 88.1984 19.5258C88.0572 19.3719 87.9866 19.1281 87.9866 18.7945V7.65054C87.9866 7.31693 88.0636 7.07314 88.2176 6.91916C88.3716 6.75236 88.6282 6.66895 88.9875 6.66895H90.8544C91.2265 6.66895 91.4896 6.75236 91.6435 6.91916C91.7975 7.07314 91.8745 7.31693 91.8745 7.65054V14.0982L94.4151 10.7878C94.4921 10.6851 94.5755 10.6146 94.6653 10.5761C94.7551 10.5376 94.8898 10.5183 95.0695 10.5183H98.0527C98.181 10.5183 98.2773 10.5568 98.3414 10.6338C98.4184 10.698 98.4569 10.7878 98.4569 10.9033C98.4569 11.0316 98.412 11.1471 98.3222 11.2497L95.031 15.0221L98.4184 19.0254Z" fill="#333333"/>
<path d="M104.668 20.0454C103.59 20.0454 102.628 19.8658 101.781 19.5065C100.947 19.1472 100.286 18.6083 99.7985 17.8898C99.3109 17.1712 99.0671 16.2923 99.0671 15.2529C99.0671 13.6234 99.529 12.3788 100.453 11.5191C101.377 10.6594 102.705 10.2295 104.437 10.2295C106.131 10.2295 107.414 10.653 108.286 11.4998C109.172 12.3338 109.614 13.4951 109.614 14.9835C109.614 15.625 109.332 15.9458 108.767 15.9458H102.724C102.724 16.4976 102.929 16.921 103.34 17.2161C103.763 17.5112 104.398 17.6588 105.245 17.6588C105.771 17.6588 106.208 17.6139 106.554 17.5241C106.913 17.4214 107.273 17.2739 107.632 17.0814C107.786 17.0172 107.889 16.9852 107.94 16.9852C108.055 16.9852 108.152 17.0621 108.229 17.2161L108.883 18.4479C108.947 18.5762 108.979 18.6725 108.979 18.7366C108.979 18.8521 108.902 18.9612 108.748 19.0638C108.222 19.4103 107.626 19.6605 106.958 19.8144C106.291 19.9684 105.528 20.0454 104.668 20.0454ZM106.15 14.0404C106.15 13.5528 106.009 13.1743 105.726 12.9048C105.444 12.6354 105.021 12.5007 104.456 12.5007C103.892 12.5007 103.462 12.6418 103.167 12.9241C102.872 13.1935 102.724 13.5656 102.724 14.0404H106.15Z" fill="#333333"/>
<path d="M116.211 20.0456C115.133 20.0456 114.113 19.9365 113.151 19.7184C112.189 19.4874 111.412 19.1667 110.822 18.7561C110.604 18.6149 110.495 18.4674 110.495 18.3134C110.495 18.2107 110.533 18.1017 110.61 17.9862L111.553 16.4849C111.656 16.331 111.759 16.254 111.861 16.254C111.926 16.254 112.035 16.2989 112.189 16.3887C112.663 16.6582 113.202 16.8763 113.805 17.0431C114.408 17.2099 115.005 17.2933 115.595 17.2933C116.198 17.2933 116.641 17.2035 116.923 17.0238C117.218 16.8442 117.366 16.5555 117.366 16.1577C117.366 15.7728 117.206 15.4713 116.885 15.2531C116.577 15.035 115.993 14.7591 115.133 14.4255C113.837 13.9379 112.824 13.3926 112.092 12.7896C111.374 12.1737 111.015 11.3396 111.015 10.2875C111.015 9.01718 111.47 8.04843 112.381 7.38121C113.292 6.71398 114.505 6.38037 116.019 6.38037C117.071 6.38037 117.969 6.47661 118.713 6.66907C119.47 6.84871 120.112 7.131 120.638 7.51593C120.856 7.68274 120.965 7.83671 120.965 7.97786C120.965 8.06767 120.927 8.17032 120.85 8.2858L119.907 9.78705C119.791 9.94103 119.688 10.018 119.599 10.018C119.534 10.018 119.425 9.97311 119.271 9.88329C118.527 9.3957 117.642 9.15191 116.615 9.15191C116.064 9.15191 115.64 9.24173 115.345 9.42137C115.05 9.601 114.902 9.89612 114.902 10.3067C114.902 10.589 114.979 10.82 115.133 10.9996C115.287 11.1792 115.493 11.3396 115.749 11.4808C116.019 11.6091 116.429 11.7759 116.981 11.9812L117.347 12.1159C118.296 12.488 119.04 12.8473 119.579 13.1937C120.131 13.5273 120.548 13.9444 120.83 14.4448C121.113 14.9324 121.254 15.5483 121.254 16.2925C121.254 17.4344 120.824 18.3455 119.964 19.0255C119.117 19.7056 117.866 20.0456 116.211 20.0456Z" fill="#333333"/>
<path d="M125.343 19.7571C125.151 19.7571 125.003 19.725 124.9 19.6609C124.798 19.5967 124.721 19.4684 124.67 19.2759L122.187 10.9613C122.161 10.8843 122.148 10.8266 122.148 10.7881C122.148 10.6085 122.277 10.5186 122.533 10.5186H125.074C125.241 10.5186 125.362 10.5507 125.439 10.6149C125.516 10.6662 125.568 10.756 125.593 10.8843L126.633 15.2533L127.941 11.7312C128.006 11.5772 128.07 11.4746 128.134 11.4232C128.211 11.3591 128.339 11.327 128.519 11.327H129.731C129.911 11.327 130.033 11.3591 130.097 11.4232C130.174 11.4746 130.245 11.5772 130.309 11.7312L131.598 15.2533L132.657 10.8843C132.695 10.756 132.747 10.6662 132.811 10.6149C132.875 10.5507 132.991 10.5186 133.157 10.5186H135.717C135.974 10.5186 136.102 10.6085 136.102 10.7881C136.102 10.8266 136.089 10.8843 136.064 10.9613L133.562 19.2759C133.51 19.4684 133.433 19.5967 133.331 19.6609C133.241 19.725 133.1 19.7571 132.907 19.7571H131.021C130.841 19.7571 130.707 19.725 130.617 19.6609C130.527 19.5839 130.45 19.4556 130.386 19.2759L129.116 15.7923L127.845 19.2759C127.794 19.4556 127.717 19.5839 127.614 19.6609C127.524 19.725 127.39 19.7571 127.21 19.7571H125.343Z" fill="#333333"/>
<path d="M140.981 20.0454C139.775 20.0454 138.806 19.6605 138.075 18.8906C137.356 18.1079 136.997 17.0108 136.997 15.5994C136.997 14.5216 137.241 13.5785 137.728 12.7701C138.229 11.9617 138.928 11.3394 139.826 10.9032C140.737 10.4541 141.783 10.2295 142.963 10.2295C143.938 10.2295 144.798 10.3386 145.542 10.5567C146.299 10.762 146.992 11.0636 147.621 11.4613V19.16C147.621 19.4038 147.576 19.5642 147.486 19.6412C147.396 19.7182 147.217 19.7567 146.947 19.7567H144.984C144.843 19.7567 144.734 19.7374 144.657 19.699C144.58 19.6476 144.516 19.5706 144.465 19.468L144.214 18.8906C143.842 19.2884 143.393 19.5771 142.867 19.7567C142.354 19.9492 141.725 20.0454 140.981 20.0454ZM142.424 17.4278C142.925 17.4278 143.316 17.3059 143.598 17.0621C143.881 16.8184 144.022 16.4719 144.022 16.0228V13.0203C143.778 12.9048 143.47 12.8471 143.098 12.8471C142.418 12.8471 141.873 13.0845 141.462 13.5592C141.064 14.034 140.865 14.7012 140.865 15.5609C140.865 16.8055 141.385 17.4278 142.424 17.4278Z" fill="#333333"/>
<path d="M150.28 23.6445C149.908 23.6445 149.645 23.5676 149.491 23.4136C149.35 23.2596 149.279 23.0158 149.279 22.6822V11.6538C149.857 11.2432 150.582 10.9032 151.454 10.6337C152.327 10.3643 153.238 10.2295 154.187 10.2295C158.062 10.2295 160 11.8719 160 15.1567C160 16.6451 159.589 17.832 158.768 18.7174C157.947 19.6027 156.786 20.0454 155.284 20.0454C154.861 20.0454 154.45 19.9941 154.053 19.8914C153.668 19.7888 153.347 19.6476 153.09 19.468V22.6822C153.09 23.0158 153.013 23.2596 152.859 23.4136C152.705 23.5676 152.442 23.6445 152.07 23.6445H150.28ZM154.457 17.4471C155.009 17.4471 155.419 17.2418 155.689 16.8312C155.971 16.4078 156.112 15.8432 156.112 15.1375C156.112 14.3034 155.945 13.7196 155.612 13.386C155.291 13.0396 154.79 12.8663 154.11 12.8663C153.674 12.8663 153.328 12.9241 153.071 13.0396V16.0998C153.071 16.5361 153.193 16.8697 153.437 17.1006C153.681 17.3316 154.021 17.4471 154.457 17.4471Z" fill="#333333"/>
<path fill-rule="evenodd" clip-rule="evenodd" d="M4.38998 4.50033C4.01476 2.49106 5.55649 0.634766 7.60049 0.634766C9.40427 0.634766 10.8665 2.09701 10.8665 3.90078V7.92728C11.3177 7.89544 11.7761 7.87911 12.2404 7.87911C12.6865 7.87911 13.1272 7.89418 13.5612 7.9236V3.90078C13.5612 2.09701 15.0234 0.634766 16.8272 0.634766C18.8712 0.634766 20.4129 2.49106 20.0377 4.50033L19.1539 9.23326C22.1872 10.5576 24.4809 12.8577 24.4809 15.748V17.4966C24.4809 19.8734 22.9085 21.8634 20.7102 23.2068C18.4948 24.5606 15.4978 25.3654 12.2404 25.3654C8.98304 25.3654 5.98604 24.5606 3.77065 23.2068C1.57242 21.8634 0 19.8734 0 17.4966V15.748C0 12.873 2.2701 10.5817 5.27785 9.25477L4.38998 4.50033ZM18.0212 9.85508L19.0555 4.3169C19.3159 2.92236 18.2459 1.63399 16.8272 1.63399C15.5753 1.63399 14.5604 2.64886 14.5604 3.90078V9.02479C14.2324 8.98273 13.8991 8.9494 13.5612 8.92524C13.128 8.89426 12.6873 8.87833 12.2404 8.87833C11.7753 8.87833 11.3168 8.89559 10.8665 8.92912C10.5286 8.95429 10.1953 8.98862 9.86729 9.03169V3.90078C9.86729 2.64886 8.85241 1.63399 7.60049 1.63399C6.18184 1.63399 5.11179 2.92235 5.37222 4.3169L6.40988 9.87345C3.16599 11.0784 0.999219 13.2586 0.999219 15.748V17.4966C0.999219 21.2906 6.03208 24.3662 12.2404 24.3662C18.4488 24.3662 23.4817 21.2906 23.4817 17.4966V15.748C23.4817 13.2458 21.2927 11.0562 18.0212 9.85508Z" fill="#333333"/>
<path d="M23.4815 17.4967C23.4815 21.2907 18.4486 24.3663 12.2402 24.3663C6.03189 24.3663 0.999023 21.2907 0.999023 17.4967V15.748H23.4815V17.4967Z" fill="#8E8B85"/>
<path fill-rule="evenodd" clip-rule="evenodd" d="M5.37202 4.31671C5.1116 2.92216 6.18164 1.63379 7.6003 1.63379C8.85222 1.63379 9.8671 2.64867 9.8671 3.90059V9.0315C10.6321 8.93102 11.4261 8.87813 12.2402 8.87813C13.0356 8.87813 13.8116 8.9286 14.5602 9.02459V3.90059C14.5602 2.64867 15.5751 1.63379 16.827 1.63379C18.2457 1.63379 19.3157 2.92216 19.0553 4.31671L18.021 9.85488C21.2925 11.056 23.4815 13.2457 23.4815 15.7478C23.4815 19.5418 18.4486 22.6174 12.2402 22.6174C6.03189 22.6174 0.999023 19.5418 0.999023 15.7478C0.999023 13.2584 3.16579 11.0782 6.40968 9.87326L5.37202 4.31671Z" fill="white"/>
<path d="M9.11817 15.2485C9.11817 16.2833 8.55896 17.1221 7.86914 17.1221C7.17932 17.1221 6.62012 16.2833 6.62012 15.2485C6.62012 14.2138 7.17932 13.375 7.86914 13.375C8.55896 13.375 9.11817 14.2138 9.11817 15.2485Z" fill="#333333"/>
<path d="M17.7363 15.2485C17.7363 16.2833 17.1771 17.1221 16.4873 17.1221C15.7975 17.1221 15.2383 16.2833 15.2383 15.2485C15.2383 14.2138 15.7975 13.375 16.4873 13.375C17.1771 13.375 17.7363 14.2138 17.7363 15.2485Z" fill="#333333"/>
</svg>
