<svg width="168" height="31" viewBox="0 0 168 31" fill="none" xmlns="http://www.w3.org/2000/svg">
<path d="M73.0947 20.4626V14.3136C73.0947 11.9975 71.6341 10.4398 69.281 10.4192C68.6106 10.3751 67.9408 10.5135 67.3414 10.82C66.7419 11.1264 66.2348 11.5897 65.8729 12.1615C65.5431 11.6067 65.0713 11.1521 64.5072 10.8454C63.9431 10.5388 63.3076 10.3916 62.6677 10.4192C62.1099 10.3909 61.5544 10.5103 61.0563 10.7656C60.5582 11.0208 60.1347 11.4031 59.8277 11.8746V10.6652H57.7179V20.4626H59.8479V15.0309C59.8479 13.3297 60.7812 12.4281 62.2214 12.4281C63.6211 12.4281 64.3312 13.3503 64.3312 15.0105V20.4626H66.4612V15.0309C66.4612 13.3297 67.435 12.4281 68.8347 12.4281C70.2749 12.4281 70.9646 13.3503 70.9646 15.0105V20.4626H73.0947ZM104.619 10.6652H101.17V7.69332H99.0405V10.6652H97.0727V12.6124H99.0405V17.0806C99.0405 19.3558 99.9128 20.7086 102.408 20.7086C103.34 20.7114 104.254 20.4485 105.045 19.9502L104.437 18.1259C103.871 18.4669 103.229 18.6574 102.57 18.6794C101.515 18.6794 101.17 18.0234 101.17 17.0397V12.6124H104.619V10.6652ZM122.613 10.4192C122.098 10.4039 121.589 10.5291 121.14 10.7817C120.69 11.0342 120.316 11.4046 120.057 11.854V10.6652H117.967V20.4626H120.077V14.9694C120.077 13.3503 120.767 12.4484 122.146 12.4484C122.598 12.4421 123.046 12.5257 123.465 12.6944L124.114 10.6858C123.632 10.5115 123.125 10.4213 122.613 10.4192ZM95.4093 11.4442C94.2151 10.7267 92.842 10.3709 91.4535 10.4192C88.9988 10.4192 87.4166 11.608 87.4166 13.5552C87.4166 15.154 88.5932 16.1378 90.7636 16.4453L91.7578 16.5887C92.914 16.7526 93.4618 17.06 93.4618 17.6136C93.4618 18.3719 92.6908 18.8023 91.2506 18.8023C90.0921 18.836 88.956 18.475 88.025 17.7775L87.0311 19.4376C88.26 20.3049 89.732 20.7504 91.2303 20.7086C94.0297 20.7086 95.6526 19.3762 95.6526 17.511C95.6526 15.7893 94.3747 14.8874 92.2649 14.58L91.271 14.4365C90.3581 14.3136 89.6278 14.1292 89.6278 13.4734C89.6278 12.7559 90.3173 12.3255 91.4738 12.3255C92.5356 12.3416 93.5759 12.6309 94.4964 13.1659L95.4093 11.4442ZM151.926 10.4192C151.412 10.4039 150.903 10.5291 150.453 10.7816C150.003 11.0341 149.629 11.4046 149.37 11.854V10.6652H147.281V20.4626H149.39V14.9694C149.39 13.3503 150.08 12.4484 151.459 12.4484C151.911 12.4421 152.359 12.5257 152.778 12.6944L153.427 10.6858C152.946 10.5115 152.438 10.4213 151.926 10.4192ZM124.743 15.5638C124.743 18.5359 126.792 20.7086 129.916 20.7086C131.182 20.7729 132.427 20.3561 133.405 19.5402L132.391 17.8185C131.661 18.3802 130.772 18.6893 129.855 18.6997C128.171 18.6794 126.934 17.4495 126.934 15.5638C126.934 13.6783 128.171 12.4484 129.855 12.4281C130.772 12.4385 131.661 12.7476 132.391 13.3094L133.405 11.5876C132.427 10.7718 131.182 10.355 129.916 10.4192C126.792 10.4192 124.743 12.5919 124.743 15.5638ZM144.501 15.5638V10.6652H142.392V11.854C142.032 11.3851 141.566 11.0102 141.033 10.7606C140.5 10.511 139.915 10.3939 139.328 10.4192C136.61 10.4192 134.48 12.5715 134.48 15.5638C134.48 18.5563 136.61 20.7086 139.328 20.7086C139.915 20.7339 140.5 20.6169 141.033 20.3672C141.566 20.1176 142.032 19.7427 142.392 19.2738V20.4626H144.501V15.5638ZM136.651 15.5638C136.651 13.8421 137.766 12.4281 139.592 12.4281C141.337 12.4281 142.513 13.7807 142.513 15.5638C142.513 17.347 141.337 18.6997 139.592 18.6997C137.766 18.6997 136.651 17.2855 136.651 15.5638ZM111.192 10.4192C108.352 10.4192 106.364 12.5099 106.364 15.5638C106.364 18.6794 108.433 20.7086 111.334 20.7086C112.781 20.7599 114.197 20.271 115.31 19.3353L114.275 17.757C113.474 18.4057 112.482 18.7663 111.455 18.7818C110.096 18.7818 108.859 18.1465 108.555 16.3837H115.756C115.776 16.1173 115.797 15.8509 115.797 15.5638C115.776 12.5099 113.91 10.4192 111.192 10.4192ZM111.151 12.3255C112.51 12.3255 113.383 13.1863 113.606 14.7031H108.575C108.798 13.2888 109.65 12.3255 111.151 12.3255ZM164.077 15.5638V6.72998H161.968V11.854C161.608 11.3851 161.142 11.0102 160.609 10.7606C160.076 10.511 159.491 10.3939 158.905 10.4192C156.186 10.4192 154.056 12.5715 154.056 15.5638C154.056 18.5563 156.186 20.7086 158.905 20.7086C159.491 20.7339 160.076 20.6168 160.609 20.3672C161.142 20.1176 161.608 19.7427 161.968 19.2738V20.4626H164.077V15.5638ZM156.227 15.5638C156.227 13.8421 157.343 12.4281 159.168 12.4281C160.913 12.4281 162.089 13.7807 162.089 15.5638C162.089 17.347 160.913 18.6997 159.168 18.6997C157.343 18.6997 156.227 17.2855 156.227 15.5638ZM84.9823 15.5638V10.6652H82.8725V11.854C82.5124 11.3851 82.0464 11.0102 81.5134 10.7606C80.9805 10.511 80.3961 10.3939 79.8093 10.4192C77.091 10.4192 74.961 12.5715 74.961 15.5638C74.961 18.5563 77.091 20.7086 79.8093 20.7086C80.3961 20.7339 80.9805 20.6169 81.5134 20.3673C82.0464 20.1176 82.5124 19.7427 82.8725 19.2738V20.4626H84.9823V15.5638ZM77.1317 15.5638C77.1317 13.8421 78.2474 12.4281 80.0731 12.4281C81.8176 12.4281 82.9942 13.7807 82.9942 15.5638C82.9942 17.347 81.8176 18.6997 80.0731 18.6997C78.2474 18.6997 77.1317 17.2855 77.1317 15.5638ZM166.533 20.4677H166.441V19.9962L166.276 20.4118H166.179L166.013 20.001V20.4677H165.922V19.8947H166.062L166.227 20.3039L166.392 19.8947H166.533V20.4677ZM166.912 19.8947C166.953 19.8942 166.994 19.9013 167.032 19.9155C167.067 19.928 167.099 19.9476 167.125 19.973C167.151 19.9985 167.172 20.0295 167.185 20.0637C167.2 20.1011 167.207 20.141 167.206 20.1812C167.207 20.2215 167.199 20.2616 167.185 20.2991C167.172 20.3332 167.151 20.364 167.125 20.3894C167.099 20.415 167.067 20.4347 167.032 20.4474C166.994 20.4614 166.953 20.4683 166.912 20.4677H166.687V19.8947H166.912ZM166.778 19.9826V20.3802H166.912C166.941 20.3808 166.971 20.3756 166.999 20.365C167.022 20.3565 167.043 20.3427 167.06 20.3247C167.077 20.3066 167.09 20.2849 167.098 20.2611C167.106 20.2354 167.11 20.2084 167.11 20.1812C167.11 20.1539 167.106 20.1268 167.098 20.1009C167.09 20.0777 167.077 20.0564 167.061 20.0385C167.043 20.0203 167.022 20.0061 166.999 19.997C166.971 19.9869 166.941 19.982 166.912 19.9826H166.778Z" fill="#333333"/>
<path d="M30.8001 3.91797H18.0421V27.0824H30.8001V3.91797Z" fill="#504E4E"/>
<path d="M18.8521 15.5C18.8501 13.2691 19.3505 11.0669 20.3153 9.06029C21.2801 7.05365 22.6841 5.29509 24.4211 3.91775C22.2701 2.20952 19.6869 1.1472 16.9667 0.852204C14.2464 0.557209 11.4989 1.04143 9.0382 2.24955C6.57747 3.45767 4.50279 5.34094 3.0513 7.68408C1.59981 10.0272 0.830078 12.7357 0.830078 15.5C0.830078 18.2642 1.59981 20.9727 3.0513 23.3158C4.50279 25.659 6.57747 27.5422 9.0382 28.7504C11.4989 29.9585 14.2464 30.4427 16.9667 30.1477C19.6869 29.8527 22.2701 28.7904 24.4211 27.0822C22.6842 25.7048 21.2801 23.9462 20.3153 21.9396C19.3505 19.933 18.8501 17.7308 18.8521 15.5Z" fill="#333333"/>
<path d="M46.9375 24.6396H46.846V24.1681L46.6802 24.5837H46.584L46.4182 24.1729V24.6396H46.3267V24.0666H46.4673L46.632 24.4758L46.7969 24.0666H46.9375V24.6396ZM47.3576 24.0562C47.3821 24.0562 47.4065 24.0588 47.4304 24.0642C47.4531 24.0695 47.4752 24.0775 47.496 24.0881C47.5159 24.0983 47.5344 24.1109 47.5512 24.1257C47.5673 24.1403 47.5812 24.1573 47.5923 24.1761L47.5158 24.2276C47.4989 24.2022 47.4761 24.1813 47.4494 24.1669C47.4211 24.1519 47.3895 24.1443 47.3576 24.1449C47.3301 24.1447 47.3028 24.1498 47.2773 24.1601C47.2535 24.1697 47.2319 24.1841 47.2138 24.2024C47.1956 24.2214 47.1814 24.2438 47.1719 24.2684C47.1516 24.323 47.1516 24.3832 47.1719 24.4378C47.1814 24.4624 47.1956 24.4848 47.2138 24.5037C47.2319 24.5222 47.2535 24.5368 47.2773 24.5465C47.3029 24.5566 47.3301 24.5617 47.3576 24.5613C47.3886 24.562 47.4192 24.5548 47.4468 24.5405C47.4743 24.5262 47.4979 24.5052 47.5154 24.4794L47.5899 24.5345C47.5779 24.5525 47.5635 24.5687 47.5473 24.5829C47.5307 24.5972 47.5125 24.6094 47.4931 24.6193C47.4726 24.6293 47.4511 24.6371 47.429 24.6424C47.4056 24.6477 47.3816 24.6504 47.3576 24.6504C47.3165 24.6508 47.2758 24.6432 47.2375 24.6281C47.2024 24.6142 47.1705 24.5932 47.1438 24.5663C47.1171 24.5394 47.0963 24.5072 47.0825 24.4718C47.0532 24.3954 47.0532 24.3108 47.0825 24.2344C47.0964 24.1992 47.1172 24.1673 47.1436 24.1405C47.1705 24.1137 47.2024 24.0926 47.2375 24.0786C47.2757 24.0632 47.3165 24.0556 47.3576 24.0562Z" fill="#F79E1B"/>
<path d="M48.0114 15.4999C48.0115 18.2642 47.2419 20.9726 45.7905 23.3158C44.339 25.6589 42.2644 27.5422 39.8037 28.7503C37.3431 29.9584 34.5956 30.4427 31.8754 30.1477C29.1552 29.8527 26.572 28.7904 24.4211 27.0821C26.1565 25.7034 27.5595 23.9446 28.5241 21.9383C29.4888 19.9319 29.99 17.7305 29.99 15.4999C29.99 13.2694 29.4888 11.068 28.5241 9.06164C27.5595 7.05532 26.1565 5.29648 24.4211 3.91775C26.572 2.20951 29.1552 1.14719 31.8754 0.8522C34.5956 0.557209 37.3431 1.04145 39.8037 2.24959C42.2644 3.45772 44.339 5.34098 45.7905 7.68413C47.2419 10.0273 48.0115 12.7357 48.0114 15.4999Z" fill="#989898"/>
</svg>
