<svg width="75" height="24" viewBox="0 0 75 24" fill="none" xmlns="http://www.w3.org/2000/svg">
<g clip-path="url(#clip0)">
<path d="M32.5 23.654H26.4244L30.2245 0.421387H36.2997L32.5 23.654Z" fill="#333333"/>
<path d="M54.5242 0.989106C53.3259 0.519026 51.4252 0 49.075 0C43.0752 0 38.8502 3.16343 38.8243 7.68618C38.7744 11.0231 41.8493 12.8764 44.149 13.9891C46.4995 15.126 47.2985 15.8681 47.2985 16.8815C47.2746 18.4379 45.3992 19.1553 43.65 19.1553C41.2243 19.1553 39.9246 18.7854 37.9495 17.9195L37.1495 17.5483L36.2993 22.7635C37.7243 23.4054 40.3496 23.975 43.0752 24C49.4501 24 53.6003 20.8855 53.6495 16.0658C53.6737 13.4211 52.0501 11.3946 48.5497 9.73863C46.4248 8.67561 45.1234 7.95883 45.1234 6.87118C45.1483 5.8824 46.2241 4.86964 48.6228 4.86964C50.5979 4.82004 52.0491 5.28946 53.1485 5.75921L53.698 6.00591L54.5242 0.989106Z" fill="#333333"/>
<path d="M62.5992 15.4235C63.0995 14.0888 65.0248 8.92322 65.0248 8.92322C64.9996 8.97283 65.5241 7.5639 65.8242 6.69897L66.2487 8.70083C66.2487 8.70083 67.3993 14.262 67.6491 15.4235C66.6996 15.4235 63.7992 15.4235 62.5992 15.4235ZM70.0986 0.421387H65.3992C63.95 0.421387 62.849 0.841206 62.2238 2.34901L53.1993 23.6537H59.5742C59.5742 23.6537 60.6237 20.7862 60.8493 20.1687C61.5487 20.1687 67.7501 20.1687 68.6498 20.1687C68.8242 20.9843 69.3747 23.6537 69.3747 23.6537H75.0001L70.0986 0.421387Z" fill="#333333"/>
<path d="M21.3499 0.421387L15.4 16.2638L14.7498 13.0508C13.6498 9.34337 10.1999 5.31534 6.34998 3.31249L11.7999 23.6294H18.2246L27.7743 0.421387H21.3499Z" fill="#333333"/>
<path d="M9.87493 0.421387H0.100001L0 0.890809C7.62506 2.81876 12.675 7.46601 14.7498 13.0518L12.6248 2.3743C12.275 0.890481 11.1999 0.470333 9.87493 0.421387Z" fill="#BABABA"/>
</g>
<defs>
<clipPath id="clip0">
<rect width="75" height="24" fill="white"/>
</clipPath>
</defs>
</svg>
