<svg width="152" height="38" viewBox="0 0 152 38" fill="none" xmlns="http://www.w3.org/2000/svg">
<path d="M152 0H114.362V38H152V0Z" fill="#F4F4F4"/>
<path d="M145.782 19.1515C146.292 19.536 146.825 19.8073 146.825 20.418C146.825 20.5989 146.603 20.7798 146.115 20.7798C145.738 20.7798 145.339 20.6667 145.139 20.3954C144.984 20.1918 145.206 19.8978 145.073 19.6943C144.962 19.5133 144.74 19.6038 144.585 19.5133C144.408 19.4003 144.385 19.3324 144.252 19.061C144.119 18.7444 143.654 18.2242 143.099 17.6589C142.634 17.1839 142.146 16.9351 141.924 16.9578C141.769 16.9804 141.725 16.9804 141.569 16.9804C141.17 16.9804 140.838 17.3648 140.261 17.6136C139.862 17.7945 139.64 17.885 139.396 17.9302L139.308 18.0433L139.818 18.0207C140.305 18.0207 140.926 17.9529 141.414 17.9529C141.902 17.9529 142.146 18.4052 142.345 18.8801C142.722 19.83 143.277 21.2095 143.964 22.3629C144.297 22.9057 144.563 23.2449 144.563 23.9234C144.563 24.1269 144.541 24.4209 144.275 24.4209C143.898 24.4209 142.944 24.0139 142.944 23.5842C142.944 23.2449 143.21 23.1092 143.21 22.77C143.21 22.5665 142.9 22.5891 142.833 22.4082C142.589 21.3904 142.301 20.3727 141.747 19.7621C141.458 19.4455 141.414 19.3098 141.126 19.3098C140.971 19.3098 140.815 19.355 140.682 19.4003C139.906 19.6943 138.864 20.5989 137.556 20.9834C137.068 21.1417 136.979 20.8477 136.469 20.9381H136.514C136.092 21.0286 135.782 21.2774 135.205 21.4357C134.429 21.6618 133.077 21.7749 131.99 21.6166C131.214 21.5035 130.216 21.3452 129.795 21.3678C129.462 22.3177 128.775 23.5842 127.733 24.0817C127.178 24.3305 127.023 24.6697 127.178 25.303C127.378 26.0945 128.065 26.6599 128.42 27.3384C128.753 27.9038 129.285 28.831 129.839 29.125C130.394 29.419 130.748 29.8487 130.748 30.2332C130.748 30.4141 130.682 30.5046 130.505 30.5046H129.374C129.196 30.5046 129.108 30.3915 129.085 30.3237C128.93 30.0296 129.041 29.7583 128.819 29.4869C128.664 29.3059 128.553 29.3512 128.354 29.1929C128.021 28.8536 128.265 28.6727 128.021 28.243C127.311 27.0896 127.001 26.8182 126.402 25.9814C126.07 25.5517 125.648 25.3256 125.648 24.7602C125.648 24.0591 126.336 23.946 126.314 23.2449C125.87 23.5842 125.36 23.8329 124.562 23.946C124.451 23.9686 124.185 24.1722 124.074 24.3079C123.808 24.5793 123.697 24.8733 123.653 25.2803C123.564 26.2302 123.387 27.1801 123.498 28.1299C123.653 28.7406 123.764 28.9441 124.251 29.2833C124.562 29.4869 124.917 29.7809 124.961 30.2332C124.961 30.3463 124.917 30.5046 124.761 30.5046H123.542C123.431 30.5046 123.32 30.4141 123.276 30.3463C123.143 30.0975 123.231 29.9392 123.165 29.6452C123.054 29.0798 122.411 29.1024 122.411 28.5144C122.411 28.3335 122.522 28.1073 122.522 27.7455C122.566 26.9539 122.788 25.6422 122.566 24.0817C122.455 23.1771 123.387 23.1319 123.874 22.3403C124.163 21.888 124.074 22.0689 124.251 21.7523C124.429 21.4131 124.384 21.1643 124.362 20.9607C124.362 20.6894 124.096 20.1466 124.274 19.0158C124.34 18.5182 124.584 17.9981 124.917 17.5684C124.917 17.5458 124.917 17.4779 124.806 17.4779C124.318 17.5232 124.318 17.3875 124.008 17.3875C123.697 17.3875 123.453 17.6588 123.409 17.7945C123.254 17.7267 123.187 17.5458 123.187 17.4553C123.187 17.2744 123.231 17.1161 123.387 16.9578C123.453 16.8899 123.387 16.8447 123.298 16.8447C122.921 16.8447 122.566 17.3196 122.477 17.6362C122.256 17.591 122.234 17.297 122.145 17.297C122.034 17.297 121.967 17.4553 121.967 17.6136C121.967 18.7218 123.741 18.9706 123.741 20.4406C123.741 22.1368 121.746 21.7749 121.746 22.3855C121.746 22.4986 121.834 22.6117 121.99 22.6795C121.923 22.8378 121.746 22.9057 121.568 22.9057C121.125 22.9057 120.792 22.5665 120.792 22.1141C120.792 21.1869 122.012 21.1643 122.012 20.4632C122.012 20.124 121.812 20.0335 121.613 19.8752C120.46 19.0384 119.794 18.2016 119.794 16.8221C119.794 15.3294 120.814 14.1986 122.123 14.1986C124.03 14.1986 124.096 16.4602 125.826 16.6411C126.469 16.1888 127.245 15.9174 127.999 15.9174C129.13 15.9174 129.618 16.2114 130.815 16.2114C131.303 16.2114 132.101 16.0757 133.055 15.3973C133.409 15.1485 133.565 15.1033 133.897 14.8093C134.651 14.1534 135.361 12.8643 135.361 11.9371V11.9823C135.361 11.6883 135.294 11.5074 135.161 11.5074C134.762 11.5074 134.385 11.8918 133.986 12.2989C133.72 12.5703 134.119 12.706 133.542 13.0226C133.343 13.1357 133.099 12.9322 132.877 12.9322C132.411 12.9322 132.212 12.3668 132.212 11.8918C132.212 11.6431 132.389 11.5752 132.5 11.3491C132.744 10.8741 132.722 10.6932 132.944 10.2409C133.077 9.92427 133.321 9.72073 133.298 9.49458C133.298 9.40411 133.232 9.35888 133.232 9.26842C133.232 8.79349 133.853 8.47687 133.853 8.00194C133.853 7.73055 133.565 7.61747 133.498 7.41393C133.431 7.21039 133.476 7.14254 133.476 7.14254C133.498 7.09731 133.52 7.09731 133.565 7.09731C133.808 7.09731 133.897 7.3687 134.119 7.50439C134.141 7.18777 134.03 7.11993 134.03 6.89377C134.03 6.78069 134.008 6.57715 134.141 6.57715C134.296 6.57715 134.274 6.78069 134.407 6.89377C134.585 7.02946 134.74 7.00685 134.917 7.14254C135.161 7.30085 135.294 7.57224 135.383 7.57224C135.627 7.61747 135.693 7.30085 135.56 7.14254C135.826 7.11993 136.115 7.34608 136.469 7.34608C137.024 7.34608 137.223 7.50439 137.334 7.59486C137.689 7.91148 137.755 8.16025 138.155 8.16025C138.354 8.16025 138.465 7.97932 138.509 7.91148C138.775 8.11502 138.798 8.63518 138.509 9.08749C138.62 9.44934 139.13 9.49458 139.374 9.6755C139.618 9.85643 139.574 9.94689 139.751 10.0374C139.884 10.1278 140.017 10.1052 140.106 10.0374C140.217 10.5349 139.818 10.9646 139.308 11.0324C139.33 11.6657 139.973 12.0502 140.261 12.2085C140.084 12.5929 139.773 12.706 139.507 12.7739C139.596 13.1583 139.995 13.7237 139.795 14.2213C139.618 14.1308 139.33 14.2213 139.33 14.4926C139.33 14.8093 139.729 14.9676 139.308 15.1937C139.13 15.3068 139.086 15.5782 139.418 15.8496C139.862 15.7365 140.283 15.7365 140.793 15.7365C141.104 15.7365 141.503 15.6461 141.791 15.6461C142.301 15.6461 142.612 15.8496 142.989 16.2793C143.942 17.297 144.807 18.4052 145.782 19.1515Z" fill="#333333"/>
<path d="M120.393 16.3696C120.593 16.3696 120.97 15.2162 121.746 15.2162C121.967 15.2162 122.012 15.3067 122.012 15.3971C122.012 15.5554 121.746 15.6911 121.746 15.8947C121.746 15.9399 121.768 15.9851 121.834 15.9851C122.012 15.9851 122.167 15.5554 122.921 15.5554C123.12 15.5554 123.298 15.5781 123.475 15.6233C123.564 15.6459 123.741 15.7364 123.653 15.4876C123.475 14.9448 122.877 14.4473 122.056 14.4473C121.236 14.4473 120.371 15.1936 120.282 16.0982C120.304 16.2565 120.304 16.3696 120.393 16.3696Z" fill="#6D6E70"/>
<path d="M134.585 9.17781C134.363 9.08735 134.318 8.97427 134.407 8.68027C134.451 8.38626 134.474 8.25057 134.341 8.22795C134.23 8.18272 134.075 8.27318 133.919 8.43149C133.786 8.61242 133.565 8.86119 133.498 9.04212C133.431 9.29089 133.72 9.24566 133.52 9.65274C133.165 10.3086 133.077 10.4669 132.899 10.9192C132.744 11.4168 132.633 11.4846 132.545 11.6429C132.434 11.7786 132.678 11.8012 132.944 11.7108C133.232 11.5977 133.254 11.9595 133.143 12.2083C133.055 12.3892 133.121 12.4571 133.365 12.2536C133.587 12.0726 133.254 11.9369 133.321 11.3715C133.409 10.874 133.498 10.58 133.808 10.0824C134.075 9.65274 134.296 9.33612 134.74 9.49443C134.917 9.5849 134.828 9.29089 134.585 9.17781Z" fill="#6D6E70"/>
<path d="M144.097 23.9912C144.186 23.9912 144.208 23.8781 144.208 23.765C144.208 23.5163 144.075 23.1544 143.876 22.9961C143.831 23.3579 143.654 23.6067 143.654 23.765C143.654 23.8781 143.986 23.9912 144.097 23.9912Z" fill="#6D6E70"/>
<path d="M146.226 20.4856C146.359 20.4856 146.559 20.4403 146.559 20.3272C146.559 20.1237 146.248 19.7618 145.982 19.6714C146.159 20.0332 145.982 20.4856 146.226 20.4856Z" fill="#6D6E70"/>
<path d="M136.824 15.7134C138.753 16.6181 138.642 18.269 138.798 17.8619C138.864 17.681 139.13 16.8669 138.443 16.0753C137.911 15.4421 137.711 15.6004 137.911 15.0802C138.753 12.9996 139.286 9.85598 136.758 8.77042C136.469 8.65734 136.225 8.65734 136.225 8.70257C136.225 8.74781 136.492 8.83827 136.824 9.06443C138.509 10.1952 137.977 13.2936 136.447 14.7862C135.959 15.3064 136.203 15.4194 136.824 15.7134Z" fill="#6D6E70"/>
<path d="M130.216 30.1876C130.349 30.1876 130.283 29.984 130.238 29.8936C130.128 29.69 129.906 29.5543 129.706 29.4639C129.751 29.6674 129.773 30.1876 129.972 30.1876H130.216Z" fill="#6D6E70"/>
<path d="M124.385 30.1876C124.518 30.1876 124.429 29.984 124.362 29.8936C124.251 29.69 124.008 29.5543 123.808 29.4639C123.852 29.6674 123.897 30.1876 124.096 30.1876H124.385Z" fill="#6D6E70"/>
<path d="M131.458 18.3599C132.522 18.2468 132.7 17.9981 132.877 17.1839C132.966 16.7994 133.232 16.3923 133.476 16.1436C133.631 15.9626 133.786 15.8269 133.941 15.5782C133.986 15.4651 134.03 15.3972 133.941 15.4199C133.831 15.5103 133.454 15.7591 133.298 15.8722C132.545 16.415 131.391 16.6637 130.948 16.6637C129.972 16.6637 129.13 16.3697 128.243 16.3697C125.582 16.3697 124.584 18.4956 124.717 19.7395C124.739 19.943 124.761 19.943 124.828 19.943C125.005 19.943 125.183 19.2193 125.848 18.5634C126.824 17.6136 127.888 17.0708 129.396 17.0708C130.482 17.0708 130.948 17.4327 130.948 17.5684C130.948 17.8397 130.482 17.8624 130.527 18.1337C130.505 18.2468 130.748 18.4504 131.458 18.3599Z" fill="#6D6E70"/>
<path fill-rule="evenodd" clip-rule="evenodd" d="M96.6338 19.1606L101.605 13.9993H99.0699L94.5963 18.8365H94.5524L94.5497 13.999H92.6759L92.6767 24.7682H94.5524V19.5434H94.5963L99.3627 24.7682H102.025L96.6338 19.1606Z" fill="#333333"/>
<path fill-rule="evenodd" clip-rule="evenodd" d="M90.4145 13.999H88.5242L88.5261 21.7682H88.4965L83.9676 13.999H81.5115V24.7678H83.3465V16.7468H83.376L88.0082 24.7678H90.4137L90.4145 13.999Z" fill="#333333"/>
<path fill-rule="evenodd" clip-rule="evenodd" d="M75.0511 20.8384C74.4776 20.836 73.9562 20.7997 73.3991 20.6914L75.0511 16.4347L76.7034 20.6914C76.1464 20.7997 75.6245 20.836 75.0511 20.8384ZM75.0511 22.4783C75.8337 22.4751 76.6137 22.402 77.2936 22.2135L78.2849 24.768H80.505L75.8726 13.999H74.2299L69.5978 24.768H71.8174L72.8086 22.2135C73.489 22.402 74.269 22.4751 75.0511 22.4783Z" fill="#333333"/>
<path fill-rule="evenodd" clip-rule="evenodd" d="M66.9861 19.0943V19.0642C68.1249 18.7229 68.8504 17.9203 68.8504 16.658C68.8504 14.7565 67.1783 13.999 65.5652 13.999H61.3774V24.7682H65.2544C67.2665 24.7691 69.3088 23.9364 69.3088 21.7084C69.3088 20.1935 68.3766 19.2876 66.9861 19.0943ZM63.286 15.6175H64.8253C66.2603 15.6175 66.9414 15.9597 66.9414 16.9104C66.9414 17.8466 66.2603 18.3812 64.9882 18.3812H63.286V15.6175ZM65.0027 23.1497H63.286V20.0151H65.0769C66.601 20.0151 67.4 20.4163 67.4 21.5157C67.4 22.9566 66.0241 23.1497 65.0027 23.1497Z" fill="#333333"/>
<path fill-rule="evenodd" clip-rule="evenodd" d="M51.9135 18.4101C50.9237 18.0982 50.3643 17.92 49.9966 17.6822C49.6294 17.4448 49.5174 17.1774 49.5174 16.8803C49.5174 16.4348 49.7733 16.1377 50.1406 15.9594C50.5078 15.7812 51.0344 15.7071 51.4663 15.7071C52.1533 15.7071 52.9786 15.8687 53.8093 16.1416L54.4849 14.5778C53.67 14.1619 52.5528 13.9092 51.4984 13.9092C50.4281 13.9092 49.4693 14.1766 48.7835 14.6375C47.9685 15.1871 47.5374 15.9746 47.5374 16.9549C47.5374 18.7967 49.0862 19.5247 50.6193 20.0149C51.2589 20.223 51.9135 20.4005 52.3607 20.6685C52.7919 20.9208 53.0474 21.2627 53.0474 21.7232C53.0474 22.2282 52.7278 22.5846 52.4248 22.7631C52.0573 22.9855 51.4505 23.0897 50.8275 23.0897C49.3898 23.0897 48.3672 22.5397 47.6493 22.02L46.9357 23.6659C47.8455 24.3544 49.3898 24.8871 50.939 24.8871C53.287 24.8871 55.0918 23.6394 55.0918 21.619C55.0918 19.8071 53.638 18.9601 51.9135 18.4101Z" fill="#333333"/>
<path fill-rule="evenodd" clip-rule="evenodd" d="M40.6405 13.999L37.429 13.9993V24.7681H40.8476C44.0144 24.7692 46.3521 22.5257 46.3521 19.3018C46.3521 16.1381 44.1174 13.999 40.6405 13.999ZM40.8476 22.8817H39.3676V15.8857H40.6553C42.8895 15.8857 44.325 17.1184 44.325 19.3173C44.325 21.4115 43.0226 22.8817 40.8476 22.8817Z" fill="#333333"/>
<path fill-rule="evenodd" clip-rule="evenodd" d="M31.1337 19.3156C32.3338 17.5673 33.2118 16.1278 33.9436 13.999H36.1974C35.1434 16.6857 33.8999 18.7866 32.1435 21.2104V24.7678H30.1238V21.2104C28.3674 18.7866 27.124 16.6857 26.0701 13.999H28.3237C29.0556 16.1278 29.9336 17.5673 31.1337 19.3156Z" fill="#333333"/>
<path fill-rule="evenodd" clip-rule="evenodd" d="M20.7584 13.8848C17.4793 13.8848 15.3031 16.3352 15.3031 19.4058C15.3031 22.4319 17.4203 24.8825 20.7141 24.8825C23.9936 24.8825 26.1555 22.4319 26.1555 19.3614C26.1555 16.3202 24.0231 13.8848 20.7584 13.8848ZM20.7291 23.0365C18.5528 23.0365 17.3026 21.428 17.3026 19.3762C17.3026 17.339 18.5528 15.7297 20.7141 15.7297C22.9054 15.7297 24.1552 17.3831 24.1552 19.4058C24.1552 21.428 22.9054 23.0365 20.7291 23.0365Z" fill="#333333"/>
<path fill-rule="evenodd" clip-rule="evenodd" d="M8.28088 24.7678H14.3082L14.9643 22.8517H10.2493V13.999H8.28088V24.7678Z" fill="#333333"/>
<path fill-rule="evenodd" clip-rule="evenodd" d="M0 24.7678H6.02716L6.68343 22.8517H1.96828V13.999H0V24.7678Z" fill="#333333"/>
</svg>
