<svg width="168" height="32" viewBox="0 0 168 32" fill="none" xmlns="http://www.w3.org/2000/svg">
<path d="M147.738 16.1356C146.875 15.5702 145.924 15.1682 145.023 14.6656C144.439 14.3389 143.817 14.0498 143.31 13.6352C142.446 12.9316 142.624 11.5495 143.526 10.9463C144.82 10.0919 146.964 10.5693 147.192 12.3159C147.192 12.3535 147.231 12.3787 147.269 12.3787H149.223C149.274 12.3787 149.312 12.341 149.299 12.2908C149.198 11.0845 148.728 10.0793 147.865 9.43847C147.04 8.82279 146.101 8.49609 145.098 8.49609C139.934 8.49609 139.464 13.9116 142.243 15.6205C142.561 15.8216 145.289 17.1785 146.254 17.7691C147.218 18.3596 147.523 19.4403 147.104 20.2947C146.723 21.0737 145.733 21.614 144.744 21.5512C143.664 21.4884 142.827 20.9104 142.535 20.0057C142.485 19.8424 142.459 19.5282 142.459 19.39C142.459 19.3523 142.421 19.3146 142.383 19.3146H140.264C140.226 19.3146 140.188 19.3523 140.188 19.39C140.188 20.9104 140.569 21.7522 141.609 22.5188C142.586 23.2475 143.652 23.5491 144.756 23.5491C147.65 23.5491 149.147 21.9281 149.451 20.2444C149.717 18.5984 149.223 17.1157 147.738 16.1356Z" fill="#333333"/>
<path d="M55.73 8.77295H54.7911H53.7633C53.7252 8.77295 53.6998 8.79807 53.6871 8.82321L51.9488 14.5026C51.9234 14.5781 51.8219 14.5781 51.7965 14.5026L50.0581 8.82321C50.0454 8.78551 50.02 8.77295 49.9819 8.77295H48.9542H48.0151H46.7462C46.7081 8.77295 46.67 8.81064 46.67 8.84833V23.3485C46.67 23.3861 46.7081 23.4238 46.7462 23.4238H48.8653C48.9034 23.4238 48.9415 23.3861 48.9415 23.3485V12.3288C48.9415 12.2409 49.0683 12.2284 49.0937 12.3037L50.8447 18.0209L50.9716 18.4229C50.9843 18.4606 51.0097 18.4732 51.0478 18.4732H52.672C52.71 18.4732 52.7354 18.448 52.7481 18.4229L52.875 18.0209L54.6261 12.3037C54.6515 12.2158 54.7784 12.2409 54.7784 12.3288V23.3485C54.7784 23.3861 54.8165 23.4238 54.8545 23.4238H56.9736C57.0116 23.4238 57.0497 23.3861 57.0497 23.3485V8.84833C57.0497 8.81064 57.0116 8.77295 56.9736 8.77295H55.73Z" fill="#333333"/>
<path d="M115.292 8.77295C115.254 8.77295 115.228 8.79807 115.216 8.82321L113.478 14.5026C113.453 14.5781 113.351 14.5781 113.326 14.5026L111.587 8.82321C111.574 8.78551 111.549 8.77295 111.511 8.77295H108.288C108.25 8.77295 108.212 8.81064 108.212 8.84833V23.3485C108.212 23.3861 108.25 23.4238 108.288 23.4238H110.407C110.445 23.4238 110.483 23.3861 110.483 23.3485V12.3288C110.483 12.2409 110.61 12.2284 110.636 12.3037L112.386 18.0209L112.513 18.4229C112.526 18.4606 112.551 18.4732 112.589 18.4732H114.214C114.252 18.4732 114.277 18.448 114.29 18.4229L114.417 18.0209L116.168 12.3037C116.193 12.2158 116.32 12.2409 116.32 12.3288V23.3485C116.32 23.3861 116.359 23.4238 116.397 23.4238H118.515C118.553 23.4238 118.591 23.3861 118.591 23.3485V8.84833C118.591 8.81064 118.553 8.77295 118.515 8.77295H115.292Z" fill="#333333"/>
<path d="M87.96 8.77295H84.0137H81.8946H77.9484C77.9103 8.77295 77.8722 8.81064 77.8722 8.84833V10.6577C77.8722 10.6954 77.9103 10.7331 77.9484 10.7331H81.8185V23.3485C81.8185 23.3861 81.8565 23.4238 81.8946 23.4238H84.0137C84.0518 23.4238 84.0898 23.3861 84.0898 23.3485V10.7331H87.96C87.9981 10.7331 88.0361 10.6954 88.0361 10.6577V8.84833C88.0361 8.81064 88.0108 8.77295 87.96 8.77295Z" fill="#333333"/>
<path d="M100.459 23.4233H102.387C102.438 23.4233 102.476 23.3731 102.463 23.3228L98.4793 8.77243C98.4666 8.73473 98.4412 8.72217 98.4031 8.72217H97.6673H96.3731H95.6371C95.599 8.72217 95.5736 8.7473 95.5609 8.77243L91.5766 23.3228C91.5639 23.3731 91.602 23.4233 91.6527 23.4233H93.5814C93.6195 23.4233 93.6449 23.3982 93.6576 23.3731L94.8123 19.1386C94.8249 19.101 94.8503 19.0884 94.8884 19.0884H99.1523C99.1904 19.0884 99.2158 19.1135 99.2285 19.1386L100.383 23.3731C100.396 23.3982 100.434 23.4233 100.459 23.4233ZM95.3959 17.0151L96.9441 11.3482C96.9694 11.2729 97.0709 11.2729 97.0963 11.3482L98.6444 17.0151C98.6571 17.0654 98.619 17.1156 98.5682 17.1156H95.4721C95.4213 17.1156 95.3833 17.0654 95.3959 17.0151Z" fill="#333333"/>
<path d="M133.349 23.4233H135.277C135.328 23.4233 135.366 23.3731 135.353 23.3228L131.369 8.77243C131.356 8.73473 131.331 8.72217 131.293 8.72217H130.557H129.263H128.527C128.489 8.72217 128.463 8.7473 128.451 8.77243L124.466 23.3228C124.454 23.3731 124.492 23.4233 124.543 23.4233H126.472C126.51 23.4233 126.535 23.3982 126.548 23.3731L127.702 19.1386C127.715 19.101 127.74 19.0884 127.779 19.0884H132.042C132.08 19.0884 132.106 19.1135 132.118 19.1386L133.273 23.3731C133.285 23.3982 133.311 23.4233 133.349 23.4233ZM128.286 17.0151L129.834 11.3482C129.859 11.2729 129.961 11.2729 129.986 11.3482L131.534 17.0151C131.547 17.0654 131.509 17.1156 131.458 17.1156H128.362C128.311 17.1156 128.273 17.0654 128.286 17.0151Z" fill="#333333"/>
<path d="M65.6528 21.2748V16.7765C65.6528 16.7389 65.6909 16.7012 65.729 16.7012H71.3755C71.4136 16.7012 71.4517 16.6634 71.4517 16.6257V14.8164C71.4517 14.7787 71.4136 14.741 71.3755 14.741H65.729C65.6909 14.741 65.6528 14.7033 65.6528 14.6656V10.8207C65.6528 10.783 65.6909 10.7453 65.729 10.7453H72.1496C72.1877 10.7453 72.2258 10.7076 72.2258 10.6699V8.86055C72.2258 8.82286 72.1877 8.78516 72.1496 8.78516H65.6528H63.4577C63.4196 8.78516 63.3815 8.82286 63.3815 8.86055V10.7453V14.7535V16.7138V21.3628V23.3481C63.3815 23.3858 63.4196 23.4235 63.4577 23.4235H65.6528H72.4161C72.4542 23.4235 72.4922 23.3858 72.4922 23.3481V21.4382C72.4922 21.4005 72.4542 21.3628 72.4161 21.3628H65.7163C65.6782 21.3503 65.6528 21.3251 65.6528 21.2748Z" fill="#333333"/>
<path d="M167.101 23.2978L159.767 15.7964C159.742 15.7713 159.742 15.7211 159.767 15.696L166.366 8.91081C166.417 8.86055 166.379 8.78516 166.315 8.78516H163.612C163.587 8.78516 163.574 8.79772 163.562 8.81029L157.966 14.5651C157.915 14.6154 157.839 14.5776 157.839 14.5148V8.86055C157.839 8.82286 157.801 8.78516 157.763 8.78516H155.643C155.605 8.78516 155.567 8.82286 155.567 8.86055V23.3607C155.567 23.3984 155.605 23.4361 155.643 23.4361H157.763C157.801 23.4361 157.839 23.3984 157.839 23.3607V16.9776C157.839 16.9148 157.928 16.8771 157.966 16.9273L164.31 23.4109C164.323 23.4235 164.348 23.4361 164.361 23.4361H167.063C167.114 23.4235 167.152 23.3355 167.101 23.2978Z" fill="#333333"/>
<path d="M32.1918 0.969727L19.3632 10.3935L21.7488 4.83978L32.1918 0.969727Z" fill="#928E8B" stroke="white" stroke-width="0.25" stroke-linecap="round" stroke-linejoin="round"/>
<path d="M2.60095 0.969727L15.3154 10.4815L13.0441 4.83977L2.60095 0.969727Z" fill="#928E8B" stroke="#928E8B" stroke-width="0.25" stroke-linecap="round" stroke-linejoin="round"/>
<path d="M27.5728 22.8203L24.1594 27.9971L31.4683 29.995L33.5621 22.9335L27.5728 22.8203Z" fill="#928E8B" stroke="#928E8B" stroke-width="0.25" stroke-linecap="round" stroke-linejoin="round"/>
<path d="M1.24316 22.9335L3.32416 29.995L10.6204 27.9971L7.2197 22.8203L1.24316 22.9335Z" fill="#928E8B" stroke="#928E8B" stroke-width="0.25" stroke-linecap="round" stroke-linejoin="round"/>
<path d="M10.2269 14.0749L8.19666 17.1157L15.4294 17.4424L15.1883 9.71484L10.2269 14.0749Z" fill="#928E8B" stroke="#928E8B" stroke-width="0.25" stroke-linecap="round" stroke-linejoin="round"/>
<path d="M24.5653 14.075L19.5279 9.62695L19.3629 17.4424L26.5956 17.1157L24.5653 14.075Z" fill="#928E8B" stroke="#928E8B" stroke-width="0.25" stroke-linecap="round" stroke-linejoin="round"/>
<path d="M10.6205 27.9973L14.9982 25.899L11.2296 22.9839L10.6205 27.9973Z" fill="#A8A8A8" stroke="white" stroke-width="0.25" stroke-linecap="round" stroke-linejoin="round"/>
<path d="M19.7946 25.899L24.1595 27.9973L23.5631 22.9839L19.7946 25.899Z" fill="#A8A8A8" stroke="white" stroke-width="0.25" stroke-linecap="round" stroke-linejoin="round"/>
<path d="M24.1595 27.9973L19.7946 25.8989L20.1498 28.7135L20.1117 29.9072L24.1595 27.9973Z" fill="#6D6D6D" stroke="white" stroke-width="0.25" stroke-linecap="round" stroke-linejoin="round"/>
<path d="M10.6205 27.9973L14.681 29.9072L14.6556 28.7135L14.9982 25.8989L10.6205 27.9973Z" fill="#6D6D6D" stroke="white" stroke-width="0.25" stroke-linecap="round" stroke-linejoin="round"/>
<path d="M14.7569 21.1239L11.1278 20.0685L13.691 18.8999L14.7569 21.1239Z" fill="#333333" stroke="#233447" stroke-width="0.25" stroke-linecap="round" stroke-linejoin="round"/>
<path d="M20.0356 21.1239L21.1016 18.8999L23.6774 20.0685L20.0356 21.1239Z" fill="#333333" stroke="#233447" stroke-width="0.25" stroke-linecap="round" stroke-linejoin="round"/>
<path d="M10.6204 27.9971L11.2549 22.8203L7.21973 22.9335L10.6204 27.9971Z" fill="#9C9998" stroke="white" stroke-width="0.25" stroke-linecap="round" stroke-linejoin="round"/>
<path d="M23.5377 22.8203L24.1595 27.9971L27.5728 22.9335L23.5377 22.8203Z" fill="#9C9998" stroke="white" stroke-width="0.25" stroke-linecap="round" stroke-linejoin="round"/>
<path d="M26.5956 17.1157L19.3629 17.4424L20.0354 21.1241L21.1013 18.9L23.6772 20.0685L26.5956 17.1157Z" fill="#EEEEEE" stroke="white" stroke-width="0.25" stroke-linecap="round" stroke-linejoin="round"/>
<path d="M11.1278 20.0685L13.691 18.9L14.7569 21.1241L15.4294 17.4424L8.19666 17.1157L11.1278 20.0685Z" fill="#EEEEEE" stroke="white" stroke-width="0.25" stroke-linecap="round" stroke-linejoin="round"/>
<path d="M8.1969 17.1157L11.2296 22.9837L11.128 20.0685L8.1969 17.1157Z" fill="#A8A8A8" stroke="white" stroke-width="0.25" stroke-linecap="round" stroke-linejoin="round"/>
<path d="M23.6774 20.0685L23.5632 22.9837L26.5959 17.1157L23.6774 20.0685Z" fill="#A8A8A8" stroke="white" stroke-width="0.25" stroke-linecap="round" stroke-linejoin="round"/>
<path d="M15.4298 17.4424L14.7572 21.124L15.6074 25.4715L15.7977 19.7418L15.4298 17.4424Z" fill="#A8A8A8" stroke="white" stroke-width="0.25" stroke-linecap="round" stroke-linejoin="round"/>
<path d="M19.3632 17.4424L19.0078 19.7293L19.1855 25.4715L20.0356 21.124L19.3632 17.4424Z" fill="#A8A8A8" stroke="white" stroke-width="0.25" stroke-linecap="round" stroke-linejoin="round"/>
<path d="M20.0357 21.1244L19.1855 25.4718L19.7946 25.8991L23.5633 22.9839L23.6775 20.0688L20.0357 21.1244Z" fill="#646463" stroke="white" stroke-width="0.25" stroke-linecap="round" stroke-linejoin="round"/>
<path d="M11.1278 20.0688L11.2294 22.9839L14.998 25.8991L15.6071 25.4718L14.7569 21.1244L11.1278 20.0688Z" fill="#646463" stroke="white" stroke-width="0.25" stroke-linecap="round" stroke-linejoin="round"/>
<path d="M20.1119 29.907L20.1499 28.7133L19.82 28.4368H14.9729L14.6556 28.7133L14.681 29.907L10.6205 27.9971L12.0416 29.153L14.9221 31.1258H19.858L22.7512 29.153L24.1596 27.9971L20.1119 29.907Z" fill="#A8A8A8" stroke="white" stroke-width="0.25" stroke-linecap="round" stroke-linejoin="round"/>
<path d="M19.7946 25.8988L19.1855 25.4717H15.6072L14.9982 25.8988L14.6555 28.7135L14.9728 28.437H19.82L20.1499 28.7135L19.7946 25.8988Z" fill="#161616" stroke="#161616" stroke-width="0.25" stroke-linecap="round" stroke-linejoin="round"/>
<path d="M32.7373 11.0092L33.8159 5.80728L32.1917 0.969727L19.7946 10.0794L24.5656 14.0751L31.3034 16.0227L32.7881 14.3013L32.141 13.8363L33.1687 12.9066L32.3821 12.3034L33.4099 11.5244L32.7373 11.0092Z" fill="#333333" stroke="white" stroke-width="0.25" stroke-linecap="round" stroke-linejoin="round"/>
<path d="M0.976807 5.80728L2.06806 11.0092L1.37017 11.5244L2.41067 12.3034L1.62395 12.9066L2.65176 13.8363L2.00461 14.3013L3.48924 16.0227L10.2272 14.0751L14.9982 10.0794L2.60101 0.969727L0.976807 5.80728Z" fill="#333333" stroke="white" stroke-width="0.25" stroke-linecap="round" stroke-linejoin="round"/>
<path d="M31.3035 16.0227L24.5657 14.0752L26.5959 17.116L23.5632 22.9838L27.573 22.9336H33.5622L31.3035 16.0227Z" fill="#383837" stroke="white" stroke-width="0.25" stroke-linecap="round" stroke-linejoin="round"/>
<path d="M10.227 14.0752L3.48912 16.0227L1.24316 22.9336H7.2197L11.2294 22.9838L8.19675 17.116L10.227 14.0752Z" fill="#383837" stroke="white" stroke-width="0.25" stroke-linecap="round" stroke-linejoin="round"/>
<path d="M19.3631 17.4426L19.7945 10.0794L21.7486 4.83984H13.0439L14.998 10.0794L15.4294 17.4426L15.5944 19.7546L15.6071 25.4717H19.1854L19.1981 19.7546L19.3631 17.4426Z" fill="#383837" stroke="white" stroke-width="0.25" stroke-linecap="round" stroke-linejoin="round"/>
</svg>
